<svg xmlns="http://www.w3.org/2000/svg" xmlns:xlink="http://www.w3.org/1999/xlink" width="500" zoomAndPan="magnify" viewBox="0 0 375 374.999991" height="500" preserveAspectRatio="xMidYMid meet" version="1.0"><defs><clipPath id="d4e34327b9"><path d="M 163.09375 95.503906 L 374.265625 95.503906 L 374.265625 280 L 163.09375 280 Z M 163.09375 95.503906 " clip-rule="nonzero"/></clipPath><clipPath id="e7aa4a6770"><path d="M 268.679688 95.503906 L 374.265625 279.847656 L 163.09375 279.847656 Z M 268.679688 95.503906 " clip-rule="nonzero"/></clipPath><clipPath id="bfe66afcbc"><path d="M 25 94 L 181 94 L 181 281 L 25 281 Z M 25 94 " clip-rule="nonzero"/></clipPath><clipPath id="4a5bf26afb"><path d="M 135.332031 94.578125 L 180.066406 126.433594 L 70.34375 280.503906 L 25.613281 248.648438 Z M 135.332031 94.578125 " clip-rule="nonzero"/></clipPath><clipPath id="c305d6935c"><path d="M 0.441406 0.558594 L 155.238281 0.558594 L 155.238281 186.558594 L 0.441406 186.558594 Z M 0.441406 0.558594 " clip-rule="nonzero"/></clipPath><clipPath id="6e2ce3eda8"><path d="M 110.332031 0.578125 L 155.066406 32.433594 L 45.34375 186.503906 L 0.613281 154.648438 Z M 110.332031 0.578125 " clip-rule="nonzero"/></clipPath><clipPath id="4d0fa59076"><rect x="0" width="156" y="0" height="187"/></clipPath><clipPath id="f10c006663"><path d="M 2 120 L 192 120 L 192 268 L 2 268 Z M 2 120 " clip-rule="nonzero"/></clipPath><clipPath id="73cf6932b2"><path d="M 2.226562 167.464844 L 31.152344 120.878906 L 191.839844 220.664062 L 162.910156 267.246094 Z M 2.226562 167.464844 " clip-rule="nonzero"/></clipPath><clipPath id="1005cd4989"><path d="M 0.160156 0.71875 L 190 0.71875 L 190 147.359375 L 0.160156 147.359375 Z M 0.160156 0.71875 " clip-rule="nonzero"/></clipPath><clipPath id="33ea7bbec0"><path d="M 0.226562 47.464844 L 29.152344 0.878906 L 189.839844 100.664062 L 160.910156 147.246094 Z M 0.226562 47.464844 " clip-rule="nonzero"/></clipPath><clipPath id="2e58f343aa"><rect x="0" width="190" y="0" height="148"/></clipPath></defs><g clip-path="url(#d4e34327b9)"><g clip-path="url(#e7aa4a6770)"><path stroke-linecap="butt" transform="matrix(0.75, 0.000000000000000003, -0.000000000000000003, 0.75, 163.094627, 95.504583)" fill="none" stroke-linejoin="miter" d="M 140.78009 -0.000902771 L 281.56135 245.79078 L -0.00116879 245.79078 Z M 140.78009 -0.000902771 " stroke="#000000" stroke-width="68" stroke-opacity="1" stroke-miterlimit="4"/></g></g><g clip-path="url(#bfe66afcbc)"><g clip-path="url(#4a5bf26afb)"><g transform="matrix(1, 0, 0, 1, 25, 94)"><g clip-path="url(#4d0fa59076)"><g clip-path="url(#c305d6935c)"><g clip-path="url(#6e2ce3eda8)"><path fill="#8c52ff" d="M 110.332031 0.578125 L 155.066406 32.433594 L 45.308594 186.554688 L 0.578125 154.695312 Z M 110.332031 0.578125 " fill-opacity="1" fill-rule="nonzero"/></g></g></g></g></g></g><g clip-path="url(#f10c006663)"><g clip-path="url(#73cf6932b2)"><g transform="matrix(1, 0, 0, 1, 2, 120)"><g clip-path="url(#2e58f343aa)"><g clip-path="url(#1005cd4989)"><g clip-path="url(#33ea7bbec0)"><path fill="#8c52ff" d="M 0.226562 47.464844 L 29.152344 0.878906 L 189.832031 100.660156 L 160.90625 147.242188 Z M 0.226562 47.464844 " fill-opacity="1" fill-rule="nonzero"/></g></g></g></g></g></g></svg>