<svg xmlns="http://www.w3.org/2000/svg" xmlns:xlink="http://www.w3.org/1999/xlink" width="500" zoomAndPan="magnify" viewBox="0 0 375 374.999991" height="500" preserveAspectRatio="xMidYMid meet" version="1.0"><defs><clipPath id="1d9eba0b38"><path d="M 21 88 L 360 88 L 360 283 L 21 283 Z M 21 88 " clip-rule="nonzero"/></clipPath><clipPath id="540c57a0ef"><path d="M 18.71875 131.773438 L 339.390625 85.144531 L 361.707031 238.613281 L 41.035156 285.242188 Z M 18.71875 131.773438 " clip-rule="nonzero"/></clipPath><clipPath id="f26fb83277"><path d="M 36.472656 129.800781 L 322.273438 88.242188 C 331.699219 86.871094 340.453125 93.402344 341.824219 102.832031 L 359.089844 221.5625 C 360.460938 230.988281 353.929688 239.742188 344.503906 241.113281 L 58.703125 282.671875 C 49.273438 284.042969 40.519531 277.511719 39.152344 268.085938 L 21.886719 149.355469 C 20.515625 139.925781 27.046875 131.171875 36.472656 129.800781 Z M 36.472656 129.800781 " clip-rule="nonzero"/></clipPath><clipPath id="69b4f9e076"><path d="M 0 0 L 339 0 L 339 195 L 0 195 Z M 0 0 " clip-rule="nonzero"/></clipPath><clipPath id="5041f0ab84"><path d="M -2.28125 43.773438 L 318.390625 -2.855469 L 340.707031 150.613281 L 20.035156 197.242188 Z M -2.28125 43.773438 " clip-rule="nonzero"/></clipPath><clipPath id="a9f23f27c3"><path d="M 15.472656 41.800781 L 301.273438 0.242188 C 310.699219 -1.128906 319.453125 5.402344 320.824219 14.832031 L 338.089844 133.5625 C 339.460938 142.988281 332.929688 151.742188 323.503906 153.113281 L 37.703125 194.671875 C 28.273438 196.042969 19.519531 189.511719 18.152344 180.085938 L 0.886719 61.355469 C -0.484375 51.925781 6.046875 43.171875 15.472656 41.800781 Z M 15.472656 41.800781 " clip-rule="nonzero"/></clipPath><clipPath id="65be137908"><rect x="0" width="339" y="0" height="195"/></clipPath><clipPath id="1b534d9cd0"><path d="M 21 88 L 360 88 L 360 283 L 21 283 Z M 21 88 " clip-rule="nonzero"/></clipPath><clipPath id="37bd369c0a"><path d="M 19.402344 132.285156 L 339.289062 85.769531 L 361.523438 238.660156 L 41.636719 285.175781 Z M 19.402344 132.285156 " clip-rule="nonzero"/></clipPath><clipPath id="34c227bd5c"><path d="M 19.402344 132.285156 L 339.34375 85.761719 L 361.671875 239.332031 L 41.734375 285.855469 Z M 19.402344 132.285156 " clip-rule="nonzero"/></clipPath><clipPath id="08194de162"><path d="M 36.472656 129.800781 L 322.265625 88.246094 C 331.691406 86.875 340.445312 93.40625 341.816406 102.832031 L 359.082031 221.558594 C 360.453125 230.988281 353.921875 239.742188 344.496094 241.113281 L 58.703125 282.667969 C 49.273438 284.039062 40.519531 277.507812 39.148438 268.082031 L 21.886719 149.355469 C 20.515625 139.925781 27.046875 131.171875 36.472656 129.800781 Z M 36.472656 129.800781 " clip-rule="nonzero"/></clipPath><clipPath id="60c587047f"><path d="M 15 82 L 354 82 L 354 278 L 15 278 Z M 15 82 " clip-rule="nonzero"/></clipPath><clipPath id="c446d55234"><path d="M 12.742188 126.113281 L 333.414062 79.484375 L 355.730469 232.953125 L 35.058594 279.582031 Z M 12.742188 126.113281 " clip-rule="nonzero"/></clipPath><clipPath id="d87776056a"><path d="M 30.496094 124.140625 L 316.296875 82.585938 C 325.726562 81.214844 334.480469 87.746094 335.851562 97.171875 L 353.113281 215.902344 C 354.484375 225.332031 347.953125 234.085938 338.527344 235.457031 L 52.726562 277.011719 C 43.300781 278.382812 34.546875 271.851562 33.175781 262.425781 L 15.910156 143.695312 C 14.539062 134.265625 21.070312 125.511719 30.496094 124.140625 Z M 30.496094 124.140625 " clip-rule="nonzero"/></clipPath><clipPath id="2b71c7236e"><path d="M 0 0 L 339 0 L 339 196 L 0 196 Z M 0 0 " clip-rule="nonzero"/></clipPath><clipPath id="b4e0d3bfe4"><path d="M -2.257812 44.113281 L 318.414062 -2.515625 L 340.730469 150.953125 L 20.058594 197.582031 Z M -2.257812 44.113281 " clip-rule="nonzero"/></clipPath><clipPath id="8bb65ef8bb"><path d="M 15.496094 42.140625 L 301.296875 0.585938 C 310.726562 -0.785156 319.480469 5.746094 320.851562 15.171875 L 338.113281 133.902344 C 339.484375 143.332031 332.953125 152.085938 323.527344 153.457031 L 37.726562 195.011719 C 28.300781 196.382812 19.546875 189.851562 18.175781 180.425781 L 0.910156 61.695312 C -0.460938 52.265625 6.070312 43.511719 15.496094 42.140625 Z M 15.496094 42.140625 " clip-rule="nonzero"/></clipPath><clipPath id="b964e2d837"><rect x="0" width="339" y="0" height="196"/></clipPath><clipPath id="406976a9dd"><path d="M 15 82 L 354 82 L 354 278 L 15 278 Z M 15 82 " clip-rule="nonzero"/></clipPath><clipPath id="43e2a8f0c7"><path d="M 13.425781 126.625 L 333.3125 80.109375 L 355.546875 233 L 35.660156 279.515625 Z M 13.425781 126.625 " clip-rule="nonzero"/></clipPath><clipPath id="962a4b56b8"><path d="M 13.425781 126.625 L 333.367188 80.101562 L 355.695312 233.671875 L 35.757812 280.195312 Z M 13.425781 126.625 " clip-rule="nonzero"/></clipPath><clipPath id="6b524ab7d0"><path d="M 30.496094 124.144531 L 316.289062 82.585938 C 325.71875 81.214844 334.472656 87.746094 335.84375 97.175781 L 353.105469 215.902344 C 354.476562 225.328125 347.945312 234.082031 338.519531 235.453125 L 52.726562 277.011719 C 43.296875 278.382812 34.542969 271.851562 33.175781 262.421875 L 15.910156 143.695312 C 14.539062 134.269531 21.070312 125.515625 30.496094 124.144531 Z M 30.496094 124.144531 " clip-rule="nonzero"/></clipPath><clipPath id="0b55ae9292"><path d="M 38 110 L 335 110 L 335 260 L 38 260 Z M 38 110 " clip-rule="nonzero"/></clipPath><clipPath id="5e4c58a288"><path d="M 36.339844 149.167969 L 320.550781 107.839844 L 336.976562 220.816406 L 52.769531 262.144531 Z M 36.339844 149.167969 " clip-rule="nonzero"/></clipPath><clipPath id="5d2a9b4c9e"><path d="M 53.410156 146.683594 L 303.367188 110.339844 C 312.792969 108.96875 321.546875 115.5 322.917969 124.925781 L 334.382812 203.761719 C 335.753906 213.191406 329.222656 221.945312 319.792969 223.316406 L 69.839844 259.660156 C 60.414062 261.03125 51.65625 254.5 50.289062 245.074219 L 38.824219 166.238281 C 37.453125 156.808594 43.984375 148.054688 53.410156 146.683594 Z M 53.410156 146.683594 " clip-rule="nonzero"/></clipPath><clipPath id="f10f4f11f5"><path d="M 0 0 L 297 0 L 297 150 L 0 150 Z M 0 0 " clip-rule="nonzero"/></clipPath><clipPath id="a18d9ee19c"><path d="M -1.660156 39.167969 L 282.550781 -2.160156 L 298.976562 110.816406 L 14.769531 152.144531 Z M -1.660156 39.167969 " clip-rule="nonzero"/></clipPath><clipPath id="3f91c7072a"><path d="M 15.410156 36.683594 L 265.367188 0.339844 C 274.792969 -1.03125 283.546875 5.5 284.917969 14.925781 L 296.382812 93.761719 C 297.753906 103.191406 291.222656 111.945312 281.792969 113.316406 L 31.839844 149.660156 C 22.414062 151.03125 13.65625 144.5 12.289062 135.074219 L 0.824219 56.238281 C -0.546875 46.808594 5.984375 38.054688 15.410156 36.683594 Z M 15.410156 36.683594 " clip-rule="nonzero"/></clipPath><clipPath id="a59ee6ab1b"><rect x="0" width="297" y="0" height="150"/></clipPath><clipPath id="7d437e6569"><path d="M 38 110 L 335 110 L 335 260 L 38 260 Z M 38 110 " clip-rule="nonzero"/></clipPath><clipPath id="3a208cf45a"><path d="M 36.339844 149.167969 L 320.601562 107.832031 L 337.007812 220.644531 L 52.746094 261.980469 Z M 36.339844 149.167969 " clip-rule="nonzero"/></clipPath><clipPath id="eae491985e"><path d="M 36.339844 149.167969 L 321.542969 107.695312 L 338.023438 221.046875 L 52.824219 262.515625 Z M 36.339844 149.167969 " clip-rule="nonzero"/></clipPath><clipPath id="c5172fe123"><path d="M 53.410156 146.6875 L 303.359375 110.339844 C 312.785156 108.96875 321.539062 115.5 322.910156 124.929688 L 334.375 203.761719 C 335.746094 213.191406 329.214844 221.945312 319.785156 223.316406 L 69.839844 259.660156 C 60.410156 261.03125 51.65625 254.5 50.285156 245.070312 L 38.824219 166.238281 C 37.453125 156.808594 43.984375 148.058594 53.410156 146.6875 Z M 53.410156 146.6875 " clip-rule="nonzero"/></clipPath><clipPath id="42a4eedcd2"><path d="M 20 4 L 48 4 L 48 63 L 20 63 Z M 20 4 " clip-rule="nonzero"/></clipPath><clipPath id="c4653a7cfc"><path d="M 20.546875 7.476562 L 36.5625 4.363281 L 47.253906 59.40625 L 31.238281 62.519531 Z M 20.546875 7.476562 " clip-rule="nonzero"/></clipPath><clipPath id="a29cc2b2a5"><path d="M 0.480469 0.199219 L 27.359375 0.199219 L 27.359375 58.519531 L 0.480469 58.519531 Z M 0.480469 0.199219 " clip-rule="nonzero"/></clipPath><clipPath id="ee58366ee4"><path d="M 0.546875 3.476562 L 16.5625 0.363281 L 27.253906 55.40625 L 11.238281 58.519531 Z M 0.546875 3.476562 " clip-rule="nonzero"/></clipPath><clipPath id="9ee8ccdad0"><rect x="0" width="28" y="0" height="59"/></clipPath><clipPath id="21f57d9da6"><path d="M 4 20 L 63 20 L 63 47 L 4 47 Z M 4 20 " clip-rule="nonzero"/></clipPath><clipPath id="8d3299a2d7"><path d="M 7.933594 46.792969 L 4.824219 30.777344 L 59.863281 20.085938 L 62.976562 36.101562 Z M 7.933594 46.792969 " clip-rule="nonzero"/></clipPath><clipPath id="6004aa6705"><path d="M 0.640625 0.0390625 L 59 0.0390625 L 59 26.921875 L 0.640625 26.921875 Z M 0.640625 0.0390625 " clip-rule="nonzero"/></clipPath><clipPath id="3fb5f1107b"><path d="M 3.933594 26.792969 L 0.824219 10.777344 L 55.863281 0.0859375 L 58.976562 16.101562 Z M 3.933594 26.792969 " clip-rule="nonzero"/></clipPath><clipPath id="5554fd6e10"><rect x="0" width="59" y="0" height="27"/></clipPath><clipPath id="9f39658615"><rect x="0" width="67" y="0" height="67"/></clipPath><clipPath id="7938f07575"><path d="M 19 4 L 47 4 L 47 63 L 19 63 Z M 19 4 " clip-rule="nonzero"/></clipPath><clipPath id="7bf217c80e"><path d="M 19.738281 7.773438 L 35.757812 4.664062 L 46.445312 59.707031 L 30.429688 62.816406 Z M 19.738281 7.773438 " clip-rule="nonzero"/></clipPath><clipPath id="7005b06649"><path d="M 0.601562 0.601562 L 27.480469 0.601562 L 27.480469 58.921875 L 0.601562 58.921875 Z M 0.601562 0.601562 " clip-rule="nonzero"/></clipPath><clipPath id="c12becd999"><path d="M 0.738281 3.773438 L 16.757812 0.664062 L 27.445312 55.707031 L 11.429688 58.816406 Z M 0.738281 3.773438 " clip-rule="nonzero"/></clipPath><clipPath id="441f406fe0"><rect x="0" width="28" y="0" height="59"/></clipPath><clipPath id="2c3d3c1306"><path d="M 4 20 L 63 20 L 63 48 L 4 48 Z M 4 20 " clip-rule="nonzero"/></clipPath><clipPath id="dec206617a"><path d="M 7.125 47.089844 L 4.015625 31.074219 L 59.054688 20.382812 L 62.167969 36.398438 Z M 7.125 47.089844 " clip-rule="nonzero"/></clipPath><clipPath id="db6b3359a0"><path d="M 0 0.199219 L 58.320312 0.199219 L 58.320312 27.320312 L 0 27.320312 Z M 0 0.199219 " clip-rule="nonzero"/></clipPath><clipPath id="68be9e4319"><path d="M 3.125 27.089844 L 0.015625 11.074219 L 55.054688 0.382812 L 58.167969 16.398438 Z M 3.125 27.089844 " clip-rule="nonzero"/></clipPath><clipPath id="5ab11edcb9"><rect x="0" width="59" y="0" height="28"/></clipPath><clipPath id="ad73eda7d7"><rect x="0" width="67" y="0" height="67"/></clipPath><clipPath id="c5e187fc60"><path d="M 253 160 L 273 160 L 273 180 L 253 180 Z M 253 160 " clip-rule="nonzero"/></clipPath><clipPath id="1f0a8966f9"><path d="M 252.171875 161.894531 L 271.210938 159.128906 L 273.976562 178.164062 L 254.941406 180.933594 Z M 252.171875 161.894531 " clip-rule="nonzero"/></clipPath><clipPath id="5c30df2506"><path d="M 261.691406 160.511719 C 256.433594 161.277344 252.792969 166.15625 253.554688 171.414062 C 254.320312 176.671875 259.203125 180.3125 264.457031 179.546875 C 269.714844 178.785156 273.359375 173.902344 272.59375 168.644531 C 271.828125 163.390625 266.949219 159.746094 261.691406 160.511719 Z M 261.691406 160.511719 " clip-rule="nonzero"/></clipPath><clipPath id="26b6f469b5"><path d="M 0 0 L 20 0 L 20 20 L 0 20 Z M 0 0 " clip-rule="nonzero"/></clipPath><clipPath id="f828dbcb41"><path d="M -0.828125 1.894531 L 18.210938 -0.871094 L 20.976562 18.164062 L 1.941406 20.933594 Z M -0.828125 1.894531 " clip-rule="nonzero"/></clipPath><clipPath id="5bce5a7eb1"><path d="M 8.691406 0.511719 C 3.433594 1.277344 -0.207031 6.15625 0.554688 11.414062 C 1.320312 16.671875 6.203125 20.3125 11.457031 19.546875 C 16.714844 18.785156 20.359375 13.902344 19.59375 8.644531 C 18.828125 3.390625 13.949219 -0.253906 8.691406 0.511719 Z M 8.691406 0.511719 " clip-rule="nonzero"/></clipPath><clipPath id="245ae88e4c"><rect x="0" width="20" y="0" height="20"/></clipPath><clipPath id="d6429e66f8"><path d="M 258 165 L 270 165 L 270 175 L 258 175 Z M 258 165 " clip-rule="nonzero"/></clipPath><clipPath id="41be8d5f03"><path d="M 258.382812 166.613281 L 268.03125 165.207031 L 269.21875 173.371094 L 259.570312 174.777344 Z M 258.382812 166.613281 " clip-rule="nonzero"/></clipPath><clipPath id="6635b60314"><path d="M 258.382812 166.609375 L 267.960938 165.21875 L 269.179688 173.589844 L 259.601562 174.984375 Z M 258.382812 166.609375 " clip-rule="nonzero"/></clipPath><clipPath id="a119305a9a"><path d="M 267 138 L 288 138 L 288 158 L 267 158 Z M 267 138 " clip-rule="nonzero"/></clipPath><clipPath id="70eb383434"><path d="M 266.539062 140.089844 L 285.574219 137.324219 L 288.34375 156.359375 L 269.304688 159.128906 Z M 266.539062 140.089844 " clip-rule="nonzero"/></clipPath><clipPath id="247719e414"><path d="M 276.054688 138.707031 C 270.800781 139.472656 267.15625 144.351562 267.921875 149.609375 C 268.6875 154.867188 273.566406 158.507812 278.824219 157.742188 C 284.082031 156.980469 287.722656 152.097656 286.957031 146.839844 C 286.195312 141.585938 281.3125 137.941406 276.054688 138.707031 Z M 276.054688 138.707031 " clip-rule="nonzero"/></clipPath><clipPath id="b1a89b652f"><path d="M 0.121094 0 L 20.761719 0 L 20.761719 20 L 0.121094 20 Z M 0.121094 0 " clip-rule="nonzero"/></clipPath><clipPath id="9adff488c3"><path d="M -0.460938 2.089844 L 18.574219 -0.675781 L 21.34375 18.359375 L 2.304688 21.128906 Z M -0.460938 2.089844 " clip-rule="nonzero"/></clipPath><clipPath id="bb0b6b947d"><path d="M 9.054688 0.707031 C 3.800781 1.472656 0.15625 6.351562 0.921875 11.609375 C 1.6875 16.867188 6.566406 20.507812 11.824219 19.742188 C 17.082031 18.980469 20.722656 14.097656 19.957031 8.839844 C 19.195312 3.585938 14.3125 -0.0585938 9.054688 0.707031 Z M 9.054688 0.707031 " clip-rule="nonzero"/></clipPath><clipPath id="361a2b7b37"><rect x="0" width="21" y="0" height="20"/></clipPath><clipPath id="0a609294f0"><path d="M 272 142 L 284 142 L 284 154 L 272 154 Z M 272 142 " clip-rule="nonzero"/></clipPath><clipPath id="d3769b5f21"><path d="M 271.101562 143.777344 L 282.234375 142.160156 L 283.636719 151.808594 L 272.503906 153.425781 Z M 271.101562 143.777344 " clip-rule="nonzero"/></clipPath><clipPath id="023cfb5c5d"><path d="M 271.101562 143.78125 L 282.335938 142.144531 L 283.769531 151.976562 L 272.53125 153.613281 Z M 271.101562 143.78125 " clip-rule="nonzero"/></clipPath><clipPath id="135217b06d"><path d="M 276.71875 142.960938 L 283.769531 151.976562 L 272.53125 153.613281 Z M 276.71875 142.960938 " clip-rule="nonzero"/></clipPath><clipPath id="9c118eca89"><path d="M 273 177 L 293 177 L 293 197 L 273 197 Z M 273 177 " clip-rule="nonzero"/></clipPath><clipPath id="3198bf27c3"><path d="M 272.140625 178.621094 L 291.175781 175.855469 L 293.945312 194.890625 L 274.910156 197.660156 Z M 272.140625 178.621094 " clip-rule="nonzero"/></clipPath><clipPath id="b6f7c96477"><path d="M 281.660156 177.238281 C 276.402344 178.003906 272.761719 182.882812 273.523438 188.140625 C 274.289062 193.398438 279.171875 197.039062 284.425781 196.273438 C 289.683594 195.511719 293.324219 190.628906 292.5625 185.371094 C 291.796875 180.117188 286.914062 176.472656 281.660156 177.238281 Z M 281.660156 177.238281 " clip-rule="nonzero"/></clipPath><clipPath id="750eb1e9bc"><path d="M 0 0 L 20 0 L 20 20 L 0 20 Z M 0 0 " clip-rule="nonzero"/></clipPath><clipPath id="30a48a3785"><path d="M -0.859375 1.621094 L 18.175781 -1.144531 L 20.945312 17.890625 L 1.910156 20.660156 Z M -0.859375 1.621094 " clip-rule="nonzero"/></clipPath><clipPath id="78e35da6aa"><path d="M 8.660156 0.238281 C 3.402344 1.003906 -0.238281 5.882812 0.523438 11.140625 C 1.289062 16.398438 6.171875 20.039062 11.425781 19.273438 C 16.683594 18.511719 20.324219 13.628906 19.5625 8.371094 C 18.796875 3.117188 13.914062 -0.527344 8.660156 0.238281 Z M 8.660156 0.238281 " clip-rule="nonzero"/></clipPath><clipPath id="5c1a359983"><rect x="0" width="20" y="0" height="20"/></clipPath><clipPath id="63a8946b5f"><path d="M 277 181 L 289 181 L 289 193 L 277 193 Z M 277 181 " clip-rule="nonzero"/></clipPath><clipPath id="f09c0f3303"><path d="M 276.867188 182.148438 L 288 180.53125 L 289.621094 191.664062 L 278.484375 193.28125 Z M 276.867188 182.148438 " clip-rule="nonzero"/></clipPath><clipPath id="7243e64e29"><path d="M 276.867188 182.148438 L 287.640625 180.582031 L 289.207031 191.355469 L 278.433594 192.921875 Z M 276.867188 182.148438 " clip-rule="nonzero"/></clipPath><clipPath id="ccab00b3d9"><path d="M 282.253906 181.363281 C 279.277344 181.796875 277.21875 184.558594 277.652344 187.535156 C 278.082031 190.511719 280.847656 192.570312 283.820312 192.136719 C 286.796875 191.707031 288.855469 188.945312 288.425781 185.96875 C 287.992188 182.992188 285.230469 180.933594 282.253906 181.363281 Z M 282.253906 181.363281 " clip-rule="nonzero"/></clipPath><clipPath id="eb14355c63"><path d="M 139 138 L 231 138 L 231 167 L 139 167 Z M 139 138 " clip-rule="nonzero"/></clipPath><clipPath id="1c0082927b"><path d="M 139.535156 151.632812 L 228.117188 138.75 L 230.328125 153.960938 L 141.746094 166.84375 Z M 139.535156 151.632812 " clip-rule="nonzero"/></clipPath><clipPath id="c6d556b6c8"><path d="M 0.441406 0.71875 L 91.398438 0.71875 L 91.398438 29 L 0.441406 29 Z M 0.441406 0.71875 " clip-rule="nonzero"/></clipPath><clipPath id="5f49d8a00c"><path d="M 0.535156 13.632812 L 89.117188 0.75 L 91.328125 15.960938 L 2.746094 28.84375 Z M 0.535156 13.632812 " clip-rule="nonzero"/></clipPath><clipPath id="d44ae0db30"><rect x="0" width="92" y="0" height="29"/></clipPath><clipPath id="e34a869b6a"><path d="M 139 138 L 231 138 L 231 167 L 139 167 Z M 139 138 " clip-rule="nonzero"/></clipPath><clipPath id="8ee94d7c0c"><path d="M 139.535156 151.632812 L 227.855469 138.789062 L 230.015625 153.632812 L 141.691406 166.476562 Z M 139.535156 151.632812 " clip-rule="nonzero"/></clipPath><clipPath id="39188f7210"><path d="M 139.550781 151.628906 L 228.09375 138.753906 L 230.304688 153.957031 L 141.761719 166.832031 Z M 139.550781 151.628906 " clip-rule="nonzero"/></clipPath><clipPath id="d3b57bafe1"><path d="M 142 167 L 187 167 L 187 190 L 142 190 Z M 142 167 " clip-rule="nonzero"/></clipPath><clipPath id="30f7f27ad4"><path d="M 142.960938 173.898438 L 184.390625 167.875 L 186.601562 183.085938 L 145.171875 189.109375 Z M 142.960938 173.898438 " clip-rule="nonzero"/></clipPath><clipPath id="894e7265fd"><path d="M 0.800781 0.761719 L 44.71875 0.761719 L 44.71875 22.121094 L 0.800781 22.121094 Z M 0.800781 0.761719 " clip-rule="nonzero"/></clipPath><clipPath id="1fee8ee7c0"><path d="M 0.960938 6.898438 L 42.390625 0.875 L 44.601562 16.085938 L 3.171875 22.109375 Z M 0.960938 6.898438 " clip-rule="nonzero"/></clipPath><clipPath id="d996ac8bac"><rect x="0" width="45" y="0" height="23"/></clipPath><clipPath id="17466518f9"><path d="M 142 167 L 187 167 L 187 189 L 142 189 Z M 142 167 " clip-rule="nonzero"/></clipPath><clipPath id="4ed2b57686"><path d="M 142.960938 173.898438 L 184.523438 167.855469 L 186.679688 182.699219 L 145.117188 188.742188 Z M 142.960938 173.898438 " clip-rule="nonzero"/></clipPath><clipPath id="74c918af98"><path d="M 142.964844 173.898438 L 184.378906 167.875 L 186.589844 183.078125 L 145.175781 189.101562 Z M 142.964844 173.898438 " clip-rule="nonzero"/></clipPath><clipPath id="3dc910c0b2"><path d="M 146 183 L 238 183 L 238 212 L 146 212 Z M 146 183 " clip-rule="nonzero"/></clipPath><clipPath id="d4ea19dca6"><path d="M 146.378906 196.121094 L 234.960938 183.242188 L 237.171875 198.453125 L 148.589844 211.332031 Z M 146.378906 196.121094 " clip-rule="nonzero"/></clipPath><clipPath id="1c59f5d932"><path d="M 0.160156 0.121094 L 91.359375 0.121094 L 91.359375 28.441406 L 0.160156 28.441406 Z M 0.160156 0.121094 " clip-rule="nonzero"/></clipPath><clipPath id="bfae1d06a5"><path d="M 0.378906 13.121094 L 88.960938 0.242188 L 91.171875 15.453125 L 2.589844 28.332031 Z M 0.378906 13.121094 " clip-rule="nonzero"/></clipPath><clipPath id="24bb0228e0"><rect x="0" width="92" y="0" height="29"/></clipPath><clipPath id="b21eda7498"><path d="M 146 183 L 237 183 L 237 211 L 146 211 Z M 146 183 " clip-rule="nonzero"/></clipPath><clipPath id="cdb17e25ad"><path d="M 146.378906 196.121094 L 234.699219 183.28125 L 236.859375 198.125 L 148.535156 210.964844 Z M 146.378906 196.121094 " clip-rule="nonzero"/></clipPath><clipPath id="d728de5437"><path d="M 146.398438 196.121094 L 234.9375 183.246094 L 237.148438 198.449219 L 148.605469 211.324219 Z M 146.398438 196.121094 " clip-rule="nonzero"/></clipPath><clipPath id="08144072aa"><path d="M 59 146 L 98 146 L 98 159 L 59 159 Z M 59 146 " clip-rule="nonzero"/></clipPath><clipPath id="4baed80f55"><path d="M 59.058594 151.929688 L 96.878906 146.429688 L 97.902344 153.464844 L 60.082031 158.964844 Z M 59.058594 151.929688 " clip-rule="nonzero"/></clipPath><clipPath id="0bd7ce28a4"><path d="M 0.0390625 0.398438 L 38.921875 0.398438 L 38.921875 13 L 0.0390625 13 Z M 0.0390625 0.398438 " clip-rule="nonzero"/></clipPath><clipPath id="e7e7afccc3"><path d="M 0.0585938 5.929688 L 37.878906 0.429688 L 38.902344 7.464844 L 1.082031 12.964844 Z M 0.0585938 5.929688 " clip-rule="nonzero"/></clipPath><clipPath id="8e3256231a"><rect x="0" width="39" y="0" height="13"/></clipPath><clipPath id="a0659b218e"><path d="M 151 205 L 240 205 L 240 233 L 151 233 Z M 151 205 " clip-rule="nonzero"/></clipPath><clipPath id="a2a67a8573"><path d="M 150.335938 216.671875 L 238.113281 203.90625 L 240.578125 220.84375 L 152.796875 233.605469 Z M 150.335938 216.671875 " clip-rule="nonzero"/></clipPath><clipPath id="7dc09bca6d"><path d="M 158.800781 215.441406 L 229.617188 205.144531 C 234.292969 204.464844 238.636719 207.703125 239.316406 212.378906 C 239.996094 217.054688 236.757812 221.398438 232.078125 222.078125 L 161.265625 232.375 C 156.589844 233.054688 152.246094 229.816406 151.566406 225.140625 C 150.886719 220.464844 154.125 216.121094 158.800781 215.441406 Z M 158.800781 215.441406 " clip-rule="nonzero"/></clipPath><clipPath id="fc3b272d06"><path d="M 0 0 L 89 0 L 89 28 L 0 28 Z M 0 0 " clip-rule="nonzero"/></clipPath><clipPath id="99e1eda358"><path d="M -0.664062 11.671875 L 87.113281 -1.09375 L 89.578125 15.84375 L 1.796875 28.605469 Z M -0.664062 11.671875 " clip-rule="nonzero"/></clipPath><clipPath id="d15ccf66f6"><path d="M 7.800781 10.441406 L 78.617188 0.144531 C 83.292969 -0.535156 87.636719 2.703125 88.316406 7.378906 C 88.996094 12.054688 85.757812 16.398438 81.078125 17.078125 L 10.265625 27.375 C 5.589844 28.054688 1.246094 24.816406 0.566406 20.140625 C -0.113281 15.464844 3.125 11.121094 7.800781 10.441406 Z M 7.800781 10.441406 " clip-rule="nonzero"/></clipPath><clipPath id="1154c85a6c"><rect x="0" width="89" y="0" height="28"/></clipPath><clipPath id="be6e1007f4"><path d="M 151 205 L 240 205 L 240 233 L 151 233 Z M 151 205 " clip-rule="nonzero"/></clipPath><clipPath id="6de6970d2a"><path d="M 150.335938 216.671875 L 237.914062 203.9375 L 240.394531 221.007812 L 152.816406 233.742188 Z M 150.335938 216.671875 " clip-rule="nonzero"/></clipPath><clipPath id="8d39fc2127"><path d="M 150.339844 216.671875 L 238.082031 203.914062 L 240.738281 222.191406 L 152.996094 234.953125 Z M 150.339844 216.671875 " clip-rule="nonzero"/></clipPath><clipPath id="061009b1ee"><path d="M 158.804688 215.441406 L 229.605469 205.144531 C 234.28125 204.464844 238.625 207.703125 239.304688 212.378906 C 239.984375 217.054688 236.746094 221.398438 232.070312 222.078125 L 161.265625 232.371094 C 156.589844 233.050781 152.25 229.8125 151.570312 225.136719 C 150.890625 220.460938 154.128906 216.121094 158.804688 215.441406 Z M 158.804688 215.441406 " clip-rule="nonzero"/></clipPath><clipPath id="631f173bbd"><path d="M 87 73 L 144 73 L 144 131 L 87 131 Z M 87 73 " clip-rule="nonzero"/></clipPath><clipPath id="8b8649444a"><path d="M 83.359375 77.769531 L 139.5625 69.597656 L 147.734375 125.800781 L 91.53125 133.972656 Z M 83.359375 77.769531 " clip-rule="nonzero"/></clipPath><clipPath id="c22944b3a5"><path d="M 111.460938 73.683594 C 95.941406 75.941406 85.1875 90.351562 87.445312 105.871094 C 89.703125 121.390625 104.113281 132.144531 119.632812 129.886719 C 135.152344 127.628906 145.90625 113.21875 143.648438 97.699219 C 141.390625 82.179688 126.980469 71.425781 111.460938 73.683594 Z M 111.460938 73.683594 " clip-rule="nonzero"/></clipPath><clipPath id="c5562d62a9"><path d="M 0 0 L 57 0 L 57 58 L 0 58 Z M 0 0 " clip-rule="nonzero"/></clipPath><clipPath id="e6629b86ed"><path d="M -3.640625 4.769531 L 52.5625 -3.402344 L 60.734375 52.800781 L 4.53125 60.972656 Z M -3.640625 4.769531 " clip-rule="nonzero"/></clipPath><clipPath id="bc196a3213"><path d="M 24.460938 0.683594 C 8.941406 2.941406 -1.8125 17.351562 0.445312 32.871094 C 2.703125 48.390625 17.113281 59.144531 32.632812 56.886719 C 48.152344 54.628906 58.90625 40.21875 56.648438 24.699219 C 54.390625 9.179688 39.980469 -1.574219 24.460938 0.683594 Z M 24.460938 0.683594 " clip-rule="nonzero"/></clipPath><clipPath id="8f421d6302"><rect x="0" width="57" y="0" height="58"/></clipPath><clipPath id="bcbd261b94"><path d="M 87 73 L 144 73 L 144 131 L 87 131 Z M 87 73 " clip-rule="nonzero"/></clipPath><clipPath id="46498c7cc9"><path d="M 83.359375 77.769531 L 139.765625 69.566406 L 147.96875 125.976562 L 91.5625 134.175781 Z M 83.359375 77.769531 " clip-rule="nonzero"/></clipPath><clipPath id="ce199c09b2"><path d="M 83.359375 77.769531 L 139.558594 69.597656 L 147.730469 125.796875 L 91.53125 133.96875 Z M 83.359375 77.769531 " clip-rule="nonzero"/></clipPath><clipPath id="10b6e83eb1"><path d="M 111.457031 73.683594 C 95.9375 75.941406 85.1875 90.351562 87.445312 105.871094 C 89.703125 121.386719 104.109375 132.140625 119.628906 129.882812 C 135.148438 127.625 145.898438 113.214844 143.644531 97.699219 C 141.386719 82.179688 126.976562 71.429688 111.457031 73.683594 Z M 111.457031 73.683594 " clip-rule="nonzero"/></clipPath><clipPath id="d777ced90b"><path d="M 193 56 L 250 56 L 250 114 L 193 114 Z M 193 56 " clip-rule="nonzero"/></clipPath><clipPath id="7275fcb3b6"><path d="M 189.226562 60.988281 L 245.429688 52.816406 L 253.601562 109.019531 L 197.398438 117.191406 Z M 189.226562 60.988281 " clip-rule="nonzero"/></clipPath><clipPath id="99a2b579b1"><path d="M 217.328125 56.902344 C 201.808594 59.160156 191.054688 73.570312 193.3125 89.089844 C 195.570312 104.609375 209.980469 115.359375 225.5 113.105469 C 241.019531 110.847656 251.773438 96.4375 249.515625 80.917969 C 247.257812 65.398438 232.847656 54.644531 217.328125 56.902344 Z M 217.328125 56.902344 " clip-rule="nonzero"/></clipPath><clipPath id="5b98f3e0a9"><path d="M 0 0 L 57 0 L 57 58 L 0 58 Z M 0 0 " clip-rule="nonzero"/></clipPath><clipPath id="12101ca488"><path d="M -3.773438 4.988281 L 52.429688 -3.183594 L 60.601562 53.019531 L 4.398438 61.191406 Z M -3.773438 4.988281 " clip-rule="nonzero"/></clipPath><clipPath id="0d300c3e95"><path d="M 24.328125 0.902344 C 8.808594 3.160156 -1.945312 17.570312 0.3125 33.089844 C 2.570312 48.609375 16.980469 59.359375 32.5 57.105469 C 48.019531 54.847656 58.773438 40.4375 56.515625 24.917969 C 54.257812 9.398438 39.847656 -1.355469 24.328125 0.902344 Z M 24.328125 0.902344 " clip-rule="nonzero"/></clipPath><clipPath id="444928e3f8"><rect x="0" width="57" y="0" height="58"/></clipPath><clipPath id="dac4bd22a9"><path d="M 193 56 L 250 56 L 250 114 L 193 114 Z M 193 56 " clip-rule="nonzero"/></clipPath><clipPath id="bae1acb811"><path d="M 189.226562 60.988281 L 245.632812 52.785156 L 253.835938 109.191406 L 197.429688 117.394531 Z M 189.226562 60.988281 " clip-rule="nonzero"/></clipPath><clipPath id="336b014d72"><path d="M 189.226562 60.988281 L 245.425781 52.816406 L 253.597656 109.015625 L 197.398438 117.1875 Z M 189.226562 60.988281 " clip-rule="nonzero"/></clipPath><clipPath id="b202d3cfe7"><path d="M 217.324219 56.902344 C 201.808594 59.160156 191.054688 73.566406 193.3125 89.085938 C 195.570312 104.605469 209.980469 115.355469 225.496094 113.101562 C 241.015625 110.84375 251.769531 96.433594 249.511719 80.914062 C 247.253906 65.394531 232.84375 54.644531 217.324219 56.902344 Z M 217.324219 56.902344 " clip-rule="nonzero"/></clipPath><clipPath id="e416c26ef1"><path d="M 100 85 L 145 85 L 145 130 L 100 130 Z M 100 85 " clip-rule="nonzero"/></clipPath><clipPath id="85d7cdaeb2"><path d="M 97.65625 88.4375 L 141.375 82.078125 L 147.734375 125.800781 L 104.011719 132.160156 Z M 97.65625 88.4375 " clip-rule="nonzero"/></clipPath><clipPath id="e7c5903647"><path d="M 119.515625 85.257812 C 107.441406 87.011719 99.078125 98.222656 100.832031 110.296875 C 102.589844 122.371094 113.800781 130.734375 125.871094 128.980469 C 137.945312 127.222656 146.308594 116.011719 144.554688 103.941406 C 142.800781 91.867188 131.589844 83.503906 119.515625 85.257812 Z M 119.515625 85.257812 " clip-rule="nonzero"/></clipPath><clipPath id="962c0b6239"><path d="M 0 0 L 45 0 L 45 45 L 0 45 Z M 0 0 " clip-rule="nonzero"/></clipPath><clipPath id="37647aaf2f"><path d="M -2.34375 3.4375 L 41.375 -2.921875 L 47.734375 40.800781 L 4.011719 47.160156 Z M -2.34375 3.4375 " clip-rule="nonzero"/></clipPath><clipPath id="614b6ed079"><path d="M 19.515625 0.257812 C 7.441406 2.011719 -0.921875 13.222656 0.832031 25.296875 C 2.589844 37.371094 13.800781 45.734375 25.871094 43.980469 C 37.945312 42.222656 46.308594 31.011719 44.554688 18.941406 C 42.800781 6.867188 31.589844 -1.496094 19.515625 0.257812 Z M 19.515625 0.257812 " clip-rule="nonzero"/></clipPath><clipPath id="2251d4777b"><rect x="0" width="45" y="0" height="45"/></clipPath><clipPath id="ee486f4472"><path d="M 206 65 L 251 65 L 251 110 L 206 110 Z M 206 65 " clip-rule="nonzero"/></clipPath><clipPath id="dac8f006da"><path d="M 203.085938 68.65625 L 246.808594 62.296875 L 253.164062 106.019531 L 209.445312 112.378906 Z M 203.085938 68.65625 " clip-rule="nonzero"/></clipPath><clipPath id="98e932d3a0"><path d="M 224.949219 65.476562 C 212.875 67.234375 204.511719 78.441406 206.265625 90.515625 C 208.019531 102.589844 219.230469 110.953125 231.304688 109.199219 C 243.378906 107.441406 251.742188 96.230469 249.988281 84.160156 C 248.230469 72.085938 237.019531 63.722656 224.949219 65.476562 Z M 224.949219 65.476562 " clip-rule="nonzero"/></clipPath><clipPath id="81b577b5bf"><path d="M 0 0 L 45 0 L 45 45 L 0 45 Z M 0 0 " clip-rule="nonzero"/></clipPath><clipPath id="f1c7bd4379"><path d="M -2.914062 3.65625 L 40.808594 -2.703125 L 47.164062 41.019531 L 3.445312 47.378906 Z M -2.914062 3.65625 " clip-rule="nonzero"/></clipPath><clipPath id="dbbd561b5c"><path d="M 18.949219 0.476562 C 6.875 2.234375 -1.488281 13.441406 0.265625 25.515625 C 2.019531 37.589844 13.230469 45.953125 25.304688 44.199219 C 37.378906 42.441406 45.742188 31.230469 43.988281 19.160156 C 42.230469 7.085938 31.019531 -1.277344 18.949219 0.476562 Z M 18.949219 0.476562 " clip-rule="nonzero"/></clipPath><clipPath id="76a3d0c667"><rect x="0" width="45" y="0" height="45"/></clipPath><clipPath id="d21ad5732c"><path d="M 153 107 L 189 107 L 189 128 L 153 128 Z M 153 107 " clip-rule="nonzero"/></clipPath><clipPath id="1f2950b0d3"><path d="M 153.386719 112.507812 L 188.835938 107.351562 L 191.3125 124.378906 L 155.863281 129.535156 Z M 153.386719 112.507812 " clip-rule="nonzero"/></clipPath><clipPath id="042335360f"><path d="M 167.523438 126.792969 C 169.429688 127.148438 171.554688 127.25 173.578125 126.957031 C 175.605469 126.664062 177.503906 126.03125 179.210938 125.152344 C 179.246094 125.128906 179.285156 125.121094 179.320312 125.097656 C 185.707031 121.648438 189.726562 114.402344 188.800781 107.359375 L 153.386719 112.507812 C 154.511719 119.5625 160.351562 125.375 167.523438 126.792969 Z M 167.523438 126.792969 " clip-rule="nonzero"/></clipPath><clipPath id="2930641b0a"><path d="M 0.359375 0.28125 L 36 0.28125 L 36 20.441406 L 0.359375 20.441406 Z M 0.359375 0.28125 " clip-rule="nonzero"/></clipPath><clipPath id="89519e147b"><path d="M 0.386719 5.507812 L 35.835938 0.351562 L 38.3125 17.378906 L 2.863281 22.535156 Z M 0.386719 5.507812 " clip-rule="nonzero"/></clipPath><clipPath id="830d1ac118"><path d="M 14.523438 19.792969 C 16.429688 20.148438 18.554688 20.25 20.578125 19.957031 C 22.605469 19.664062 24.503906 19.03125 26.210938 18.152344 C 26.246094 18.128906 26.285156 18.121094 26.320312 18.097656 C 32.707031 14.648438 36.726562 7.402344 35.800781 0.359375 L 0.386719 5.507812 C 1.511719 12.5625 7.351562 18.375 14.523438 19.792969 Z M 14.523438 19.792969 " clip-rule="nonzero"/></clipPath><clipPath id="2efc3f15bc"><rect x="0" width="36" y="0" height="21"/></clipPath><clipPath id="af3b6b8c2f"><path d="M 153 107 L 189 107 L 189 128 L 153 128 Z M 153 107 " clip-rule="nonzero"/></clipPath><clipPath id="9187efcc32"><path d="M 153.386719 112.507812 L 189.011719 107.328125 L 191.492188 124.398438 L 155.867188 129.578125 Z M 153.386719 112.507812 " clip-rule="nonzero"/></clipPath><clipPath id="be0916799a"><path d="M 153.386719 112.507812 L 188.792969 107.359375 L 191.265625 124.382812 L 155.863281 129.53125 Z M 153.386719 112.507812 " clip-rule="nonzero"/></clipPath><clipPath id="94ab7ac059"><path d="M 167.519531 126.789062 C 169.425781 127.144531 171.546875 127.25 173.574219 126.953125 C 175.597656 126.660156 177.496094 126.03125 179.203125 125.152344 C 179.238281 125.125 179.277344 125.121094 179.3125 125.097656 C 185.699219 121.644531 189.71875 114.402344 188.792969 107.359375 L 153.386719 112.507812 C 154.511719 119.5625 160.347656 125.371094 167.519531 126.789062 Z M 167.519531 126.789062 " clip-rule="nonzero"/></clipPath><clipPath id="f74c1c65b2"><path d="M 189 160 L 233 160 L 233 182 L 189 182 Z M 189 160 " clip-rule="nonzero"/></clipPath><clipPath id="ba403580f1"><path d="M 189.226562 166.363281 L 230.660156 160.335938 L 232.871094 175.546875 L 191.4375 181.574219 Z M 189.226562 166.363281 " clip-rule="nonzero"/></clipPath><clipPath id="9a009de5b0"><path d="M 0.121094 0.320312 L 44 0.320312 L 44 21.679688 L 0.121094 21.679688 Z M 0.121094 0.320312 " clip-rule="nonzero"/></clipPath><clipPath id="76cd8beee2"><path d="M 0.226562 6.363281 L 41.660156 0.335938 L 43.871094 15.546875 L 2.4375 21.574219 Z M 0.226562 6.363281 " clip-rule="nonzero"/></clipPath><clipPath id="c178e65161"><rect x="0" width="44" y="0" height="22"/></clipPath><clipPath id="66b7cb6921"><path d="M 189 160 L 233 160 L 233 182 L 189 182 Z M 189 160 " clip-rule="nonzero"/></clipPath><clipPath id="8bf78b6bfe"><path d="M 189.226562 166.363281 L 230.789062 160.316406 L 232.949219 175.160156 L 191.386719 181.207031 Z M 189.226562 166.363281 " clip-rule="nonzero"/></clipPath><clipPath id="dc8201fc5b"><path d="M 189.234375 166.359375 L 230.644531 160.339844 L 232.855469 175.542969 L 191.445312 181.5625 Z M 189.234375 166.359375 " clip-rule="nonzero"/></clipPath><clipPath id="f78b6dd0eb"><path d="M 287 152 L 312 152 L 312 177 L 287 177 Z M 287 152 " clip-rule="nonzero"/></clipPath><clipPath id="66b14794a2"><path d="M 286.03125 154.066406 L 309.941406 150.589844 L 313.417969 174.5 L 289.507812 177.976562 Z M 286.03125 154.066406 " clip-rule="nonzero"/></clipPath><clipPath id="5527019266"><path d="M 297.984375 152.328125 C 291.382812 153.285156 286.808594 159.417969 287.769531 166.019531 C 288.730469 172.625 294.859375 177.199219 301.460938 176.238281 C 308.066406 175.277344 312.640625 169.144531 311.679688 162.542969 C 310.71875 155.941406 304.589844 151.367188 297.984375 152.328125 Z M 297.984375 152.328125 " clip-rule="nonzero"/></clipPath><clipPath id="154a4c0ed5"><path d="M 0 0 L 25 0 L 25 25 L 0 25 Z M 0 0 " clip-rule="nonzero"/></clipPath><clipPath id="d00a072c7f"><path d="M -0.96875 2.066406 L 22.941406 -1.410156 L 26.417969 22.5 L 2.507812 25.976562 Z M -0.96875 2.066406 " clip-rule="nonzero"/></clipPath><clipPath id="73bade4cd5"><path d="M 10.984375 0.328125 C 4.382812 1.285156 -0.191406 7.417969 0.769531 14.019531 C 1.730469 20.625 7.859375 25.199219 14.460938 24.238281 C 21.066406 23.277344 25.640625 17.144531 24.679688 10.542969 C 23.71875 3.941406 17.589844 -0.632812 10.984375 0.328125 Z M 10.984375 0.328125 " clip-rule="nonzero"/></clipPath><clipPath id="d1e2df00b8"><rect x="0" width="25" y="0" height="25"/></clipPath><clipPath id="65253afe61"><path d="M 293 157 L 306 157 L 306 171 L 293 171 Z M 293 157 " clip-rule="nonzero"/></clipPath><clipPath id="0ed4605f8a"><path d="M 302.652344 157.214844 L 305.882812 159.863281 L 296.789062 170.964844 L 293.558594 168.320312 Z M 302.652344 157.214844 " clip-rule="nonzero"/></clipPath><clipPath id="61f12d6329"><path d="M 0.519531 0.199219 L 13 0.199219 L 13 14 L 0.519531 14 Z M 0.519531 0.199219 " clip-rule="nonzero"/></clipPath><clipPath id="a410c13ab0"><path d="M 9.652344 0.214844 L 12.882812 2.863281 L 3.789062 13.964844 L 0.558594 11.320312 Z M 9.652344 0.214844 " clip-rule="nonzero"/></clipPath><clipPath id="f74ee82a88"><rect x="0" width="13" y="0" height="14"/></clipPath><clipPath id="8742575b4b"><path d="M 292 157 L 307 157 L 307 171 L 292 171 Z M 292 157 " clip-rule="nonzero"/></clipPath><clipPath id="067eae1efd"><path d="M 292.851562 161.15625 L 295.5 157.925781 L 306.601562 167.019531 L 303.953125 170.25 Z M 292.851562 161.15625 " clip-rule="nonzero"/></clipPath><clipPath id="2b7467c401"><path d="M 0.800781 0.921875 L 14.71875 0.921875 L 14.71875 13.398438 L 0.800781 13.398438 Z M 0.800781 0.921875 " clip-rule="nonzero"/></clipPath><clipPath id="d0bcb151cd"><path d="M 0.851562 4.15625 L 3.5 0.925781 L 14.601562 10.019531 L 11.953125 13.25 Z M 0.851562 4.15625 " clip-rule="nonzero"/></clipPath><clipPath id="9b9ec722f3"><rect x="0" width="15" y="0" height="14"/></clipPath></defs><g clip-path="url(#1d9eba0b38)"><g clip-path="url(#540c57a0ef)"><g clip-path="url(#f26fb83277)"><g transform="matrix(1, 0, 0, 1, 21, 88)"><g clip-path="url(#65be137908)"><g clip-path="url(#69b4f9e076)"><g clip-path="url(#5041f0ab84)"><g clip-path="url(#a9f23f27c3)"><path fill="#000000" d="M -1.597656 44.285156 L 318.476562 -2.257812 L 340.707031 150.613281 L 20.632812 197.15625 Z M -1.597656 44.285156 " fill-opacity="1" fill-rule="nonzero"/></g></g></g></g></g></g></g></g><g clip-path="url(#1b534d9cd0)"><g clip-path="url(#37bd369c0a)"><g clip-path="url(#34c227bd5c)"><g clip-path="url(#08194de162)"><path stroke-linecap="butt" transform="matrix(0.742194, -0.107923, 0.107923, 0.742194, 19.403587, 132.28442)" fill="none" stroke-linejoin="miter" d="M 22.99842 -0.00211449 L 408.062747 0.00165023 C 420.762722 0.00101927 431.060012 10.298281 431.060643 22.998256 L 431.062537 182.965479 C 431.062418 195.670608 420.765157 205.967897 408.065182 205.968528 L 23.000855 205.964764 C 10.295726 205.964645 -0.00156389 195.667383 -0.00219485 182.967409 L 0.00106514 23.000935 C 0.00118365 10.295806 10.298445 -0.00148353 22.99842 -0.00211449 Z M 22.99842 -0.00211449 " stroke="#000000" stroke-width="8" stroke-opacity="1" stroke-miterlimit="4"/></g></g></g></g><g clip-path="url(#60c587047f)"><g clip-path="url(#c446d55234)"><g clip-path="url(#d87776056a)"><g transform="matrix(1, 0, 0, 1, 15, 82)"><g clip-path="url(#b964e2d837)"><g clip-path="url(#2b71c7236e)"><g clip-path="url(#b4e0d3bfe4)"><g clip-path="url(#8bb65ef8bb)"><path fill="#fff1f1" d="M -1.574219 44.625 L 318.5 -1.917969 L 340.730469 150.953125 L 20.65625 197.496094 Z M -1.574219 44.625 " fill-opacity="1" fill-rule="nonzero"/></g></g></g></g></g></g></g></g><g clip-path="url(#406976a9dd)"><g clip-path="url(#43e2a8f0c7)"><g clip-path="url(#962a4b56b8)"><g clip-path="url(#6b524ab7d0)"><path stroke-linecap="butt" transform="matrix(0.742194, -0.107923, 0.107923, 0.742194, 13.42749, 126.625568)" fill="none" stroke-linejoin="miter" d="M 22.997307 0.00122894 L 408.062384 -0.000160462 C 420.767513 -0.0000419518 431.064802 10.29722 431.064684 23.002349 L 431.061424 182.968822 C 431.062055 195.668797 420.764793 205.966087 408.064818 205.966718 L 22.999741 205.968107 C 10.294612 205.967989 -0.00267719 195.670727 0.00259544 182.966347 L 0.000701305 22.999124 C 0.0000703464 10.299149 10.297332 0.0018599 22.997307 0.00122894 Z M 22.997307 0.00122894 " stroke="#000000" stroke-width="4" stroke-opacity="1" stroke-miterlimit="4"/></g></g></g></g><g clip-path="url(#0b55ae9292)"><g clip-path="url(#5e4c58a288)"><g clip-path="url(#5d2a9b4c9e)"><g transform="matrix(1, 0, 0, 1, 38, 110)"><g clip-path="url(#a59ee6ab1b)"><g clip-path="url(#f10f4f11f5)"><g clip-path="url(#a18d9ee19c)"><g clip-path="url(#3f91c7072a)"><path fill="#e9b3fb" d="M -1.660156 39.167969 L 282.550781 -2.160156 L 298.976562 110.816406 L 14.769531 152.144531 Z M -1.660156 39.167969 " fill-opacity="1" fill-rule="nonzero"/></g></g></g></g></g></g></g></g><g clip-path="url(#7d437e6569)"><g clip-path="url(#3a208cf45a)"><g clip-path="url(#eae491985e)"><g clip-path="url(#c5172fe123)"><path stroke-linecap="butt" transform="matrix(0.742194, -0.107923, 0.107923, 0.742194, 36.341439, 149.167944)" fill="none" stroke-linejoin="miter" d="M 22.99734 0.0020335 L 359.768291 -0.000878489 C 372.468264 -0.00150962 382.765552 10.29575 382.765434 23.000877 L 382.767773 129.216011 C 382.767655 141.921138 372.470395 152.218426 359.765268 152.218308 L 23.00022 152.216815 C 10.295093 152.216697 -0.00219508 141.919437 -0.00207674 129.21431 L 0.000738077 22.999925 C 0.000856415 10.294799 10.298116 -0.0024895 22.99734 0.0020335 Z M 22.99734 0.0020335 " stroke="#000000" stroke-width="8" stroke-opacity="1" stroke-miterlimit="4"/></g></g></g></g><g transform="matrix(1, 0, 0, 1, 64, 171)"><g clip-path="url(#9f39658615)"><g clip-path="url(#42a4eedcd2)"><g clip-path="url(#c4653a7cfc)"><g transform="matrix(1, 0, 0, 1, 20, 4)"><g clip-path="url(#9ee8ccdad0)"><g clip-path="url(#a29cc2b2a5)"><g clip-path="url(#ee58366ee4)"><path fill="#000000" d="M 0.546875 3.476562 L 16.5625 0.363281 L 27.257812 55.421875 L 11.242188 58.53125 Z M 0.546875 3.476562 " fill-opacity="1" fill-rule="nonzero"/></g></g></g></g></g></g><g clip-path="url(#21f57d9da6)"><g clip-path="url(#8d3299a2d7)"><g transform="matrix(1, 0, 0, 1, 4, 20)"><g clip-path="url(#5554fd6e10)"><g clip-path="url(#6004aa6705)"><g clip-path="url(#3fb5f1107b)"><path fill="#000000" d="M 3.933594 26.792969 L 0.824219 10.777344 L 55.878906 0.0820312 L 58.988281 16.097656 Z M 3.933594 26.792969 " fill-opacity="1" fill-rule="nonzero"/></g></g></g></g></g></g></g></g><g transform="matrix(1, 0, 0, 1, 62, 167)"><g clip-path="url(#ad73eda7d7)"><g clip-path="url(#7938f07575)"><g clip-path="url(#7bf217c80e)"><g transform="matrix(1, 0, 0, 1, 19, 4)"><g clip-path="url(#441f406fe0)"><g clip-path="url(#7005b06649)"><g clip-path="url(#c12becd999)"><path fill="#f3ceff" d="M 0.738281 3.773438 L 16.757812 0.664062 L 27.449219 55.71875 L 11.433594 58.828125 Z M 0.738281 3.773438 " fill-opacity="1" fill-rule="nonzero"/></g></g></g></g></g></g><g clip-path="url(#2c3d3c1306)"><g clip-path="url(#dec206617a)"><g transform="matrix(1, 0, 0, 1, 4, 20)"><g clip-path="url(#5ab11edcb9)"><g clip-path="url(#db6b3359a0)"><g clip-path="url(#68be9e4319)"><path fill="#f3ceff" d="M 3.125 27.089844 L 0.015625 11.074219 L 55.070312 0.382812 L 58.179688 16.398438 Z M 3.125 27.089844 " fill-opacity="1" fill-rule="nonzero"/></g></g></g></g></g></g></g></g><g clip-path="url(#c5e187fc60)"><g clip-path="url(#1f0a8966f9)"><g clip-path="url(#5c30df2506)"><g transform="matrix(1, 0, 0, 1, 253, 160)"><g clip-path="url(#245ae88e4c)"><g clip-path="url(#26b6f469b5)"><g clip-path="url(#f828dbcb41)"><g clip-path="url(#5bce5a7eb1)"><path fill="#000000" d="M -0.828125 1.894531 L 18.210938 -0.871094 L 20.976562 18.164062 L 1.941406 20.933594 Z M -0.828125 1.894531 " fill-opacity="1" fill-rule="nonzero"/></g></g></g></g></g></g></g></g><g clip-path="url(#d6429e66f8)"><g clip-path="url(#41be8d5f03)"><g clip-path="url(#6635b60314)"><path stroke-linecap="butt" transform="matrix(0.742194, -0.107923, 0.107923, 0.742194, 258.384655, 166.611318)" fill="none" stroke-linejoin="miter" d="M -0.00205798 -0.00291698 L 12.902673 -0.0000895932 L 12.90465 11.27904 L -0.000830675 11.281366 Z M -0.00205798 -0.00291698 " stroke="#f3ceff" stroke-width="2" stroke-opacity="1" stroke-miterlimit="4"/></g></g></g><g clip-path="url(#a119305a9a)"><g clip-path="url(#70eb383434)"><g clip-path="url(#247719e414)"><g transform="matrix(1, 0, 0, 1, 267, 138)"><g clip-path="url(#361a2b7b37)"><g clip-path="url(#b1a89b652f)"><g clip-path="url(#9adff488c3)"><g clip-path="url(#bb0b6b947d)"><path fill="#000000" d="M -0.460938 2.089844 L 18.574219 -0.675781 L 21.34375 18.359375 L 2.304688 21.128906 Z M -0.460938 2.089844 " fill-opacity="1" fill-rule="nonzero"/></g></g></g></g></g></g></g></g><g clip-path="url(#0a609294f0)"><g clip-path="url(#d3769b5f21)"><g clip-path="url(#023cfb5c5d)"><g clip-path="url(#135217b06d)"><path stroke-linecap="butt" transform="matrix(0.742194, -0.107923, 0.107923, 0.742194, 271.100552, 143.779678)" fill="none" stroke-linejoin="miter" d="M 7.570055 -0.00236267 L 15.143481 13.246154 L 0.00102957 13.249512 Z M 7.570055 -0.00236267 " stroke="#f3ceff" stroke-width="2" stroke-opacity="1" stroke-miterlimit="4"/></g></g></g></g><g clip-path="url(#9c118eca89)"><g clip-path="url(#3198bf27c3)"><g clip-path="url(#b6f7c96477)"><g transform="matrix(1, 0, 0, 1, 273, 177)"><g clip-path="url(#5c1a359983)"><g clip-path="url(#750eb1e9bc)"><g clip-path="url(#30a48a3785)"><g clip-path="url(#78e35da6aa)"><path fill="#000000" d="M -0.859375 1.621094 L 18.175781 -1.144531 L 20.945312 17.890625 L 1.910156 20.660156 Z M -0.859375 1.621094 " fill-opacity="1" fill-rule="nonzero"/></g></g></g></g></g></g></g></g><g clip-path="url(#63a8946b5f)"><g clip-path="url(#f09c0f3303)"><g clip-path="url(#7243e64e29)"><g clip-path="url(#ccab00b3d9)"><path stroke-linecap="butt" transform="matrix(0.742194, -0.107923, 0.107923, 0.742194, 276.867438, 182.148312)" fill="none" stroke-linejoin="miter" d="M 7.257832 -0.00234489 C 3.247195 -0.00133179 0.0010954 3.247667 0.0021085 7.258304 C -0.00203253 11.268191 3.25212 14.51504 7.257603 14.513278 C 11.26749 14.517419 14.51359 11.26842 14.517731 7.258533 C 14.516718 3.247896 11.267719 0.00179614 7.257832 -0.00234489 Z M 7.257832 -0.00234489 " stroke="#f3ceff" stroke-width="2" stroke-opacity="1" stroke-miterlimit="4"/></g></g></g></g><g clip-path="url(#eb14355c63)"><g clip-path="url(#1c0082927b)"><g transform="matrix(1, 0, 0, 1, 139, 138)"><g clip-path="url(#d44ae0db30)"><g clip-path="url(#c6d556b6c8)"><g clip-path="url(#5f49d8a00c)"><path fill="#f3ceff" d="M 0.535156 13.632812 L 89.125 0.75 L 91.335938 15.960938 L 2.746094 28.84375 Z M 0.535156 13.632812 " fill-opacity="1" fill-rule="nonzero"/></g></g></g></g></g></g><g clip-path="url(#e34a869b6a)"><g clip-path="url(#8ee94d7c0c)"><g clip-path="url(#39188f7210)"><path stroke-linecap="butt" transform="matrix(0.742194, -0.107923, 0.107923, 0.742194, 139.552335, 151.628868)" fill="none" stroke-linejoin="miter" d="M -0.0020569 -0.000247079 L 119.296807 -0.0000459445 L 119.297112 20.484019 L -0.00175263 20.483818 Z M -0.0020569 -0.000247079 " stroke="#000000" stroke-width="4" stroke-opacity="1" stroke-miterlimit="4"/></g></g></g><g clip-path="url(#d3b57bafe1)"><g clip-path="url(#30f7f27ad4)"><g transform="matrix(1, 0, 0, 1, 142, 167)"><g clip-path="url(#d996ac8bac)"><g clip-path="url(#894e7265fd)"><g clip-path="url(#1fee8ee7c0)"><path fill="#ffde59" d="M 0.960938 6.898438 L 42.371094 0.875 L 44.585938 16.085938 L 3.171875 22.109375 Z M 0.960938 6.898438 " fill-opacity="1" fill-rule="nonzero"/></g></g></g></g></g></g><g clip-path="url(#17466518f9)"><g clip-path="url(#4ed2b57686)"><g clip-path="url(#74c918af98)"><path stroke-linecap="butt" transform="matrix(0.742194, -0.107923, 0.107923, 0.742194, 142.965434, 173.897333)" fill="none" stroke-linejoin="miter" d="M -0.000991062 0.00134353 L 55.798753 -0.000454689 L 55.799057 20.48361 L -0.000686794 20.485408 Z M -0.000991062 0.00134353 " stroke="#000000" stroke-width="4" stroke-opacity="1" stroke-miterlimit="4"/></g></g></g><g clip-path="url(#3dc910c0b2)"><g clip-path="url(#d4ea19dca6)"><g transform="matrix(1, 0, 0, 1, 146, 183)"><g clip-path="url(#24bb0228e0)"><g clip-path="url(#1c59f5d932)"><g clip-path="url(#bfae1d06a5)"><path fill="#f3ceff" d="M 0.378906 13.121094 L 88.96875 0.242188 L 91.179688 15.449219 L 2.589844 28.332031 Z M 0.378906 13.121094 " fill-opacity="1" fill-rule="nonzero"/></g></g></g></g></g></g><g clip-path="url(#b21eda7498)"><g clip-path="url(#cdb17e25ad)"><g clip-path="url(#d728de5437)"><path stroke-linecap="butt" transform="matrix(0.742194, -0.107923, 0.107923, 0.742194, 146.396582, 196.119846)" fill="none" stroke-linejoin="miter" d="M 0.0022088 0.00200191 L 119.295919 0.00145358 L 119.296223 20.485518 L -0.00264106 20.485317 Z M 0.0022088 0.00200191 " stroke="#000000" stroke-width="4" stroke-opacity="1" stroke-miterlimit="4"/></g></g></g><g clip-path="url(#08144072aa)"><g clip-path="url(#4baed80f55)"><g transform="matrix(1, 0, 0, 1, 59, 146)"><g clip-path="url(#8e3256231a)"><g clip-path="url(#0bd7ce28a4)"><g clip-path="url(#e7e7afccc3)"><path fill="#000000" d="M 0.0585938 5.929688 L 37.871094 0.429688 L 38.894531 7.464844 L 1.082031 12.964844 Z M 0.0585938 5.929688 " fill-opacity="1" fill-rule="nonzero"/></g></g></g></g></g></g><g clip-path="url(#a0659b218e)"><g clip-path="url(#a2a67a8573)"><g clip-path="url(#7dc09bca6d)"><g transform="matrix(1, 0, 0, 1, 151, 205)"><g clip-path="url(#1154c85a6c)"><g clip-path="url(#fc3b272d06)"><g clip-path="url(#99e1eda358)"><g clip-path="url(#d15ccf66f6)"><path fill="#f3ceff" d="M -0.664062 11.671875 L 87.113281 -1.09375 L 89.578125 15.84375 L 1.796875 28.605469 Z M -0.664062 11.671875 " fill-opacity="1" fill-rule="nonzero"/></g></g></g></g></g></g></g></g><g clip-path="url(#be6e1007f4)"><g clip-path="url(#6de6970d2a)"><g clip-path="url(#8d39fc2127)"><g clip-path="url(#061009b1ee)"><path stroke-linecap="butt" transform="matrix(0.742194, -0.107923, 0.107923, 0.742194, 150.338241, 216.671748)" fill="none" stroke-linejoin="miter" d="M 11.407168 0.00102309 L 106.801335 -0.00113903 C 113.101233 -0.000843331 118.211314 5.105338 118.211018 11.405236 C 118.210722 17.705135 113.104541 22.815216 106.804643 22.81492 L 11.406072 22.811178 C 5.106173 22.810883 0.00124644 17.705451 0.00154214 11.405553 C 0.00183785 5.105654 5.107269 0.000727391 11.407168 0.00102309 Z M 11.407168 0.00102309 " stroke="#000000" stroke-width="4" stroke-opacity="1" stroke-miterlimit="4"/></g></g></g></g><g clip-path="url(#631f173bbd)"><g clip-path="url(#8b8649444a)"><g clip-path="url(#c22944b3a5)"><g transform="matrix(1, 0, 0, 1, 87, 73)"><g clip-path="url(#8f421d6302)"><g clip-path="url(#c5562d62a9)"><g clip-path="url(#e6629b86ed)"><g clip-path="url(#bc196a3213)"><path fill="#ffffff" d="M -3.640625 4.769531 L 52.5625 -3.402344 L 60.734375 52.800781 L 4.53125 60.972656 Z M -3.640625 4.769531 " fill-opacity="1" fill-rule="nonzero"/></g></g></g></g></g></g></g></g><g clip-path="url(#bcbd261b94)"><g clip-path="url(#46498c7cc9)"><g clip-path="url(#ce199c09b2)"><g clip-path="url(#10b6e83eb1)"><path stroke-linecap="butt" transform="matrix(0.742194, -0.107923, 0.107923, 0.742194, 83.35888, 77.770404)" fill="none" stroke-linejoin="miter" d="M 37.858407 -0.00134603 C 16.947864 0.000101004 -0.00108587 16.951141 0.000361171 37.861684 C 0.00255768 58.767072 16.947694 75.720427 37.858237 75.71898 C 58.76878 75.717533 75.717729 58.766493 75.720687 37.861853 C 75.71924 16.951311 58.7682 0.00236106 37.858407 -0.00134603 Z M 37.858407 -0.00134603 " stroke="#000000" stroke-width="8" stroke-opacity="1" stroke-miterlimit="4"/></g></g></g></g><g clip-path="url(#d777ced90b)"><g clip-path="url(#7275fcb3b6)"><g clip-path="url(#99a2b579b1)"><g transform="matrix(1, 0, 0, 1, 193, 56)"><g clip-path="url(#444928e3f8)"><g clip-path="url(#5b98f3e0a9)"><g clip-path="url(#12101ca488)"><g clip-path="url(#0d300c3e95)"><path fill="#ffffff" d="M -3.773438 4.988281 L 52.429688 -3.183594 L 60.601562 53.019531 L 4.398438 61.191406 Z M -3.773438 4.988281 " fill-opacity="1" fill-rule="nonzero"/></g></g></g></g></g></g></g></g><g clip-path="url(#dac4bd22a9)"><g clip-path="url(#bae1acb811)"><g clip-path="url(#336b014d72)"><g clip-path="url(#b202d3cfe7)"><path stroke-linecap="butt" transform="matrix(0.742194, -0.107923, 0.107923, 0.742194, 189.227073, 60.987879)" fill="none" stroke-linejoin="miter" d="M 37.856835 0.000142683 C 16.951447 0.00233919 -0.00190771 16.947476 -0.000460668 37.858018 C 0.00098637 58.768561 16.952026 75.717511 37.856666 75.720468 C 58.767208 75.719021 75.721312 58.768731 75.719865 37.858188 C 75.718418 16.947645 58.767378 -0.00130435 37.856835 0.000142683 Z M 37.856835 0.000142683 " stroke="#000000" stroke-width="8" stroke-opacity="1" stroke-miterlimit="4"/></g></g></g></g><g clip-path="url(#e416c26ef1)"><g clip-path="url(#85d7cdaeb2)"><g clip-path="url(#e7c5903647)"><g transform="matrix(1, 0, 0, 1, 100, 85)"><g clip-path="url(#2251d4777b)"><g clip-path="url(#962c0b6239)"><g clip-path="url(#37647aaf2f)"><g clip-path="url(#614b6ed079)"><path fill="#000000" d="M -2.34375 3.4375 L 41.375 -2.921875 L 47.734375 40.800781 L 4.011719 47.160156 Z M -2.34375 3.4375 " fill-opacity="1" fill-rule="nonzero"/></g></g></g></g></g></g></g></g><g clip-path="url(#ee486f4472)"><g clip-path="url(#dac8f006da)"><g clip-path="url(#98e932d3a0)"><g transform="matrix(1, 0, 0, 1, 206, 65)"><g clip-path="url(#76a3d0c667)"><g clip-path="url(#81b577b5bf)"><g clip-path="url(#f1c7bd4379)"><g clip-path="url(#dbbd561b5c)"><path fill="#000000" d="M -2.914062 3.65625 L 40.808594 -2.703125 L 47.164062 41.019531 L 3.445312 47.378906 Z M -2.914062 3.65625 " fill-opacity="1" fill-rule="nonzero"/></g></g></g></g></g></g></g></g><g clip-path="url(#d21ad5732c)"><g clip-path="url(#1f2950b0d3)"><g clip-path="url(#042335360f)"><g transform="matrix(1, 0, 0, 1, 153, 107)"><g clip-path="url(#2efc3f15bc)"><g clip-path="url(#2930641b0a)"><g clip-path="url(#89519e147b)"><g clip-path="url(#830d1ac118)"><path fill="#ffffff" d="M 0.386719 5.507812 L 35.769531 0.363281 L 38.246094 17.386719 L 2.863281 22.535156 Z M 0.386719 5.507812 " fill-opacity="1" fill-rule="nonzero"/></g></g></g></g></g></g></g></g><g clip-path="url(#af3b6b8c2f)"><g clip-path="url(#9187efcc32)"><g clip-path="url(#be0916799a)"><g clip-path="url(#94ab7ac059)"><path stroke-linecap="butt" transform="matrix(0.742194, -0.107923, 0.107923, 0.742194, 153.386582, 112.508606)" fill="none" stroke-linejoin="miter" d="M 15.90791 21.554048 C 18.354923 22.388814 21.133379 22.934937 23.865331 22.932198 C 26.591379 22.933863 29.21695 22.46829 31.637934 21.636129 C 31.689567 21.606796 31.741858 21.609136 31.792742 21.584957 C 40.882271 18.254089 47.575384 9.469539 47.705148 -0.000977367 L 0.000333212 -0.00102096 C 0.131182 9.523181 6.716989 18.307075 15.90791 21.554048 Z M 15.90791 21.554048 " stroke="#000000" stroke-width="8" stroke-opacity="1" stroke-miterlimit="4"/></g></g></g></g><g clip-path="url(#f74c1c65b2)"><g clip-path="url(#ba403580f1)"><g transform="matrix(1, 0, 0, 1, 189, 160)"><g clip-path="url(#c178e65161)"><g clip-path="url(#9a009de5b0)"><g clip-path="url(#76cd8beee2)"><path fill="#ffde59" d="M 0.226562 6.363281 L 41.640625 0.339844 L 43.851562 15.550781 L 2.4375 21.574219 Z M 0.226562 6.363281 " fill-opacity="1" fill-rule="nonzero"/></g></g></g></g></g></g><g clip-path="url(#66b7cb6921)"><g clip-path="url(#8bf78b6bfe)"><g clip-path="url(#dc8201fc5b)"><path stroke-linecap="butt" transform="matrix(0.742194, -0.107923, 0.107923, 0.742194, 189.232974, 166.360902)" fill="none" stroke-linejoin="miter" d="M 0.00214089 -0.00174594 L 55.795981 0.000860505 L 55.796286 20.484925 L 0.00244515 20.482319 Z M 0.00214089 -0.00174594 " stroke="#000000" stroke-width="4" stroke-opacity="1" stroke-miterlimit="4"/></g></g></g><g clip-path="url(#f78b6dd0eb)"><g clip-path="url(#66b14794a2)"><g clip-path="url(#5527019266)"><g transform="matrix(1, 0, 0, 1, 287, 152)"><g clip-path="url(#d1e2df00b8)"><g clip-path="url(#154a4c0ed5)"><g clip-path="url(#d00a072c7f)"><g clip-path="url(#73bade4cd5)"><path fill="#000000" d="M -0.96875 2.066406 L 22.941406 -1.410156 L 26.417969 22.5 L 2.507812 25.976562 Z M -0.96875 2.066406 " fill-opacity="1" fill-rule="nonzero"/></g></g></g></g></g></g></g></g><g clip-path="url(#65253afe61)"><g clip-path="url(#0ed4605f8a)"><g transform="matrix(1, 0, 0, 1, 293, 157)"><g clip-path="url(#f74ee82a88)"><g clip-path="url(#61f12d6329)"><g clip-path="url(#a410c13ab0)"><path fill="#ff66c4" d="M 9.652344 0.214844 L 12.882812 2.863281 L 3.785156 13.96875 L 0.554688 11.320312 Z M 9.652344 0.214844 " fill-opacity="1" fill-rule="nonzero"/></g></g></g></g></g></g><g clip-path="url(#8742575b4b)"><g clip-path="url(#067eae1efd)"><g transform="matrix(1, 0, 0, 1, 292, 157)"><g clip-path="url(#9b9ec722f3)"><g clip-path="url(#2b7467c401)"><g clip-path="url(#d0bcb151cd)"><path fill="#ff66c4" d="M 0.851562 4.15625 L 3.5 0.925781 L 14.601562 10.023438 L 11.957031 13.253906 Z M 0.851562 4.15625 " fill-opacity="1" fill-rule="nonzero"/></g></g></g></g></g></g></svg>