<svg xmlns="http://www.w3.org/2000/svg" xmlns:xlink="http://www.w3.org/1999/xlink" width="500" zoomAndPan="magnify" viewBox="0 0 375 262.499992" height="350" preserveAspectRatio="xMidYMid meet" version="1.0"><defs><clipPath id="0f07b38435"><path d="M 16 47 L 364 47 L 364 237 L 16 237 Z M 16 47 " clip-rule="nonzero"/></clipPath><clipPath id="4403d73884"><path d="M 15 82.113281 L 348.167969 46.648438 L 364.738281 202.289062 L 31.570312 237.753906 Z M 15 82.113281 " clip-rule="nonzero"/></clipPath><clipPath id="8b3985af70"><path d="M 26.984375 80.839844 L 335.777344 47.964844 C 342.394531 47.261719 348.332031 52.054688 349.039062 58.675781 L 363.054688 190.347656 C 363.757812 196.964844 358.964844 202.902344 352.347656 203.605469 L 43.554688 236.476562 C 36.9375 237.183594 31 232.386719 30.292969 225.769531 L 16.277344 94.097656 C 15.574219 87.480469 20.367188 81.542969 26.984375 80.839844 Z M 26.984375 80.839844 " clip-rule="nonzero"/></clipPath><clipPath id="09113d3447"><path d="M 0 0.191406 L 347.984375 0.191406 L 347.984375 190 L 0 190 Z M 0 0.191406 " clip-rule="nonzero"/></clipPath><clipPath id="1e64cd9e36"><path d="M -1 35.113281 L 332.167969 -0.351562 L 348.738281 155.289062 L 15.570312 190.753906 Z M -1 35.113281 " clip-rule="nonzero"/></clipPath><clipPath id="371b89b293"><path d="M 10.984375 33.839844 L 319.777344 0.964844 C 326.394531 0.261719 332.332031 5.054688 333.039062 11.675781 L 347.054688 143.347656 C 347.757812 149.964844 342.964844 155.902344 336.347656 156.605469 L 27.554688 189.476562 C 20.9375 190.183594 15 185.386719 14.292969 178.769531 L 0.277344 47.097656 C -0.425781 40.480469 4.367188 34.542969 10.984375 33.839844 Z M 10.984375 33.839844 " clip-rule="nonzero"/></clipPath><clipPath id="56fc389c9f"><rect x="0" width="348" y="0" height="190"/></clipPath><clipPath id="48ef288550"><path d="M 16 47 L 364 47 L 364 237 L 16 237 Z M 16 47 " clip-rule="nonzero"/></clipPath><clipPath id="18fa9b950d"><path d="M 15 82.113281 L 347.734375 46.691406 L 364.296875 202.265625 L 31.5625 237.6875 Z M 15 82.113281 " clip-rule="nonzero"/></clipPath><clipPath id="de61691bba"><path d="M 15.007812 82.113281 L 347.757812 46.691406 L 364.355469 202.605469 L 31.605469 238.027344 Z M 15.007812 82.113281 " clip-rule="nonzero"/></clipPath><clipPath id="39634f2aec"><path d="M 26.992188 80.835938 L 335.765625 47.96875 C 342.386719 47.261719 348.320312 52.058594 349.027344 58.675781 L 363.042969 190.339844 C 363.746094 196.957031 358.953125 202.894531 352.335938 203.597656 L 43.558594 236.46875 C 36.941406 237.171875 31.003906 232.378906 30.300781 225.761719 L 16.285156 94.097656 C 15.578125 87.476562 20.375 81.542969 26.992188 80.835938 Z M 26.992188 80.835938 " clip-rule="nonzero"/></clipPath><clipPath id="839586e4ae"><path d="M 8 34 L 360 34 L 360 238 L 8 238 Z M 8 34 " clip-rule="nonzero"/></clipPath><clipPath id="2b36248bcf"><path d="M 7.324219 81.050781 L 338.621094 32.878906 L 361.628906 191.109375 L 30.332031 239.28125 Z M 7.324219 81.050781 " clip-rule="nonzero"/></clipPath><clipPath id="f7dbd6ae72"><path d="M 19.25 79.316406 L 326.554688 34.632812 C 333.140625 33.671875 339.257812 38.238281 340.214844 44.824219 L 359.757812 179.203125 C 360.714844 185.789062 356.152344 191.90625 349.5625 192.863281 L 42.257812 237.546875 C 35.671875 238.507812 29.554688 233.941406 28.597656 227.355469 L 9.058594 92.976562 C 8.101562 86.390625 12.664062 80.273438 19.25 79.316406 Z M 19.25 79.316406 " clip-rule="nonzero"/></clipPath><clipPath id="4668664443"><path d="M 0.0234375 0 L 352 0 L 352 204 L 0.0234375 204 Z M 0.0234375 0 " clip-rule="nonzero"/></clipPath><clipPath id="140dd1824f"><path d="M -0.675781 47.050781 L 330.621094 -1.121094 L 353.628906 157.109375 L 22.332031 205.28125 Z M -0.675781 47.050781 " clip-rule="nonzero"/></clipPath><clipPath id="e24f8391d6"><path d="M 11.25 45.316406 L 318.554688 0.632812 C 325.140625 -0.328125 331.257812 4.238281 332.214844 10.824219 L 351.757812 145.203125 C 352.714844 151.789062 348.152344 157.90625 341.5625 158.863281 L 34.257812 203.546875 C 27.671875 204.507812 21.554688 199.941406 20.597656 193.355469 L 1.058594 58.976562 C 0.101562 52.390625 4.664062 46.273438 11.25 45.316406 Z M 11.25 45.316406 " clip-rule="nonzero"/></clipPath><clipPath id="9b943e6a75"><rect x="0" width="352" y="0" height="204"/></clipPath><clipPath id="b094a6be49"><path d="M 8 34 L 360 34 L 360 238 L 8 238 Z M 8 34 " clip-rule="nonzero"/></clipPath><clipPath id="ef4314b8f4"><path d="M 7.324219 81.050781 L 338.453125 32.902344 L 361.507812 191.429688 L 30.375 239.578125 Z M 7.324219 81.050781 " clip-rule="nonzero"/></clipPath><clipPath id="5d5680f2c5"><path d="M 7.328125 81.050781 L 338.480469 32.898438 L 361.59375 191.851562 L 30.441406 240.003906 Z M 7.328125 81.050781 " clip-rule="nonzero"/></clipPath><clipPath id="e0049e469d"><path d="M 19.253906 79.316406 L 326.550781 34.632812 C 333.136719 33.675781 339.25 38.238281 340.210938 44.824219 L 359.75 179.199219 C 360.707031 185.785156 356.144531 191.902344 349.558594 192.859375 L 42.261719 237.542969 C 35.675781 238.5 29.558594 233.9375 28.601562 227.351562 L 9.0625 92.976562 C 8.101562 86.390625 12.667969 80.273438 19.253906 79.316406 Z M 19.253906 79.316406 " clip-rule="nonzero"/></clipPath><clipPath id="8fd08cb100"><path d="M 32 63 L 341 63 L 341 220 L 32 220 Z M 32 63 " clip-rule="nonzero"/></clipPath><clipPath id="be3593c2da"><path d="M 31.042969 104.382812 L 325.214844 61.605469 L 342.21875 178.546875 L 48.046875 221.320312 Z M 31.042969 104.382812 " clip-rule="nonzero"/></clipPath><clipPath id="d843c727b3"><path d="M 42.96875 102.648438 L 313.171875 63.359375 C 319.757812 62.402344 325.875 66.964844 326.832031 73.550781 L 340.367188 166.636719 C 341.324219 173.222656 336.761719 179.339844 330.175781 180.296875 L 59.972656 219.585938 C 53.386719 220.546875 47.269531 215.980469 46.3125 209.394531 L 32.777344 116.308594 C 31.820312 109.722656 36.382812 103.605469 42.96875 102.648438 Z M 42.96875 102.648438 " clip-rule="nonzero"/></clipPath><clipPath id="68b29ced15"><path d="M 0 0 L 309 0 L 309 157 L 0 157 Z M 0 0 " clip-rule="nonzero"/></clipPath><clipPath id="bf58573f58"><path d="M -0.957031 41.382812 L 293.214844 -1.394531 L 310.21875 115.546875 L 16.046875 158.320312 Z M -0.957031 41.382812 " clip-rule="nonzero"/></clipPath><clipPath id="c9a5d9c46b"><path d="M 10.96875 39.648438 L 281.171875 0.359375 C 287.757812 -0.597656 293.875 3.964844 294.832031 10.550781 L 308.367188 103.636719 C 309.324219 110.222656 304.761719 116.339844 298.175781 117.296875 L 27.972656 156.585938 C 21.386719 157.546875 15.269531 152.980469 14.3125 146.394531 L 0.777344 53.308594 C -0.179688 46.722656 4.382812 40.605469 10.96875 39.648438 Z M 10.96875 39.648438 " clip-rule="nonzero"/></clipPath><clipPath id="d9ba1170dc"><rect x="0" width="309" y="0" height="157"/></clipPath><clipPath id="a787684543"><path d="M 32 63 L 341 63 L 341 220 L 32 220 Z M 32 63 " clip-rule="nonzero"/></clipPath><clipPath id="e25b1b958d"><path d="M 31.042969 104.382812 L 325.132812 61.617188 L 342.152344 178.664062 L 48.0625 221.425781 Z M 31.042969 104.382812 " clip-rule="nonzero"/></clipPath><clipPath id="249ddf7a92"><path d="M 31.050781 104.382812 L 326.234375 61.460938 L 343.292969 178.777344 L 48.109375 221.699219 Z M 31.050781 104.382812 " clip-rule="nonzero"/></clipPath><clipPath id="dab0ea5ca5"><path d="M 42.976562 102.648438 L 313.152344 63.359375 C 319.738281 62.402344 325.855469 66.964844 326.8125 73.550781 L 340.347656 166.628906 C 341.304688 173.214844 336.742188 179.332031 330.15625 180.289062 L 59.976562 219.574219 C 53.390625 220.535156 47.277344 215.972656 46.316406 209.382812 L 32.785156 116.308594 C 31.824219 109.722656 36.390625 103.605469 42.976562 102.648438 Z M 42.976562 102.648438 " clip-rule="nonzero"/></clipPath><clipPath id="3826d5585c"><path d="M 20 4 L 49 4 L 49 65 L 20 65 Z M 20 4 " clip-rule="nonzero"/></clipPath><clipPath id="0a04077280"><path d="M 20.9375 7.71875 L 37.515625 4.5 L 48.582031 61.472656 L 32.003906 64.691406 Z M 20.9375 7.71875 " clip-rule="nonzero"/></clipPath><clipPath id="8625418a4e"><path d="M 0.84375 0.269531 L 28.628906 0.269531 L 28.628906 60.875 L 0.84375 60.875 Z M 0.84375 0.269531 " clip-rule="nonzero"/></clipPath><clipPath id="a738316441"><path d="M 0.9375 3.71875 L 17.515625 0.5 L 28.582031 57.472656 L 12.003906 60.691406 Z M 0.9375 3.71875 " clip-rule="nonzero"/></clipPath><clipPath id="23a9cfe126"><rect x="0" width="29" y="0" height="61"/></clipPath><clipPath id="c83969da0a"><path d="M 4 20 L 65 20 L 65 49 L 4 49 Z M 4 20 " clip-rule="nonzero"/></clipPath><clipPath id="a001efaa30"><path d="M 7.882812 48.414062 L 4.660156 31.835938 L 61.632812 20.773438 L 64.851562 37.351562 Z M 7.882812 48.414062 " clip-rule="nonzero"/></clipPath><clipPath id="39223bb219"><path d="M 0.554688 0.558594 L 60.917969 0.558594 L 60.917969 28.585938 L 0.554688 28.585938 Z M 0.554688 0.558594 " clip-rule="nonzero"/></clipPath><clipPath id="9569af7dd0"><path d="M 3.882812 28.414062 L 0.660156 11.835938 L 57.632812 0.773438 L 60.851562 17.351562 Z M 3.882812 28.414062 " clip-rule="nonzero"/></clipPath><clipPath id="2a285a27ff"><rect x="0" width="61" y="0" height="29"/></clipPath><clipPath id="d4c55a4122"><rect x="0" width="69" y="0" height="69"/></clipPath><clipPath id="615f7821c2"><path d="M 21 4 L 49 4 L 49 65 L 21 65 Z M 21 4 " clip-rule="nonzero"/></clipPath><clipPath id="4ee9b9c2b6"><path d="M 21.03125 7.886719 L 37.609375 4.667969 L 48.675781 61.640625 L 32.097656 64.859375 Z M 21.03125 7.886719 " clip-rule="nonzero"/></clipPath><clipPath id="672964af6b"><path d="M 0 0.4375 L 27.753906 0.4375 L 27.753906 61 L 0 61 Z M 0 0.4375 " clip-rule="nonzero"/></clipPath><clipPath id="80eedcecf7"><path d="M 0.03125 3.886719 L 16.609375 0.667969 L 27.675781 57.640625 L 11.097656 60.859375 Z M 0.03125 3.886719 " clip-rule="nonzero"/></clipPath><clipPath id="63530d02a8"><rect x="0" width="28" y="0" height="61"/></clipPath><clipPath id="d927e376ab"><path d="M 4 20 L 65 20 L 65 49 L 4 49 Z M 4 20 " clip-rule="nonzero"/></clipPath><clipPath id="6be315d454"><path d="M 7.976562 48.585938 L 4.753906 32.007812 L 61.726562 20.941406 L 64.945312 37.519531 Z M 7.976562 48.585938 " clip-rule="nonzero"/></clipPath><clipPath id="7fd3e00863"><path d="M 0.679688 0.726562 L 61 0.726562 L 61 28.753906 L 0.679688 28.753906 Z M 0.679688 0.726562 " clip-rule="nonzero"/></clipPath><clipPath id="b41563ace3"><path d="M 3.976562 28.585938 L 0.753906 12.007812 L 57.726562 0.941406 L 60.945312 17.519531 Z M 3.976562 28.585938 " clip-rule="nonzero"/></clipPath><clipPath id="ddf284070a"><rect x="0" width="61" y="0" height="29"/></clipPath><clipPath id="abac5e1b95"><rect x="0" width="70" y="0" height="69"/></clipPath><clipPath id="d4cf0896f5"><path d="M 255 116 L 276 116 L 276 136 L 255 136 Z M 255 116 " clip-rule="nonzero"/></clipPath><clipPath id="0ae58f66ac"><path d="M 254.441406 117.558594 L 274.144531 114.695312 L 277.007812 134.398438 L 257.304688 137.261719 Z M 254.441406 117.558594 " clip-rule="nonzero"/></clipPath><clipPath id="d8d1f7dae6"><path d="M 264.292969 116.125 C 258.851562 116.917969 255.082031 121.96875 255.871094 127.410156 C 256.664062 132.851562 261.714844 136.621094 267.15625 135.832031 C 272.597656 135.039062 276.367188 129.988281 275.578125 124.546875 C 274.785156 119.105469 269.734375 115.335938 264.292969 116.125 Z M 264.292969 116.125 " clip-rule="nonzero"/></clipPath><clipPath id="69453e25bb"><path d="M 0 0 L 21 0 L 21 20 L 0 20 Z M 0 0 " clip-rule="nonzero"/></clipPath><clipPath id="2f563e1034"><path d="M -0.558594 1.558594 L 19.144531 -1.304688 L 22.007812 18.398438 L 2.304688 21.261719 Z M -0.558594 1.558594 " clip-rule="nonzero"/></clipPath><clipPath id="04618ea019"><path d="M 9.292969 0.125 C 3.851562 0.917969 0.0820312 5.96875 0.871094 11.410156 C 1.664062 16.851562 6.714844 20.621094 12.15625 19.832031 C 17.597656 19.039062 21.367188 13.988281 20.578125 8.546875 C 19.785156 3.105469 14.734375 -0.664062 9.292969 0.125 Z M 9.292969 0.125 " clip-rule="nonzero"/></clipPath><clipPath id="290188917d"><rect x="0" width="21" y="0" height="20"/></clipPath><clipPath id="2a5308f002"><path d="M 260 121 L 272 121 L 272 132 L 260 132 Z M 260 121 " clip-rule="nonzero"/></clipPath><clipPath id="f6ed76cdfe"><path d="M 260.867188 122.441406 L 270.5 121.039062 L 271.792969 129.929688 L 262.160156 131.328125 Z M 260.867188 122.441406 " clip-rule="nonzero"/></clipPath><clipPath id="38f0dfa38d"><path d="M 260.871094 122.441406 L 270.785156 120.996094 L 272.046875 129.667969 L 262.132812 131.109375 Z M 260.871094 122.441406 " clip-rule="nonzero"/></clipPath><clipPath id="28b45e8c6e"><path d="M 270 93 L 291 93 L 291 114 L 270 114 Z M 270 93 " clip-rule="nonzero"/></clipPath><clipPath id="157160749a"><path d="M 269.308594 94.988281 L 289.011719 92.125 L 291.878906 111.828125 L 272.175781 114.695312 Z M 269.308594 94.988281 " clip-rule="nonzero"/></clipPath><clipPath id="47b63df8ee"><path d="M 279.160156 93.558594 C 273.71875 94.347656 269.949219 99.402344 270.742188 104.839844 C 271.53125 110.28125 276.585938 114.050781 282.027344 113.261719 C 287.46875 112.46875 291.238281 107.417969 290.445312 101.976562 C 289.65625 96.535156 284.601562 92.765625 279.160156 93.558594 Z M 279.160156 93.558594 " clip-rule="nonzero"/></clipPath><clipPath id="b2990216f2"><path d="M 0 0 L 21 0 L 21 21 L 0 21 Z M 0 0 " clip-rule="nonzero"/></clipPath><clipPath id="8179db9cf3"><path d="M -0.691406 1.988281 L 19.011719 -0.875 L 21.878906 18.828125 L 2.175781 21.695312 Z M -0.691406 1.988281 " clip-rule="nonzero"/></clipPath><clipPath id="12d5e0f33d"><path d="M 9.160156 0.558594 C 3.71875 1.347656 -0.0507812 6.402344 0.742188 11.839844 C 1.53125 17.28125 6.585938 21.050781 12.027344 20.261719 C 17.46875 19.46875 21.238281 14.417969 20.445312 8.976562 C 19.65625 3.535156 14.601562 -0.234375 9.160156 0.558594 Z M 9.160156 0.558594 " clip-rule="nonzero"/></clipPath><clipPath id="58e34fbed2"><rect x="0" width="21" y="0" height="21"/></clipPath><clipPath id="f3fb90e380"><path d="M 275 97 L 288 97 L 288 109 L 275 109 Z M 275 97 " clip-rule="nonzero"/></clipPath><clipPath id="9eed027ae1"><path d="M 274.03125 98.808594 L 285.882812 97.082031 L 287.390625 107.453125 L 275.539062 109.179688 Z M 274.03125 98.808594 " clip-rule="nonzero"/></clipPath><clipPath id="17c696dd7a"><path d="M 274.03125 98.808594 L 285.664062 97.117188 L 287.144531 107.296875 L 275.511719 108.988281 Z M 274.03125 98.808594 " clip-rule="nonzero"/></clipPath><clipPath id="d6ffaa5921"><path d="M 279.847656 97.964844 L 287.144531 107.296875 L 275.511719 108.988281 Z M 279.847656 97.964844 " clip-rule="nonzero"/></clipPath><clipPath id="92445b10c6"><path d="M 276 133 L 297 133 L 297 154 L 276 154 Z M 276 133 " clip-rule="nonzero"/></clipPath><clipPath id="eae3d3ab78"><path d="M 275.109375 134.871094 L 294.8125 132.007812 L 297.675781 151.710938 L 277.972656 154.574219 Z M 275.109375 134.871094 " clip-rule="nonzero"/></clipPath><clipPath id="df3df3791c"><path d="M 284.960938 133.4375 C 279.519531 134.230469 275.75 139.28125 276.539062 144.722656 C 277.332031 150.164062 282.382812 153.933594 287.824219 153.144531 C 293.265625 152.351562 297.035156 147.300781 296.246094 141.859375 C 295.453125 136.417969 290.402344 132.648438 284.960938 133.4375 Z M 284.960938 133.4375 " clip-rule="nonzero"/></clipPath><clipPath id="8278fc8ed0"><path d="M 0 0 L 21 0 L 21 21 L 0 21 Z M 0 0 " clip-rule="nonzero"/></clipPath><clipPath id="e1116fbf9a"><path d="M -0.890625 1.871094 L 18.8125 -0.992188 L 21.675781 18.710938 L 1.972656 21.574219 Z M -0.890625 1.871094 " clip-rule="nonzero"/></clipPath><clipPath id="e7e180acbe"><path d="M 8.960938 0.4375 C 3.519531 1.230469 -0.25 6.28125 0.539062 11.722656 C 1.332031 17.164062 6.382812 20.933594 11.824219 20.144531 C 17.265625 19.351562 21.035156 14.300781 20.246094 8.859375 C 19.453125 3.417969 14.402344 -0.351562 8.960938 0.4375 Z M 8.960938 0.4375 " clip-rule="nonzero"/></clipPath><clipPath id="bf1fb130c1"><rect x="0" width="21" y="0" height="21"/></clipPath><clipPath id="b118730b44"><path d="M 280 137 L 293 137 L 293 149 L 280 149 Z M 280 137 " clip-rule="nonzero"/></clipPath><clipPath id="ed05593b04"><path d="M 280 138.523438 L 291.113281 136.90625 L 292.726562 148.019531 L 281.617188 149.632812 Z M 280 138.523438 " clip-rule="nonzero"/></clipPath><clipPath id="8ee7d46f93"><path d="M 280 138.523438 L 291.160156 136.898438 L 292.78125 148.058594 L 281.621094 149.679688 Z M 280 138.523438 " clip-rule="nonzero"/></clipPath><clipPath id="a3715f71dd"><path d="M 285.578125 137.710938 C 282.5 138.160156 280.363281 141.019531 280.8125 144.101562 C 281.257812 147.183594 284.121094 149.316406 287.203125 148.867188 C 290.28125 148.421875 292.417969 145.558594 291.96875 142.476562 C 291.523438 139.398438 288.660156 137.261719 285.578125 137.710938 Z M 285.578125 137.710938 " clip-rule="nonzero"/></clipPath><clipPath id="430b9afcb1"><path d="M 137 93 L 232 93 L 232 123 L 137 123 Z M 137 93 " clip-rule="nonzero"/></clipPath><clipPath id="2650ad4551"><path d="M 137.851562 106.933594 L 229.539062 93.601562 L 231.828125 109.347656 L 140.140625 122.679688 Z M 137.851562 106.933594 " clip-rule="nonzero"/></clipPath><clipPath id="d2af5b4327"><path d="M 0.613281 0.421875 L 94.996094 0.421875 L 94.996094 29.886719 L 0.613281 29.886719 Z M 0.613281 0.421875 " clip-rule="nonzero"/></clipPath><clipPath id="530f7f0de0"><path d="M 0.851562 13.933594 L 92.539062 0.601562 L 94.828125 16.347656 L 3.140625 29.679688 Z M 0.851562 13.933594 " clip-rule="nonzero"/></clipPath><clipPath id="93afd818f5"><rect x="0" width="95" y="0" height="30"/></clipPath><clipPath id="9fae850e50"><path d="M 137 93 L 232 93 L 232 123 L 137 123 Z M 137 93 " clip-rule="nonzero"/></clipPath><clipPath id="30e838c3a5"><path d="M 137.851562 106.933594 L 229.710938 93.578125 L 231.972656 109.132812 L 140.113281 122.492188 Z M 137.851562 106.933594 " clip-rule="nonzero"/></clipPath><clipPath id="c36aafb580"><path d="M 137.855469 106.933594 L 229.53125 93.601562 L 231.820312 109.34375 L 140.144531 122.675781 Z M 137.855469 106.933594 " clip-rule="nonzero"/></clipPath><clipPath id="8638f6d23e"><path d="M 142 123 L 188 123 L 188 146 L 142 146 Z M 142 123 " clip-rule="nonzero"/></clipPath><clipPath id="c96f46f11f"><path d="M 142.328125 129.984375 L 185.210938 123.746094 L 187.5 139.492188 L 144.617188 145.726562 Z M 142.328125 129.984375 " clip-rule="nonzero"/></clipPath><clipPath id="3ecea1d772"><path d="M 0.167969 0.605469 L 45.679688 0.605469 L 45.679688 22.882812 L 0.167969 22.882812 Z M 0.167969 0.605469 " clip-rule="nonzero"/></clipPath><clipPath id="11f2901432"><path d="M 0.328125 6.984375 L 43.210938 0.746094 L 45.5 16.492188 L 2.617188 22.726562 Z M 0.328125 6.984375 " clip-rule="nonzero"/></clipPath><clipPath id="75969d0792"><rect x="0" width="46" y="0" height="23"/></clipPath><clipPath id="fd2bdd0875"><path d="M 142 123 L 188 123 L 188 146 L 142 146 Z M 142 123 " clip-rule="nonzero"/></clipPath><clipPath id="5f21e422c2"><path d="M 142.328125 129.984375 L 185.292969 123.734375 L 187.554688 139.292969 L 144.589844 145.539062 Z M 142.328125 129.984375 " clip-rule="nonzero"/></clipPath><clipPath id="6ffa9ffde6"><path d="M 142.328125 129.980469 L 185.207031 123.746094 L 187.496094 139.488281 L 144.617188 145.722656 Z M 142.328125 129.980469 " clip-rule="nonzero"/></clipPath><clipPath id="b44c5deb94"><path d="M 148 161 L 243 161 L 243 191 L 148 191 Z M 148 161 " clip-rule="nonzero"/></clipPath><clipPath id="71ae1961a7"><path d="M 148.449219 174.929688 L 240.136719 161.597656 L 242.425781 177.339844 L 150.738281 190.671875 Z M 148.449219 174.929688 " clip-rule="nonzero"/></clipPath><clipPath id="9bd1cd3acb"><path d="M 0.394531 0.453125 L 94.535156 0.453125 L 94.535156 29.675781 L 0.394531 29.675781 Z M 0.394531 0.453125 " clip-rule="nonzero"/></clipPath><clipPath id="6035865cb9"><path d="M 0.449219 13.929688 L 92.136719 0.597656 L 94.425781 16.339844 L 2.738281 29.671875 Z M 0.449219 13.929688 " clip-rule="nonzero"/></clipPath><clipPath id="96ec1860f6"><rect x="0" width="95" y="0" height="30"/></clipPath><clipPath id="9a5fb20d9e"><path d="M 148 161 L 243 161 L 243 191 L 148 191 Z M 148 161 " clip-rule="nonzero"/></clipPath><clipPath id="ddd7f148e8"><path d="M 148.449219 174.929688 L 240.304688 161.570312 L 242.566406 177.128906 L 150.710938 190.484375 Z M 148.449219 174.929688 " clip-rule="nonzero"/></clipPath><clipPath id="69434d88ba"><path d="M 148.453125 174.929688 L 240.125 161.597656 L 242.414062 177.339844 L 150.742188 190.671875 Z M 148.453125 174.929688 " clip-rule="nonzero"/></clipPath><clipPath id="f7dc29fbb5"><path d="M 54 101 L 95 101 L 95 115 L 54 115 Z M 54 101 " clip-rule="nonzero"/></clipPath><clipPath id="962ea806f4"><path d="M 54.554688 107.242188 L 93.699219 101.550781 L 94.757812 108.832031 L 55.613281 114.523438 Z M 54.554688 107.242188 " clip-rule="nonzero"/></clipPath><clipPath id="2ffa0bbbdf"><path d="M 0.492188 0.328125 L 40.976562 0.328125 L 40.976562 13.742188 L 0.492188 13.742188 Z M 0.492188 0.328125 " clip-rule="nonzero"/></clipPath><clipPath id="15f812f294"><path d="M 0.554688 6.242188 L 39.699219 0.550781 L 40.757812 7.832031 L 1.613281 13.523438 Z M 0.554688 6.242188 " clip-rule="nonzero"/></clipPath><clipPath id="fe900dd4d2"><rect x="0" width="41" y="0" height="14"/></clipPath><clipPath id="fb4cafea8e"><path d="M 146 139 L 238 139 L 238 168 L 146 168 Z M 146 139 " clip-rule="nonzero"/></clipPath><clipPath id="bf95b5d4a6"><path d="M 145.46875 151.21875 L 236.328125 138.007812 L 238.875 155.535156 L 148.019531 168.746094 Z M 145.46875 151.21875 " clip-rule="nonzero"/></clipPath><clipPath id="9b68b0b922"><path d="M 154.234375 149.945312 L 227.53125 139.285156 C 232.371094 138.582031 236.867188 141.933594 237.570312 146.777344 C 238.273438 151.617188 234.921875 156.109375 230.082031 156.8125 L 156.78125 167.472656 C 151.941406 168.175781 147.449219 164.824219 146.746094 159.984375 C 146.039062 155.140625 149.394531 150.648438 154.234375 149.945312 Z M 154.234375 149.945312 " clip-rule="nonzero"/></clipPath><clipPath id="eefd890a1e"><path d="M 0 0 L 92 0 L 92 29 L 0 29 Z M 0 0 " clip-rule="nonzero"/></clipPath><clipPath id="a126f94c36"><path d="M -0.53125 12.21875 L 90.328125 -0.992188 L 92.875 16.535156 L 2.019531 29.746094 Z M -0.53125 12.21875 " clip-rule="nonzero"/></clipPath><clipPath id="d1a76b677f"><path d="M 8.234375 10.945312 L 81.53125 0.285156 C 86.371094 -0.417969 90.867188 2.933594 91.570312 7.777344 C 92.273438 12.617188 88.921875 17.109375 84.082031 17.8125 L 10.78125 28.472656 C 5.941406 29.175781 1.449219 25.824219 0.746094 20.984375 C 0.0390625 16.140625 3.394531 11.648438 8.234375 10.945312 Z M 8.234375 10.945312 " clip-rule="nonzero"/></clipPath><clipPath id="6ae27fc1ca"><rect x="0" width="92" y="0" height="29"/></clipPath><clipPath id="ee6b04a76b"><path d="M 146 139 L 238 139 L 238 168 L 146 168 Z M 146 139 " clip-rule="nonzero"/></clipPath><clipPath id="0cf6f37b66"><path d="M 145.46875 151.21875 L 236.585938 137.96875 L 239.171875 155.75 L 148.054688 168.996094 Z M 145.46875 151.21875 " clip-rule="nonzero"/></clipPath><clipPath id="3834c30f0b"><path d="M 145.472656 151.21875 L 236.289062 138.011719 L 239.039062 156.933594 L 148.226562 170.136719 Z M 145.472656 151.21875 " clip-rule="nonzero"/></clipPath><clipPath id="3c3c72b9c4"><path d="M 154.238281 149.945312 L 227.519531 139.289062 C 232.359375 138.585938 236.851562 141.9375 237.554688 146.777344 C 238.257812 151.613281 234.90625 156.109375 230.066406 156.8125 L 156.785156 167.46875 C 151.945312 168.171875 147.453125 164.820312 146.75 159.980469 C 146.042969 155.140625 149.398438 150.648438 154.238281 149.945312 Z M 154.238281 149.945312 " clip-rule="nonzero"/></clipPath><clipPath id="157d25ada8"><path d="M 83 25 L 143 25 L 143 85 L 83 85 Z M 83 25 " clip-rule="nonzero"/></clipPath><clipPath id="9dd481f5dc"><path d="M 79.707031 30.484375 L 137.882812 22.023438 L 146.339844 80.199219 L 88.167969 88.65625 Z M 79.707031 30.484375 " clip-rule="nonzero"/></clipPath><clipPath id="3e337dbe16"><path d="M 108.792969 26.253906 C 92.730469 28.589844 81.601562 43.503906 83.9375 59.570312 C 86.273438 75.632812 101.1875 86.761719 117.253906 84.425781 C 133.316406 82.089844 144.445312 67.175781 142.109375 51.109375 C 139.773438 35.046875 124.859375 23.917969 108.792969 26.253906 Z M 108.792969 26.253906 " clip-rule="nonzero"/></clipPath><clipPath id="7f8fa27b80"><path d="M 0 0 L 60 0 L 60 60 L 0 60 Z M 0 0 " clip-rule="nonzero"/></clipPath><clipPath id="1f6e6637e5"><path d="M -3.292969 5.484375 L 54.882812 -2.976562 L 63.339844 55.199219 L 5.167969 63.65625 Z M -3.292969 5.484375 " clip-rule="nonzero"/></clipPath><clipPath id="be842dc9a1"><path d="M 25.792969 1.253906 C 9.730469 3.589844 -1.398438 18.503906 0.9375 34.570312 C 3.273438 50.632812 18.1875 61.761719 34.253906 59.425781 C 50.316406 57.089844 61.445312 42.175781 59.109375 26.109375 C 56.773438 10.046875 41.859375 -1.082031 25.792969 1.253906 Z M 25.792969 1.253906 " clip-rule="nonzero"/></clipPath><clipPath id="4f3acb536e"><rect x="0" width="60" y="0" height="60"/></clipPath><clipPath id="0a3612cfa9"><path d="M 83 25 L 143 25 L 143 85 L 83 85 Z M 83 25 " clip-rule="nonzero"/></clipPath><clipPath id="7f41dd3de4"><path d="M 79.707031 30.484375 L 138.230469 21.972656 L 146.738281 80.496094 L 88.21875 89.003906 Z M 79.707031 30.484375 " clip-rule="nonzero"/></clipPath><clipPath id="405979da27"><path d="M 79.707031 30.484375 L 137.871094 22.027344 L 146.328125 80.1875 L 88.164062 88.644531 Z M 79.707031 30.484375 " clip-rule="nonzero"/></clipPath><clipPath id="47708b844c"><path d="M 108.789062 26.253906 C 92.726562 28.589844 81.601562 43.503906 83.9375 59.566406 C 86.273438 75.625 101.1875 86.753906 117.246094 84.417969 C 133.308594 82.082031 144.433594 67.167969 142.101562 51.105469 C 139.765625 35.046875 124.851562 23.917969 108.789062 26.253906 Z M 108.789062 26.253906 " clip-rule="nonzero"/></clipPath><clipPath id="a743488077"><path d="M 193 8 L 252 8 L 252 68 L 193 68 Z M 193 8 " clip-rule="nonzero"/></clipPath><clipPath id="0d0978b881"><path d="M 189.289062 13.113281 L 247.460938 4.652344 L 255.921875 62.828125 L 197.746094 71.285156 Z M 189.289062 13.113281 " clip-rule="nonzero"/></clipPath><clipPath id="6165710a21"><path d="M 218.375 8.882812 C 202.308594 11.21875 191.179688 26.136719 193.515625 42.199219 C 195.851562 58.261719 210.769531 69.390625 226.832031 67.054688 C 242.898438 64.71875 254.027344 49.804688 251.691406 33.738281 C 249.355469 17.675781 234.4375 6.546875 218.375 8.882812 Z M 218.375 8.882812 " clip-rule="nonzero"/></clipPath><clipPath id="832d9e362c"><path d="M 0 0 L 59 0 L 59 60 L 0 60 Z M 0 0 " clip-rule="nonzero"/></clipPath><clipPath id="a86e5f05b9"><path d="M -3.710938 5.113281 L 54.460938 -3.347656 L 62.921875 54.828125 L 4.746094 63.285156 Z M -3.710938 5.113281 " clip-rule="nonzero"/></clipPath><clipPath id="d4cf233640"><path d="M 25.375 0.882812 C 9.308594 3.21875 -1.820312 18.136719 0.515625 34.199219 C 2.851562 50.261719 17.769531 61.390625 33.832031 59.054688 C 49.898438 56.71875 61.027344 41.804688 58.691406 25.738281 C 56.355469 9.675781 41.4375 -1.453125 25.375 0.882812 Z M 25.375 0.882812 " clip-rule="nonzero"/></clipPath><clipPath id="1a315b96c4"><rect x="0" width="59" y="0" height="60"/></clipPath><clipPath id="974afae1cc"><path d="M 193 8 L 252 8 L 252 68 L 193 68 Z M 193 8 " clip-rule="nonzero"/></clipPath><clipPath id="ad4bdac931"><path d="M 189.289062 13.113281 L 247.808594 4.601562 L 256.320312 63.125 L 197.796875 71.632812 Z M 189.289062 13.113281 " clip-rule="nonzero"/></clipPath><clipPath id="f0bd56c8a3"><path d="M 189.289062 13.113281 L 247.449219 4.65625 L 255.910156 62.816406 L 197.746094 71.277344 Z M 189.289062 13.113281 " clip-rule="nonzero"/></clipPath><clipPath id="4cefdc8bd8"><path d="M 218.371094 8.882812 C 202.308594 11.21875 191.179688 26.132812 193.515625 42.195312 C 195.851562 58.253906 210.765625 69.382812 226.828125 67.046875 C 242.886719 64.710938 254.015625 49.796875 251.679688 33.738281 C 249.34375 17.675781 234.429688 6.546875 218.371094 8.882812 Z M 218.371094 8.882812 " clip-rule="nonzero"/></clipPath><clipPath id="2adfc0ac20"><path d="M 97 37 L 144 37 L 144 84 L 97 84 Z M 97 37 " clip-rule="nonzero"/></clipPath><clipPath id="f5b9ad7aaf"><path d="M 94.503906 41.523438 L 139.757812 34.941406 L 146.339844 80.199219 L 101.085938 86.777344 Z M 94.503906 41.523438 " clip-rule="nonzero"/></clipPath><clipPath id="b93b231b5a"><path d="M 117.132812 38.234375 C 104.636719 40.050781 95.976562 51.652344 97.796875 64.152344 C 99.613281 76.648438 111.214844 85.304688 123.710938 83.488281 C 136.210938 81.671875 144.867188 70.066406 143.050781 57.570312 C 141.234375 45.074219 129.628906 36.417969 117.132812 38.234375 Z M 117.132812 38.234375 " clip-rule="nonzero"/></clipPath><clipPath id="488315095c"><path d="M 0 0 L 47 0 L 47 47 L 0 47 Z M 0 0 " clip-rule="nonzero"/></clipPath><clipPath id="cda2715cbe"><path d="M -2.496094 4.523438 L 42.757812 -2.058594 L 49.339844 43.199219 L 4.085938 49.777344 Z M -2.496094 4.523438 " clip-rule="nonzero"/></clipPath><clipPath id="8d7320d287"><path d="M 20.132812 1.234375 C 7.636719 3.050781 -1.023438 14.652344 0.796875 27.152344 C 2.613281 39.648438 14.214844 48.304688 26.710938 46.488281 C 39.210938 44.671875 47.867188 33.066406 46.050781 20.570312 C 44.234375 8.074219 32.628906 -0.582031 20.132812 1.234375 Z M 20.132812 1.234375 " clip-rule="nonzero"/></clipPath><clipPath id="2f8239ebc6"><rect x="0" width="47" y="0" height="47"/></clipPath><clipPath id="cad71c46e0"><path d="M 206 17 L 253 17 L 253 64 L 206 64 Z M 206 17 " clip-rule="nonzero"/></clipPath><clipPath id="22951a7444"><path d="M 203.632812 21.050781 L 248.886719 14.46875 L 255.46875 59.722656 L 210.214844 66.304688 Z M 203.632812 21.050781 " clip-rule="nonzero"/></clipPath><clipPath id="c380776e4b"><path d="M 226.261719 17.757812 C 213.765625 19.574219 205.105469 31.179688 206.925781 43.675781 C 208.742188 56.171875 220.34375 64.832031 232.839844 63.011719 C 245.339844 61.195312 253.996094 49.59375 252.179688 37.09375 C 250.359375 24.597656 238.757812 15.941406 226.261719 17.757812 Z M 226.261719 17.757812 " clip-rule="nonzero"/></clipPath><clipPath id="2405e03151"><path d="M 0 0 L 47 0 L 47 47 L 0 47 Z M 0 0 " clip-rule="nonzero"/></clipPath><clipPath id="aa4fb3cd4c"><path d="M -2.367188 4.050781 L 42.886719 -2.53125 L 49.46875 42.722656 L 4.214844 49.304688 Z M -2.367188 4.050781 " clip-rule="nonzero"/></clipPath><clipPath id="84ea4d6c10"><path d="M 20.261719 0.757812 C 7.765625 2.574219 -0.894531 14.179688 0.925781 26.675781 C 2.742188 39.171875 14.34375 47.832031 26.839844 46.011719 C 39.339844 44.195312 47.996094 32.59375 46.179688 20.09375 C 44.359375 7.597656 32.757812 -1.058594 20.261719 0.757812 Z M 20.261719 0.757812 " clip-rule="nonzero"/></clipPath><clipPath id="93e056cfe0"><rect x="0" width="47" y="0" height="47"/></clipPath><clipPath id="4a2941779d"><path d="M 152 61 L 189 61 L 189 82 L 152 82 Z M 152 61 " clip-rule="nonzero"/></clipPath><clipPath id="0ba0b30fcb"><path d="M 152.191406 66.4375 L 188.882812 61.101562 L 191.445312 78.726562 L 154.753906 84.0625 Z M 152.191406 66.4375 " clip-rule="nonzero"/></clipPath><clipPath id="d9022f5d63"><path d="M 166.824219 81.226562 C 168.796875 81.589844 170.996094 81.699219 173.089844 81.394531 C 175.1875 81.089844 177.152344 80.4375 178.921875 79.527344 C 178.957031 79.503906 178.996094 79.496094 179.03125 79.46875 C 185.644531 75.898438 189.804688 68.402344 188.847656 61.109375 L 152.191406 66.4375 C 153.355469 73.742188 159.398438 79.757812 166.824219 81.226562 Z M 166.824219 81.226562 " clip-rule="nonzero"/></clipPath><clipPath id="b361893cef"><path d="M 0 0.0820312 L 37 0.0820312 L 37 20.925781 L 0 20.925781 Z M 0 0.0820312 " clip-rule="nonzero"/></clipPath><clipPath id="9e3d398fb3"><path d="M 0.191406 5.4375 L 36.882812 0.101562 L 39.445312 17.726562 L 2.753906 23.0625 Z M 0.191406 5.4375 " clip-rule="nonzero"/></clipPath><clipPath id="14a44a4696"><path d="M 14.824219 20.226562 C 16.796875 20.589844 18.996094 20.699219 21.089844 20.394531 C 23.1875 20.089844 25.152344 19.4375 26.921875 18.527344 C 26.957031 18.503906 26.996094 18.496094 27.03125 18.46875 C 33.644531 14.898438 37.804688 7.402344 36.847656 0.109375 L 0.191406 5.4375 C 1.355469 12.742188 7.398438 18.757812 14.824219 20.226562 Z M 14.824219 20.226562 " clip-rule="nonzero"/></clipPath><clipPath id="bc55ba0a97"><rect x="0" width="37" y="0" height="21"/></clipPath><clipPath id="b4e5db7246"><path d="M 152 61 L 189 61 L 189 82 L 152 82 Z M 152 61 " clip-rule="nonzero"/></clipPath><clipPath id="586de95546"><path d="M 152.191406 66.4375 L 188.488281 61.160156 L 191.074219 78.9375 L 154.777344 84.21875 Z M 152.191406 66.4375 " clip-rule="nonzero"/></clipPath><clipPath id="87911dcd94"><path d="M 152.191406 66.4375 L 188.835938 61.109375 L 191.398438 78.726562 L 154.753906 84.054688 Z M 152.191406 66.4375 " clip-rule="nonzero"/></clipPath><clipPath id="ed070cf629"><path d="M 166.820312 81.21875 C 168.792969 81.585938 170.988281 81.695312 173.085938 81.390625 C 175.179688 81.085938 177.144531 80.433594 178.910156 79.523438 C 178.949219 79.496094 178.988281 79.492188 179.023438 79.464844 C 185.632812 75.894531 189.792969 68.398438 188.835938 61.109375 L 152.191406 66.4375 C 153.355469 73.738281 159.398438 79.75 166.820312 81.21875 Z M 166.820312 81.21875 " clip-rule="nonzero"/></clipPath><clipPath id="12f9ca8909"><path d="M 189 116 L 235 116 L 235 139 L 189 139 Z M 189 116 " clip-rule="nonzero"/></clipPath><clipPath id="319b0fd6d1"><path d="M 189.289062 122.824219 L 232.171875 116.589844 L 234.460938 132.332031 L 191.578125 138.566406 Z M 189.289062 122.824219 " clip-rule="nonzero"/></clipPath><clipPath id="c152961c36"><path d="M 0.117188 0.417969 L 45.628906 0.417969 L 45.628906 22.695312 L 0.117188 22.695312 Z M 0.117188 0.417969 " clip-rule="nonzero"/></clipPath><clipPath id="05efc2f064"><path d="M 0.289062 6.824219 L 43.171875 0.589844 L 45.460938 16.332031 L 2.578125 22.566406 Z M 0.289062 6.824219 " clip-rule="nonzero"/></clipPath><clipPath id="94bb24bdea"><rect x="0" width="46" y="0" height="23"/></clipPath><clipPath id="bdcb8ab382"><path d="M 189 116 L 235 116 L 235 139 L 189 139 Z M 189 116 " clip-rule="nonzero"/></clipPath><clipPath id="06c7e55531"><path d="M 189.289062 122.824219 L 232.253906 116.578125 L 234.515625 132.132812 L 191.550781 138.378906 Z M 189.289062 122.824219 " clip-rule="nonzero"/></clipPath><clipPath id="80a250f8e9"><path d="M 189.289062 122.824219 L 232.167969 116.589844 L 234.457031 132.332031 L 191.578125 138.566406 Z M 189.289062 122.824219 " clip-rule="nonzero"/></clipPath><clipPath id="a293064a33"><path d="M 2 2 L 28 2 L 28 28 L 2 28 Z M 2 2 " clip-rule="nonzero"/></clipPath><clipPath id="b0f5c744ca"><path d="M 0.484375 4.453125 L 25.234375 0.855469 L 28.832031 25.605469 L 4.082031 29.203125 Z M 0.484375 4.453125 " clip-rule="nonzero"/></clipPath><clipPath id="7e5de36e54"><path d="M 12.859375 2.652344 C 6.023438 3.648438 1.289062 9.992188 2.285156 16.828125 C 3.277344 23.664062 9.625 28.398438 16.457031 27.402344 C 23.292969 26.410156 28.027344 20.0625 27.035156 13.230469 C 26.039062 6.394531 19.695312 1.660156 12.859375 2.652344 Z M 12.859375 2.652344 " clip-rule="nonzero"/></clipPath><clipPath id="5621fc7771"><path d="M 0 0 L 26 0 L 26 26 L 0 26 Z M 0 0 " clip-rule="nonzero"/></clipPath><clipPath id="3eb940bcbe"><path d="M -1.515625 2.453125 L 23.234375 -1.144531 L 26.832031 23.605469 L 2.082031 27.203125 Z M -1.515625 2.453125 " clip-rule="nonzero"/></clipPath><clipPath id="b58dc6d87e"><path d="M 10.859375 0.652344 C 4.023438 1.648438 -0.710938 7.992188 0.285156 14.828125 C 1.277344 21.664062 7.625 26.398438 14.457031 25.402344 C 21.292969 24.410156 26.027344 18.0625 25.035156 11.230469 C 24.039062 4.394531 17.695312 -0.339844 10.859375 0.652344 Z M 10.859375 0.652344 " clip-rule="nonzero"/></clipPath><clipPath id="81175860e0"><rect x="0" width="26" y="0" height="26"/></clipPath><clipPath id="83fee4ea2c"><path d="M 8 7 L 22 7 L 22 22 L 8 22 Z M 8 7 " clip-rule="nonzero"/></clipPath><clipPath id="461dd1a2c7"><path d="M 17.691406 7.714844 L 21.035156 10.453125 L 11.621094 21.945312 L 8.277344 19.207031 Z M 17.691406 7.714844 " clip-rule="nonzero"/></clipPath><clipPath id="fcf39f4212"><path d="M 0.152344 0.585938 L 13.085938 0.585938 L 13.085938 14.957031 L 0.152344 14.957031 Z M 0.152344 0.585938 " clip-rule="nonzero"/></clipPath><clipPath id="0159d09c28"><path d="M 9.691406 0.714844 L 13.035156 3.453125 L 3.621094 14.945312 L 0.277344 12.207031 Z M 9.691406 0.714844 " clip-rule="nonzero"/></clipPath><clipPath id="d82ab2a0b0"><rect x="0" width="14" y="0" height="15"/></clipPath><clipPath id="be75197fab"><path d="M 7 8 L 22 8 L 22 22 L 7 22 Z M 7 8 " clip-rule="nonzero"/></clipPath><clipPath id="a704e1569e"><path d="M 7.546875 11.792969 L 10.285156 8.449219 L 21.777344 17.863281 L 19.035156 21.207031 Z M 7.546875 11.792969 " clip-rule="nonzero"/></clipPath><clipPath id="36539e8b39"><path d="M 0.433594 0.304688 L 14.804688 0.304688 L 14.804688 13.238281 L 0.433594 13.238281 Z M 0.433594 0.304688 " clip-rule="nonzero"/></clipPath><clipPath id="47ffa6d228"><path d="M 0.546875 3.792969 L 3.285156 0.449219 L 14.777344 9.863281 L 12.035156 13.207031 Z M 0.546875 3.792969 " clip-rule="nonzero"/></clipPath><clipPath id="949740a7cc"><rect x="0" width="15" y="0" height="14"/></clipPath><clipPath id="bba3f90306"><rect x="0" width="29" y="0" height="30"/></clipPath></defs><g clip-path="url(#0f07b38435)"><g clip-path="url(#4403d73884)"><g clip-path="url(#8b3985af70)"><g transform="matrix(1, 0, 0, 1, 16, 47)"><g clip-path="url(#56fc389c9f)"><g clip-path="url(#09113d3447)"><g clip-path="url(#1e64cd9e36)"><g clip-path="url(#371b89b293)"><path fill="#000000" d="M -1 35.113281 L 331.5625 -0.289062 L 348.128906 155.351562 L 15.570312 190.753906 Z M -1 35.113281 " fill-opacity="1" fill-rule="nonzero"/></g></g></g></g></g></g></g></g><g clip-path="url(#48ef288550)"><g clip-path="url(#18fa9b950d)"><g clip-path="url(#de61691bba)"><g clip-path="url(#39634f2aec)"><path stroke-linecap="butt" transform="matrix(0.744368, -0.0792406, 0.0792406, 0.744368, 15.008828, 82.113095)" fill="none" stroke-linejoin="miter" d="M 16.098907 -0.00197408 L 430.911235 0.00179926 C 439.806461 -0.00111296 447.010131 7.209966 447.013595 16.100004 L 447.012956 192.980206 C 447.011231 201.869691 439.804789 209.079102 430.915304 209.077378 L 16.097235 209.078241 C 7.207749 209.076517 -0.00166174 201.870074 0.0000626044 192.980589 L 0.000702416 16.100387 C -0.0022098 7.20516 7.208869 0.00149052 16.098907 -0.00197408 Z M 16.098907 -0.00197408 " stroke="#000000" stroke-width="6" stroke-opacity="1" stroke-miterlimit="4"/></g></g></g></g><g clip-path="url(#839586e4ae)"><g clip-path="url(#2b36248bcf)"><g clip-path="url(#f7dbd6ae72)"><g transform="matrix(1, 0, 0, 1, 8, 34)"><g clip-path="url(#9b943e6a75)"><g clip-path="url(#4668664443)"><g clip-path="url(#140dd1824f)"><g clip-path="url(#e24f8391d6)"><path fill="#9b63cd" d="M -0.675781 47.050781 L 330.621094 -1.121094 L 353.628906 157.109375 L 22.332031 205.28125 Z M -0.675781 47.050781 " fill-opacity="1" fill-rule="nonzero"/></g></g></g></g></g></g></g></g><g clip-path="url(#b094a6be49)"><g clip-path="url(#ef4314b8f4)"><g clip-path="url(#5d5680f2c5)"><g clip-path="url(#e0049e469d)"><path stroke-linecap="butt" transform="matrix(0.740783, -0.107718, 0.107718, 0.740783, 7.326492, 81.050975)" fill="none" stroke-linejoin="miter" d="M 16.101119 -0.000247347 L 430.927866 0.00088437 C 439.818247 0.00172876 447.022775 7.208369 447.027095 16.099502 L 447.02632 197.495201 C 447.025475 206.385582 439.818084 213.595274 430.927703 213.59443 L 16.100956 213.593298 C 7.210574 213.592453 0.000882718 206.385062 0.00172711 197.494681 L 0.00250188 16.098981 C -0.00181767 7.207849 7.210738 -0.00109174 16.101119 -0.000247347 Z M 16.101119 -0.000247347 " stroke="#000000" stroke-width="10" stroke-opacity="1" stroke-miterlimit="4"/></g></g></g></g><g clip-path="url(#8fd08cb100)"><g clip-path="url(#be3593c2da)"><g clip-path="url(#d843c727b3)"><g transform="matrix(1, 0, 0, 1, 32, 63)"><g clip-path="url(#d9ba1170dc)"><g clip-path="url(#68b29ced15)"><g clip-path="url(#bf58573f58)"><g clip-path="url(#c9a5d9c46b)"><path fill="#dcb4ff" d="M -0.957031 41.382812 L 293.214844 -1.394531 L 310.21875 115.546875 L 16.046875 158.320312 Z M -0.957031 41.382812 " fill-opacity="1" fill-rule="nonzero"/></g></g></g></g></g></g></g></g><g clip-path="url(#a787684543)"><g clip-path="url(#e25b1b958d)"><g clip-path="url(#249ddf7a92)"><g clip-path="url(#dab0ea5ca5)"><path stroke-linecap="butt" transform="matrix(0.740783, -0.107718, 0.107718, 0.740783, 31.049425, 104.382223)" fill="none" stroke-linejoin="miter" d="M 16.100602 0.0007346 L 380.817389 -0.00248832 C 389.707771 -0.00164384 396.917462 7.205748 396.916618 16.096129 L 396.917332 141.744472 C 396.916488 150.634853 389.709096 157.844544 380.818715 157.8437 L 16.097515 157.841008 C 7.206383 157.845328 0.00185508 150.638687 -0.00171349 141.742391 L 0.00198486 16.099963 C -0.00233461 7.208831 7.210221 -0.000109873 16.100602 0.0007346 Z M 16.100602 0.0007346 " stroke="#000000" stroke-width="6" stroke-opacity="1" stroke-miterlimit="4"/></g></g></g></g><g transform="matrix(1, 0, 0, 1, 60, 127)"><g clip-path="url(#d4c55a4122)"><g clip-path="url(#3826d5585c)"><g clip-path="url(#0a04077280)"><g transform="matrix(1, 0, 0, 1, 20, 4)"><g clip-path="url(#23a9cfe126)"><g clip-path="url(#8625418a4e)"><g clip-path="url(#a738316441)"><path fill="#000000" d="M 0.9375 3.71875 L 17.515625 0.5 L 28.585938 57.484375 L 12.007812 60.707031 Z M 0.9375 3.71875 " fill-opacity="1" fill-rule="nonzero"/></g></g></g></g></g></g><g clip-path="url(#c83969da0a)"><g clip-path="url(#a001efaa30)"><g transform="matrix(1, 0, 0, 1, 4, 20)"><g clip-path="url(#2a285a27ff)"><g clip-path="url(#39223bb219)"><g clip-path="url(#9569af7dd0)"><path fill="#000000" d="M 3.882812 28.414062 L 0.660156 11.835938 L 57.648438 0.769531 L 60.867188 17.347656 Z M 3.882812 28.414062 " fill-opacity="1" fill-rule="nonzero"/></g></g></g></g></g></g></g></g><g transform="matrix(1, 0, 0, 1, 57, 123)"><g clip-path="url(#abac5e1b95)"><g clip-path="url(#615f7821c2)"><g clip-path="url(#4ee9b9c2b6)"><g transform="matrix(1, 0, 0, 1, 21, 4)"><g clip-path="url(#63530d02a8)"><g clip-path="url(#672964af6b)"><g clip-path="url(#80eedcecf7)"><path fill="#9b63cd" d="M 0.03125 3.886719 L 16.609375 0.667969 L 27.679688 57.65625 L 11.101562 60.875 Z M 0.03125 3.886719 " fill-opacity="1" fill-rule="nonzero"/></g></g></g></g></g></g><g clip-path="url(#d927e376ab)"><g clip-path="url(#6be315d454)"><g transform="matrix(1, 0, 0, 1, 4, 20)"><g clip-path="url(#ddf284070a)"><g clip-path="url(#7fd3e00863)"><g clip-path="url(#b41563ace3)"><path fill="#9b63cd" d="M 3.976562 28.585938 L 0.753906 12.007812 L 57.742188 0.9375 L 60.960938 17.515625 Z M 3.976562 28.585938 " fill-opacity="1" fill-rule="nonzero"/></g></g></g></g></g></g></g></g><g clip-path="url(#d4cf0896f5)"><g clip-path="url(#0ae58f66ac)"><g clip-path="url(#d8d1f7dae6)"><g transform="matrix(1, 0, 0, 1, 255, 116)"><g clip-path="url(#290188917d)"><g clip-path="url(#69453e25bb)"><g clip-path="url(#2f563e1034)"><g clip-path="url(#04618ea019)"><path fill="#000000" d="M -0.558594 1.558594 L 19.144531 -1.304688 L 22.007812 18.398438 L 2.304688 21.261719 Z M -0.558594 1.558594 " fill-opacity="1" fill-rule="nonzero"/></g></g></g></g></g></g></g></g><g clip-path="url(#2a5308f002)"><g clip-path="url(#f6ed76cdfe)"><g clip-path="url(#38f0dfa38d)"><path stroke-linecap="butt" transform="matrix(0.740783, -0.107718, 0.107718, 0.740783, 260.870458, 122.439857)" fill="none" stroke-linejoin="miter" d="M 0.000542886 0.0021709 L 13.384466 -0.00271437 L 13.385431 11.703782 L 0.00225861 11.703504 Z M 0.000542886 0.0021709 " stroke="#f3ceff" stroke-width="2" stroke-opacity="1" stroke-miterlimit="4"/></g></g></g><g clip-path="url(#28b45e8c6e)"><g clip-path="url(#157160749a)"><g clip-path="url(#47b63df8ee)"><g transform="matrix(1, 0, 0, 1, 270, 93)"><g clip-path="url(#58e34fbed2)"><g clip-path="url(#b2990216f2)"><g clip-path="url(#8179db9cf3)"><g clip-path="url(#12d5e0f33d)"><path fill="#000000" d="M -0.691406 1.988281 L 19.011719 -0.875 L 21.878906 18.828125 L 2.175781 21.695312 Z M -0.691406 1.988281 " fill-opacity="1" fill-rule="nonzero"/></g></g></g></g></g></g></g></g><g clip-path="url(#f3fb90e380)"><g clip-path="url(#9eed027ae1)"><g clip-path="url(#17c696dd7a)"><g clip-path="url(#d6ffaa5921)"><path stroke-linecap="butt" transform="matrix(0.740783, -0.107718, 0.107718, 0.740783, 274.031677, 98.810443)" fill="none" stroke-linejoin="miter" d="M 7.851099 0.000144973 L 15.703457 13.739483 L 0.0000914202 13.739302 Z M 7.851099 0.000144973 " stroke="#f3ceff" stroke-width="2" stroke-opacity="1" stroke-miterlimit="4"/></g></g></g></g><g clip-path="url(#92445b10c6)"><g clip-path="url(#eae3d3ab78)"><g clip-path="url(#df3df3791c)"><g transform="matrix(1, 0, 0, 1, 276, 133)"><g clip-path="url(#bf1fb130c1)"><g clip-path="url(#8278fc8ed0)"><g clip-path="url(#e1116fbf9a)"><g clip-path="url(#e7e180acbe)"><path fill="#000000" d="M -0.890625 1.871094 L 18.8125 -0.992188 L 21.675781 18.710938 L 1.972656 21.574219 Z M -0.890625 1.871094 " fill-opacity="1" fill-rule="nonzero"/></g></g></g></g></g></g></g></g><g clip-path="url(#b118730b44)"><g clip-path="url(#ed05593b04)"><g clip-path="url(#8ee7d46f93)"><g clip-path="url(#a3715f71dd)"><path stroke-linecap="butt" transform="matrix(0.740783, -0.107718, 0.107718, 0.740783, 280.000387, 138.521882)" fill="none" stroke-linejoin="miter" d="M 7.529489 0.000160744 C 3.373947 0.00230827 -0.000386623 3.371576 0.00101001 7.532281 C -0.00275731 11.692236 3.372425 15.062156 7.53313 15.06076 C 11.687921 15.063776 15.063006 11.689345 15.061609 7.528639 C 15.064625 3.373849 11.690194 -0.00123588 7.529489 0.000160744 Z M 7.529489 0.000160744 " stroke="#f3ceff" stroke-width="2" stroke-opacity="1" stroke-miterlimit="4"/></g></g></g></g><g clip-path="url(#430b9afcb1)"><g clip-path="url(#2650ad4551)"><g transform="matrix(1, 0, 0, 1, 137, 93)"><g clip-path="url(#93afd818f5)"><g clip-path="url(#d2af5b4327)"><g clip-path="url(#530f7f0de0)"><path fill="#ffffff" d="M 0.851562 13.933594 L 92.546875 0.601562 L 94.835938 16.34375 L 3.140625 29.679688 Z M 0.851562 13.933594 " fill-opacity="1" fill-rule="nonzero"/></g></g></g></g></g></g><g clip-path="url(#9fae850e50)"><g clip-path="url(#30e838c3a5)"><g clip-path="url(#c36aafb580)"><path stroke-linecap="butt" transform="matrix(0.740783, -0.107718, 0.107718, 0.740783, 137.856518, 106.934058)" fill="none" stroke-linejoin="miter" d="M -0.0012977 -0.000815555 L 123.75413 -0.00257856 L 123.754091 21.248144 L -0.00133733 21.249907 Z M -0.0012977 -0.000815555 " stroke="#000000" stroke-width="4" stroke-opacity="1" stroke-miterlimit="4"/></g></g></g><g clip-path="url(#8638f6d23e)"><g clip-path="url(#c96f46f11f)"><g transform="matrix(1, 0, 0, 1, 142, 123)"><g clip-path="url(#75969d0792)"><g clip-path="url(#3ecea1d772)"><g clip-path="url(#11f2901432)"><path fill="#ffde59" d="M 0.328125 6.984375 L 43.191406 0.75 L 45.480469 16.492188 L 2.617188 22.726562 Z M 0.328125 6.984375 " fill-opacity="1" fill-rule="nonzero"/></g></g></g></g></g></g><g clip-path="url(#fd2bdd0875)"><g clip-path="url(#5f21e422c2)"><g clip-path="url(#6ffa9ffde6)"><path stroke-linecap="butt" transform="matrix(0.740783, -0.107718, 0.107718, 0.740783, 142.329336, 129.982127)" fill="none" stroke-linejoin="miter" d="M -0.00128146 -0.00242539 L 57.88177 -0.00149478 L 57.881731 21.249228 L -0.0013211 21.248297 Z M -0.00128146 -0.00242539 " stroke="#000000" stroke-width="4" stroke-opacity="1" stroke-miterlimit="4"/></g></g></g><g clip-path="url(#b44c5deb94)"><g clip-path="url(#71ae1961a7)"><g transform="matrix(1, 0, 0, 1, 148, 161)"><g clip-path="url(#96ec1860f6)"><g clip-path="url(#9bd1cd3acb)"><g clip-path="url(#6035865cb9)"><path fill="#ffffff" d="M 0.449219 13.929688 L 92.144531 0.59375 L 94.433594 16.339844 L 2.738281 29.671875 Z M 0.449219 13.929688 " fill-opacity="1" fill-rule="nonzero"/></g></g></g></g></g></g><g clip-path="url(#9a5fb20d9e)"><g clip-path="url(#ddd7f148e8)"><g clip-path="url(#69434d88ba)"><path stroke-linecap="butt" transform="matrix(0.740783, -0.107718, 0.107718, 0.740783, 148.451852, 174.928564)" fill="none" stroke-linejoin="miter" d="M 0.0014664 0.00172992 L 123.751731 -0.000783974 L 123.751691 21.249939 L 0.00142676 21.252452 Z M 0.0014664 0.00172992 " stroke="#000000" stroke-width="4" stroke-opacity="1" stroke-miterlimit="4"/></g></g></g><g clip-path="url(#f7dc29fbb5)"><g clip-path="url(#962ea806f4)"><g transform="matrix(1, 0, 0, 1, 54, 101)"><g clip-path="url(#fe900dd4d2)"><g clip-path="url(#2ffa0bbbdf)"><g clip-path="url(#15f812f294)"><path fill="#000000" d="M 0.554688 6.242188 L 39.691406 0.550781 L 40.75 7.832031 L 1.613281 13.523438 Z M 0.554688 6.242188 " fill-opacity="1" fill-rule="nonzero"/></g></g></g></g></g></g><g clip-path="url(#fb4cafea8e)"><g clip-path="url(#bf95b5d4a6)"><g clip-path="url(#9b68b0b922)"><g transform="matrix(1, 0, 0, 1, 146, 139)"><g clip-path="url(#6ae27fc1ca)"><g clip-path="url(#eefd890a1e)"><g clip-path="url(#a126f94c36)"><g clip-path="url(#d1a76b677f)"><path fill="#ffffff" d="M -0.53125 12.21875 L 90.328125 -0.992188 L 92.875 16.535156 L 2.019531 29.746094 Z M -0.53125 12.21875 " fill-opacity="1" fill-rule="nonzero"/></g></g></g></g></g></g></g></g><g clip-path="url(#ee6b04a76b)"><g clip-path="url(#0cf6f37b66)"><g clip-path="url(#3834c30f0b)"><g clip-path="url(#3c3c72b9c4)"><path stroke-linecap="butt" transform="matrix(0.740783, -0.107718, 0.107718, 0.740783, 145.474429, 151.217991)" fill="none" stroke-linejoin="miter" d="M 11.830195 0.00222737 L 110.754253 0.00179724 C 117.287543 0.00264747 122.581811 5.296843 122.580961 11.830133 C 122.580861 18.358258 117.285915 23.65769 110.752625 23.65684 L 11.828567 23.65727 C 5.295278 23.65642 0.00100967 18.362224 0.00185991 11.828935 C -0.0024538 5.294894 5.296906 0.00137713 11.830195 0.00222737 Z M 11.830195 0.00222737 " stroke="#000000" stroke-width="4" stroke-opacity="1" stroke-miterlimit="4"/></g></g></g></g><g clip-path="url(#157d25ada8)"><g clip-path="url(#9dd481f5dc)"><g clip-path="url(#3e337dbe16)"><g transform="matrix(1, 0, 0, 1, 83, 25)"><g clip-path="url(#4f3acb536e)"><g clip-path="url(#7f8fa27b80)"><g clip-path="url(#1f6e6637e5)"><g clip-path="url(#be842dc9a1)"><path fill="#ffffff" d="M -3.292969 5.484375 L 54.882812 -2.976562 L 63.339844 55.199219 L 5.167969 63.65625 Z M -3.292969 5.484375 " fill-opacity="1" fill-rule="nonzero"/></g></g></g></g></g></g></g></g><g clip-path="url(#0a3612cfa9)"><g clip-path="url(#7f41dd3de4)"><g clip-path="url(#405979da27)"><g clip-path="url(#47708b844c)"><path stroke-linecap="butt" transform="matrix(0.740783, -0.107718, 0.107718, 0.740783, 79.707853, 30.483326)" fill="none" stroke-linejoin="miter" d="M 39.257506 -0.000901563 C 17.574327 -0.000547434 0.000488989 17.576843 0.000843117 39.260022 C 0.00194814 60.938037 17.578588 78.517039 39.256603 78.515934 C 60.939782 78.515579 78.513619 60.938189 78.518429 39.255761 C 78.517324 17.577746 60.940684 -0.00125569 39.257506 -0.000901563 Z M 39.257506 -0.000901563 " stroke="#000000" stroke-width="8" stroke-opacity="1" stroke-miterlimit="4"/></g></g></g></g><g clip-path="url(#a743488077)"><g clip-path="url(#0d0978b881)"><g clip-path="url(#6165710a21)"><g transform="matrix(1, 0, 0, 1, 193, 8)"><g clip-path="url(#1a315b96c4)"><g clip-path="url(#832d9e362c)"><g clip-path="url(#a86e5f05b9)"><g clip-path="url(#d4cf233640)"><path fill="#ffffff" d="M -3.710938 5.113281 L 54.460938 -3.347656 L 62.921875 54.828125 L 4.746094 63.285156 Z M -3.710938 5.113281 " fill-opacity="1" fill-rule="nonzero"/></g></g></g></g></g></g></g></g><g clip-path="url(#974afae1cc)"><g clip-path="url(#ad4bdac931)"><g clip-path="url(#f0bd56c8a3)"><g clip-path="url(#4cefdc8bd8)"><path stroke-linecap="butt" transform="matrix(0.740783, -0.107718, 0.107718, 0.740783, 189.287973, 13.112377)" fill="none" stroke-linejoin="miter" d="M 39.26006 -0.000726181 C 17.576881 -0.000372053 -0.0021207 17.576268 -0.00176657 39.259447 C -0.000661548 60.937461 17.575978 78.516463 39.259157 78.516109 C 60.937172 78.515004 78.516174 60.938364 78.515069 39.260349 C 78.514714 17.57717 60.938075 -0.00183121 39.26006 -0.000726181 Z M 39.26006 -0.000726181 " stroke="#000000" stroke-width="8" stroke-opacity="1" stroke-miterlimit="4"/></g></g></g></g><g clip-path="url(#2adfc0ac20)"><g clip-path="url(#f5b9ad7aaf)"><g clip-path="url(#b93b231b5a)"><g transform="matrix(1, 0, 0, 1, 97, 37)"><g clip-path="url(#2f8239ebc6)"><g clip-path="url(#488315095c)"><g clip-path="url(#cda2715cbe)"><g clip-path="url(#8d7320d287)"><path fill="#000000" d="M -2.496094 4.523438 L 42.757812 -2.058594 L 49.339844 43.199219 L 4.085938 49.777344 Z M -2.496094 4.523438 " fill-opacity="1" fill-rule="nonzero"/></g></g></g></g></g></g></g></g><g clip-path="url(#cad71c46e0)"><g clip-path="url(#22951a7444)"><g clip-path="url(#c380776e4b)"><g transform="matrix(1, 0, 0, 1, 206, 17)"><g clip-path="url(#93e056cfe0)"><g clip-path="url(#2405e03151)"><g clip-path="url(#aa4fb3cd4c)"><g clip-path="url(#84ea4d6c10)"><path fill="#000000" d="M -2.367188 4.050781 L 42.886719 -2.53125 L 49.46875 42.722656 L 4.214844 49.304688 Z M -2.367188 4.050781 " fill-opacity="1" fill-rule="nonzero"/></g></g></g></g></g></g></g></g><g clip-path="url(#4a2941779d)"><g clip-path="url(#0ba0b30fcb)"><g clip-path="url(#d9022f5d63)"><g transform="matrix(1, 0, 0, 1, 152, 61)"><g clip-path="url(#bc55ba0a97)"><g clip-path="url(#b361893cef)"><g clip-path="url(#9e3d398fb3)"><g clip-path="url(#14a44a4696)"><path fill="#ffffff" d="M 0.191406 5.4375 L 36.8125 0.113281 L 39.375 17.734375 L 2.753906 23.0625 Z M 0.191406 5.4375 " fill-opacity="1" fill-rule="nonzero"/></g></g></g></g></g></g></g></g><g clip-path="url(#b4e5db7246)"><g clip-path="url(#586de95546)"><g clip-path="url(#87911dcd94)"><g clip-path="url(#ed070cf629)"><path stroke-linecap="butt" transform="matrix(0.740783, -0.107718, 0.107718, 0.740783, 152.192018, 66.438384)" fill="none" stroke-linejoin="miter" d="M 16.496946 22.35119 C 19.034154 23.215803 21.915266 23.782397 24.746875 23.782841 C 27.57332 23.782534 30.296184 23.297855 32.805246 22.434061 C 32.862142 22.405423 32.914532 22.407768 32.966264 22.378378 C 42.389979 18.929048 49.330551 9.819141 49.466557 -0.000750997 L -0.000639216 -0.00128681 C 0.134792 9.873895 6.967786 18.982843 16.496946 22.35119 Z M 16.496946 22.35119 " stroke="#000000" stroke-width="6" stroke-opacity="1" stroke-miterlimit="4"/></g></g></g></g><g clip-path="url(#12f9ca8909)"><g clip-path="url(#319b0fd6d1)"><g transform="matrix(1, 0, 0, 1, 189, 116)"><g clip-path="url(#94bb24bdea)"><g clip-path="url(#c152961c36)"><g clip-path="url(#05efc2f064)"><path fill="#ffde59" d="M 0.289062 6.824219 L 43.152344 0.589844 L 45.441406 16.335938 L 2.578125 22.566406 Z M 0.289062 6.824219 " fill-opacity="1" fill-rule="nonzero"/></g></g></g></g></g></g><g clip-path="url(#bdcb8ab382)"><g clip-path="url(#06c7e55531)"><g clip-path="url(#80a250f8e9)"><path stroke-linecap="butt" transform="matrix(0.740783, -0.107718, 0.107718, 0.740783, 189.290474, 122.8238)" fill="none" stroke-linejoin="miter" d="M -0.00194605 0.000282822 L 57.881106 0.00121342 L 57.881066 21.251936 L -0.00198568 21.251005 Z M -0.00194605 0.000282822 " stroke="#000000" stroke-width="4" stroke-opacity="1" stroke-miterlimit="4"/></g></g></g><g transform="matrix(1, 0, 0, 1, 289, 105)"><g clip-path="url(#bba3f90306)"><g clip-path="url(#a293064a33)"><g clip-path="url(#b0f5c744ca)"><g clip-path="url(#7e5de36e54)"><g transform="matrix(1, 0, 0, 1, 2, 2)"><g clip-path="url(#81175860e0)"><g clip-path="url(#5621fc7771)"><g clip-path="url(#3eb940bcbe)"><g clip-path="url(#b58dc6d87e)"><path fill="#000000" d="M -1.515625 2.453125 L 23.234375 -1.144531 L 26.832031 23.605469 L 2.082031 27.203125 Z M -1.515625 2.453125 " fill-opacity="1" fill-rule="nonzero"/></g></g></g></g></g></g></g></g><g clip-path="url(#83fee4ea2c)"><g clip-path="url(#461dd1a2c7)"><g transform="matrix(1, 0, 0, 1, 8, 7)"><g clip-path="url(#d82ab2a0b0)"><g clip-path="url(#fcf39f4212)"><g clip-path="url(#0159d09c28)"><path fill="#ff66c4" d="M 9.691406 0.714844 L 13.035156 3.453125 L 3.617188 14.949219 L 0.273438 12.210938 Z M 9.691406 0.714844 " fill-opacity="1" fill-rule="nonzero"/></g></g></g></g></g></g><g clip-path="url(#be75197fab)"><g clip-path="url(#a704e1569e)"><g transform="matrix(1, 0, 0, 1, 7, 8)"><g clip-path="url(#949740a7cc)"><g clip-path="url(#36539e8b39)"><g clip-path="url(#47ffa6d228)"><path fill="#ff66c4" d="M 0.546875 3.792969 L 3.285156 0.449219 L 14.777344 9.863281 L 12.039062 13.207031 Z M 0.546875 3.792969 " fill-opacity="1" fill-rule="nonzero"/></g></g></g></g></g></g></g></g></svg>