<svg xmlns="http://www.w3.org/2000/svg" xmlns:xlink="http://www.w3.org/1999/xlink" width="500" zoomAndPan="magnify" viewBox="0 0 375 262.499992" height="350" preserveAspectRatio="xMidYMid meet" version="1.0"><defs><clipPath id="be851f1be4"><path d="M 15 40 L 367 40 L 367 244 L 15 244 Z M 15 40 " clip-rule="nonzero"/></clipPath><clipPath id="4a0f53f0fa"><path d="M 13.511719 86.910156 L 344.804688 38.734375 L 367.816406 196.964844 L 36.519531 245.140625 Z M 13.511719 86.910156 " clip-rule="nonzero"/></clipPath><clipPath id="28653605de"><path d="M 25.4375 85.175781 L 332.742188 40.488281 C 339.328125 39.53125 345.445312 44.09375 346.402344 50.679688 L 365.941406 185.058594 C 366.898438 191.644531 362.335938 197.761719 355.75 198.71875 L 48.445312 243.40625 C 41.859375 244.363281 35.742188 239.800781 34.785156 233.214844 L 15.242188 98.835938 C 14.285156 92.25 18.847656 86.132812 25.4375 85.175781 Z M 25.4375 85.175781 " clip-rule="nonzero"/></clipPath><clipPath id="8621ca8f1a"><path d="M 0 0 L 352 0 L 352 204 L 0 204 Z M 0 0 " clip-rule="nonzero"/></clipPath><clipPath id="8f4f2622f7"><path d="M -1.488281 46.910156 L 329.804688 -1.265625 L 352.816406 156.964844 L 21.519531 205.140625 Z M -1.488281 46.910156 " clip-rule="nonzero"/></clipPath><clipPath id="15bf4470e8"><path d="M 10.4375 45.175781 L 317.742188 0.488281 C 324.328125 -0.46875 330.445312 4.09375 331.402344 10.679688 L 350.941406 145.058594 C 351.898438 151.644531 347.335938 157.761719 340.75 158.71875 L 33.445312 203.40625 C 26.859375 204.363281 20.742188 199.800781 19.785156 193.214844 L 0.242188 58.835938 C -0.714844 52.25 3.847656 46.132812 10.4375 45.175781 Z M 10.4375 45.175781 " clip-rule="nonzero"/></clipPath><clipPath id="2ee9d6ec85"><rect x="0" width="352" y="0" height="204"/></clipPath><clipPath id="c45f4b1b1d"><path d="M 15 40 L 367 40 L 367 244 L 15 244 Z M 15 40 " clip-rule="nonzero"/></clipPath><clipPath id="8585aeabd2"><path d="M 13.511719 86.910156 L 344.640625 38.757812 L 367.691406 197.285156 L 36.5625 245.4375 Z M 13.511719 86.910156 " clip-rule="nonzero"/></clipPath><clipPath id="777a930b8f"><path d="M 13.511719 86.910156 L 344.667969 38.753906 L 367.78125 197.710938 L 36.625 245.863281 Z M 13.511719 86.910156 " clip-rule="nonzero"/></clipPath><clipPath id="45975b1120"><path d="M 25.4375 85.175781 L 332.734375 40.488281 C 339.320312 39.53125 345.4375 44.09375 346.394531 50.683594 L 365.933594 185.054688 C 366.890625 191.640625 362.328125 197.757812 355.742188 198.714844 L 48.445312 243.402344 C 41.859375 244.359375 35.742188 239.796875 34.785156 233.207031 L 15.246094 98.835938 C 14.289062 92.246094 18.851562 86.132812 25.4375 85.175781 Z M 25.4375 85.175781 " clip-rule="nonzero"/></clipPath><clipPath id="140c970ccd"><path d="M 8 34 L 360 34 L 360 238 L 8 238 Z M 8 34 " clip-rule="nonzero"/></clipPath><clipPath id="00e23d6a6c"><path d="M 7.324219 81.050781 L 338.621094 32.878906 L 361.628906 191.109375 L 30.332031 239.28125 Z M 7.324219 81.050781 " clip-rule="nonzero"/></clipPath><clipPath id="f959158a50"><path d="M 19.25 79.316406 L 326.554688 34.632812 C 333.140625 33.671875 339.257812 38.238281 340.214844 44.824219 L 359.757812 179.203125 C 360.714844 185.789062 356.152344 191.90625 349.5625 192.863281 L 42.257812 237.546875 C 35.671875 238.507812 29.554688 233.941406 28.597656 227.355469 L 9.058594 92.976562 C 8.101562 86.390625 12.664062 80.273438 19.25 79.316406 Z M 19.25 79.316406 " clip-rule="nonzero"/></clipPath><clipPath id="3b926391db"><path d="M 0.0234375 0 L 352 0 L 352 204 L 0.0234375 204 Z M 0.0234375 0 " clip-rule="nonzero"/></clipPath><clipPath id="e26324e8db"><path d="M -0.675781 47.050781 L 330.621094 -1.121094 L 353.628906 157.109375 L 22.332031 205.28125 Z M -0.675781 47.050781 " clip-rule="nonzero"/></clipPath><clipPath id="90bd9ab155"><path d="M 11.25 45.316406 L 318.554688 0.632812 C 325.140625 -0.328125 331.257812 4.238281 332.214844 10.824219 L 351.757812 145.203125 C 352.714844 151.789062 348.152344 157.90625 341.5625 158.863281 L 34.257812 203.546875 C 27.671875 204.507812 21.554688 199.941406 20.597656 193.355469 L 1.058594 58.976562 C 0.101562 52.390625 4.664062 46.273438 11.25 45.316406 Z M 11.25 45.316406 " clip-rule="nonzero"/></clipPath><clipPath id="3aefcb009c"><rect x="0" width="352" y="0" height="204"/></clipPath><clipPath id="614272a816"><path d="M 8 34 L 360 34 L 360 238 L 8 238 Z M 8 34 " clip-rule="nonzero"/></clipPath><clipPath id="a29f823200"><path d="M 7.324219 81.050781 L 338.453125 32.902344 L 361.507812 191.429688 L 30.375 239.578125 Z M 7.324219 81.050781 " clip-rule="nonzero"/></clipPath><clipPath id="83d8ffac5e"><path d="M 7.328125 81.050781 L 338.480469 32.898438 L 361.59375 191.851562 L 30.441406 240.003906 Z M 7.328125 81.050781 " clip-rule="nonzero"/></clipPath><clipPath id="64cd0d29fa"><path d="M 19.253906 79.316406 L 326.550781 34.632812 C 333.136719 33.675781 339.25 38.238281 340.210938 44.824219 L 359.75 179.199219 C 360.707031 185.785156 356.144531 191.902344 349.558594 192.859375 L 42.261719 237.542969 C 35.675781 238.5 29.558594 233.9375 28.601562 227.351562 L 9.0625 92.976562 C 8.101562 86.390625 12.667969 80.273438 19.253906 79.316406 Z M 19.253906 79.316406 " clip-rule="nonzero"/></clipPath><clipPath id="aa93880acc"><path d="M 32 63 L 341 63 L 341 220 L 32 220 Z M 32 63 " clip-rule="nonzero"/></clipPath><clipPath id="663d452f5e"><path d="M 31.042969 104.382812 L 325.214844 61.605469 L 342.21875 178.546875 L 48.046875 221.320312 Z M 31.042969 104.382812 " clip-rule="nonzero"/></clipPath><clipPath id="419d75df25"><path d="M 42.96875 102.648438 L 313.171875 63.359375 C 319.757812 62.402344 325.875 66.964844 326.832031 73.550781 L 340.367188 166.636719 C 341.324219 173.222656 336.761719 179.339844 330.175781 180.296875 L 59.972656 219.585938 C 53.386719 220.546875 47.269531 215.980469 46.3125 209.394531 L 32.777344 116.308594 C 31.820312 109.722656 36.382812 103.605469 42.96875 102.648438 Z M 42.96875 102.648438 " clip-rule="nonzero"/></clipPath><clipPath id="0e47ddbfa9"><path d="M 0 0 L 309 0 L 309 157 L 0 157 Z M 0 0 " clip-rule="nonzero"/></clipPath><clipPath id="6b9fe6e185"><path d="M -0.957031 41.382812 L 293.214844 -1.394531 L 310.21875 115.546875 L 16.046875 158.320312 Z M -0.957031 41.382812 " clip-rule="nonzero"/></clipPath><clipPath id="c9ffd23803"><path d="M 10.96875 39.648438 L 281.171875 0.359375 C 287.757812 -0.597656 293.875 3.964844 294.832031 10.550781 L 308.367188 103.636719 C 309.324219 110.222656 304.761719 116.339844 298.175781 117.296875 L 27.972656 156.585938 C 21.386719 157.546875 15.269531 152.980469 14.3125 146.394531 L 0.777344 53.308594 C -0.179688 46.722656 4.382812 40.605469 10.96875 39.648438 Z M 10.96875 39.648438 " clip-rule="nonzero"/></clipPath><clipPath id="51d8d849f7"><rect x="0" width="309" y="0" height="157"/></clipPath><clipPath id="6ac5a980f9"><path d="M 32 63 L 341 63 L 341 220 L 32 220 Z M 32 63 " clip-rule="nonzero"/></clipPath><clipPath id="1e635551b5"><path d="M 31.042969 104.382812 L 325.132812 61.617188 L 342.152344 178.664062 L 48.0625 221.425781 Z M 31.042969 104.382812 " clip-rule="nonzero"/></clipPath><clipPath id="32ee118d25"><path d="M 31.050781 104.382812 L 326.234375 61.460938 L 343.292969 178.777344 L 48.109375 221.699219 Z M 31.050781 104.382812 " clip-rule="nonzero"/></clipPath><clipPath id="89e787f7fd"><path d="M 42.976562 102.648438 L 313.152344 63.359375 C 319.738281 62.402344 325.855469 66.964844 326.8125 73.550781 L 340.347656 166.628906 C 341.304688 173.214844 336.742188 179.332031 330.15625 180.289062 L 59.976562 219.574219 C 53.390625 220.535156 47.277344 215.972656 46.316406 209.382812 L 32.785156 116.308594 C 31.824219 109.722656 36.390625 103.605469 42.976562 102.648438 Z M 42.976562 102.648438 " clip-rule="nonzero"/></clipPath><clipPath id="50d1d29710"><path d="M 20 4 L 49 4 L 49 65 L 20 65 Z M 20 4 " clip-rule="nonzero"/></clipPath><clipPath id="7b6a5ae7a7"><path d="M 20.9375 7.71875 L 37.515625 4.5 L 48.582031 61.472656 L 32.003906 64.691406 Z M 20.9375 7.71875 " clip-rule="nonzero"/></clipPath><clipPath id="5bc7a2ecd3"><path d="M 0.84375 0.269531 L 28.628906 0.269531 L 28.628906 60.875 L 0.84375 60.875 Z M 0.84375 0.269531 " clip-rule="nonzero"/></clipPath><clipPath id="f92a3f7f2e"><path d="M 0.9375 3.71875 L 17.515625 0.5 L 28.582031 57.472656 L 12.003906 60.691406 Z M 0.9375 3.71875 " clip-rule="nonzero"/></clipPath><clipPath id="800889fa10"><rect x="0" width="29" y="0" height="61"/></clipPath><clipPath id="8ac002df8b"><path d="M 4 20 L 65 20 L 65 49 L 4 49 Z M 4 20 " clip-rule="nonzero"/></clipPath><clipPath id="f04d697834"><path d="M 7.882812 48.414062 L 4.660156 31.835938 L 61.632812 20.773438 L 64.851562 37.351562 Z M 7.882812 48.414062 " clip-rule="nonzero"/></clipPath><clipPath id="70b8bc83d8"><path d="M 0.554688 0.558594 L 60.917969 0.558594 L 60.917969 28.585938 L 0.554688 28.585938 Z M 0.554688 0.558594 " clip-rule="nonzero"/></clipPath><clipPath id="e8611dec13"><path d="M 3.882812 28.414062 L 0.660156 11.835938 L 57.632812 0.773438 L 60.851562 17.351562 Z M 3.882812 28.414062 " clip-rule="nonzero"/></clipPath><clipPath id="750c30d450"><rect x="0" width="61" y="0" height="29"/></clipPath><clipPath id="3d6ba6bae0"><rect x="0" width="69" y="0" height="69"/></clipPath><clipPath id="3a1e9ea0f0"><path d="M 21 4 L 49 4 L 49 65 L 21 65 Z M 21 4 " clip-rule="nonzero"/></clipPath><clipPath id="2663f8c97c"><path d="M 21.03125 7.886719 L 37.609375 4.667969 L 48.675781 61.640625 L 32.097656 64.859375 Z M 21.03125 7.886719 " clip-rule="nonzero"/></clipPath><clipPath id="0c8cf6d609"><path d="M 0 0.4375 L 27.753906 0.4375 L 27.753906 61 L 0 61 Z M 0 0.4375 " clip-rule="nonzero"/></clipPath><clipPath id="cefa0b53ec"><path d="M 0.03125 3.886719 L 16.609375 0.667969 L 27.675781 57.640625 L 11.097656 60.859375 Z M 0.03125 3.886719 " clip-rule="nonzero"/></clipPath><clipPath id="dee56d7a48"><rect x="0" width="28" y="0" height="61"/></clipPath><clipPath id="5d61fdcbf5"><path d="M 4 20 L 65 20 L 65 49 L 4 49 Z M 4 20 " clip-rule="nonzero"/></clipPath><clipPath id="348998ba0e"><path d="M 7.976562 48.585938 L 4.753906 32.007812 L 61.726562 20.941406 L 64.945312 37.519531 Z M 7.976562 48.585938 " clip-rule="nonzero"/></clipPath><clipPath id="b9e8e98413"><path d="M 0.679688 0.726562 L 61 0.726562 L 61 28.753906 L 0.679688 28.753906 Z M 0.679688 0.726562 " clip-rule="nonzero"/></clipPath><clipPath id="3bd45fce29"><path d="M 3.976562 28.585938 L 0.753906 12.007812 L 57.726562 0.941406 L 60.945312 17.519531 Z M 3.976562 28.585938 " clip-rule="nonzero"/></clipPath><clipPath id="19f67af335"><rect x="0" width="61" y="0" height="29"/></clipPath><clipPath id="417b013017"><rect x="0" width="70" y="0" height="69"/></clipPath><clipPath id="5cce396558"><path d="M 255 116 L 276 116 L 276 136 L 255 136 Z M 255 116 " clip-rule="nonzero"/></clipPath><clipPath id="ec86f4d476"><path d="M 254.441406 117.558594 L 274.144531 114.695312 L 277.007812 134.398438 L 257.304688 137.261719 Z M 254.441406 117.558594 " clip-rule="nonzero"/></clipPath><clipPath id="5d5909bbed"><path d="M 264.292969 116.125 C 258.851562 116.917969 255.082031 121.96875 255.871094 127.410156 C 256.664062 132.851562 261.714844 136.621094 267.15625 135.832031 C 272.597656 135.039062 276.367188 129.988281 275.578125 124.546875 C 274.785156 119.105469 269.734375 115.335938 264.292969 116.125 Z M 264.292969 116.125 " clip-rule="nonzero"/></clipPath><clipPath id="248848d4ff"><path d="M 0 0 L 21 0 L 21 20 L 0 20 Z M 0 0 " clip-rule="nonzero"/></clipPath><clipPath id="5abaf610f4"><path d="M -0.558594 1.558594 L 19.144531 -1.304688 L 22.007812 18.398438 L 2.304688 21.261719 Z M -0.558594 1.558594 " clip-rule="nonzero"/></clipPath><clipPath id="84bea644cb"><path d="M 9.292969 0.125 C 3.851562 0.917969 0.0820312 5.96875 0.871094 11.410156 C 1.664062 16.851562 6.714844 20.621094 12.15625 19.832031 C 17.597656 19.039062 21.367188 13.988281 20.578125 8.546875 C 19.785156 3.105469 14.734375 -0.664062 9.292969 0.125 Z M 9.292969 0.125 " clip-rule="nonzero"/></clipPath><clipPath id="607388aded"><rect x="0" width="21" y="0" height="20"/></clipPath><clipPath id="01ac56d80e"><path d="M 260 121 L 272 121 L 272 132 L 260 132 Z M 260 121 " clip-rule="nonzero"/></clipPath><clipPath id="9a5fe1509d"><path d="M 260.867188 122.441406 L 270.5 121.039062 L 271.792969 129.929688 L 262.160156 131.328125 Z M 260.867188 122.441406 " clip-rule="nonzero"/></clipPath><clipPath id="21d97d5441"><path d="M 260.871094 122.441406 L 270.785156 120.996094 L 272.046875 129.667969 L 262.132812 131.109375 Z M 260.871094 122.441406 " clip-rule="nonzero"/></clipPath><clipPath id="b061f448bf"><path d="M 270 93 L 291 93 L 291 114 L 270 114 Z M 270 93 " clip-rule="nonzero"/></clipPath><clipPath id="8d7969cf56"><path d="M 269.308594 94.988281 L 289.011719 92.125 L 291.878906 111.828125 L 272.175781 114.695312 Z M 269.308594 94.988281 " clip-rule="nonzero"/></clipPath><clipPath id="de95ece85b"><path d="M 279.160156 93.558594 C 273.71875 94.347656 269.949219 99.402344 270.742188 104.839844 C 271.53125 110.28125 276.585938 114.050781 282.027344 113.261719 C 287.46875 112.46875 291.238281 107.417969 290.445312 101.976562 C 289.65625 96.535156 284.601562 92.765625 279.160156 93.558594 Z M 279.160156 93.558594 " clip-rule="nonzero"/></clipPath><clipPath id="d8cc12836a"><path d="M 0 0 L 21 0 L 21 21 L 0 21 Z M 0 0 " clip-rule="nonzero"/></clipPath><clipPath id="2bbc2dfe7a"><path d="M -0.691406 1.988281 L 19.011719 -0.875 L 21.878906 18.828125 L 2.175781 21.695312 Z M -0.691406 1.988281 " clip-rule="nonzero"/></clipPath><clipPath id="6b6139f915"><path d="M 9.160156 0.558594 C 3.71875 1.347656 -0.0507812 6.402344 0.742188 11.839844 C 1.53125 17.28125 6.585938 21.050781 12.027344 20.261719 C 17.46875 19.46875 21.238281 14.417969 20.445312 8.976562 C 19.65625 3.535156 14.601562 -0.234375 9.160156 0.558594 Z M 9.160156 0.558594 " clip-rule="nonzero"/></clipPath><clipPath id="c115b8c459"><rect x="0" width="21" y="0" height="21"/></clipPath><clipPath id="e6b8066b62"><path d="M 275 97 L 288 97 L 288 109 L 275 109 Z M 275 97 " clip-rule="nonzero"/></clipPath><clipPath id="73593d9ac1"><path d="M 274.03125 98.808594 L 285.882812 97.082031 L 287.390625 107.453125 L 275.539062 109.179688 Z M 274.03125 98.808594 " clip-rule="nonzero"/></clipPath><clipPath id="b222311d9f"><path d="M 274.03125 98.808594 L 285.664062 97.117188 L 287.144531 107.296875 L 275.511719 108.988281 Z M 274.03125 98.808594 " clip-rule="nonzero"/></clipPath><clipPath id="5543500264"><path d="M 279.847656 97.964844 L 287.144531 107.296875 L 275.511719 108.988281 Z M 279.847656 97.964844 " clip-rule="nonzero"/></clipPath><clipPath id="8f2b953eaf"><path d="M 276 133 L 297 133 L 297 154 L 276 154 Z M 276 133 " clip-rule="nonzero"/></clipPath><clipPath id="79fbb7d787"><path d="M 275.109375 134.871094 L 294.8125 132.007812 L 297.675781 151.710938 L 277.972656 154.574219 Z M 275.109375 134.871094 " clip-rule="nonzero"/></clipPath><clipPath id="62d8b91ead"><path d="M 284.960938 133.4375 C 279.519531 134.230469 275.75 139.28125 276.539062 144.722656 C 277.332031 150.164062 282.382812 153.933594 287.824219 153.144531 C 293.265625 152.351562 297.035156 147.300781 296.246094 141.859375 C 295.453125 136.417969 290.402344 132.648438 284.960938 133.4375 Z M 284.960938 133.4375 " clip-rule="nonzero"/></clipPath><clipPath id="e73833409c"><path d="M 0 0 L 21 0 L 21 21 L 0 21 Z M 0 0 " clip-rule="nonzero"/></clipPath><clipPath id="aa657aa8a4"><path d="M -0.890625 1.871094 L 18.8125 -0.992188 L 21.675781 18.710938 L 1.972656 21.574219 Z M -0.890625 1.871094 " clip-rule="nonzero"/></clipPath><clipPath id="d74e6fe3c3"><path d="M 8.960938 0.4375 C 3.519531 1.230469 -0.25 6.28125 0.539062 11.722656 C 1.332031 17.164062 6.382812 20.933594 11.824219 20.144531 C 17.265625 19.351562 21.035156 14.300781 20.246094 8.859375 C 19.453125 3.417969 14.402344 -0.351562 8.960938 0.4375 Z M 8.960938 0.4375 " clip-rule="nonzero"/></clipPath><clipPath id="9517a5318a"><rect x="0" width="21" y="0" height="21"/></clipPath><clipPath id="c64bc4f52b"><path d="M 280 137 L 293 137 L 293 149 L 280 149 Z M 280 137 " clip-rule="nonzero"/></clipPath><clipPath id="bad79adb3e"><path d="M 280 138.523438 L 291.113281 136.90625 L 292.726562 148.019531 L 281.617188 149.632812 Z M 280 138.523438 " clip-rule="nonzero"/></clipPath><clipPath id="e6be6abbae"><path d="M 280 138.523438 L 291.160156 136.898438 L 292.78125 148.058594 L 281.621094 149.679688 Z M 280 138.523438 " clip-rule="nonzero"/></clipPath><clipPath id="c3f60e65f5"><path d="M 285.578125 137.710938 C 282.5 138.160156 280.363281 141.019531 280.8125 144.101562 C 281.257812 147.183594 284.121094 149.316406 287.203125 148.867188 C 290.28125 148.421875 292.417969 145.558594 291.96875 142.476562 C 291.523438 139.398438 288.660156 137.261719 285.578125 137.710938 Z M 285.578125 137.710938 " clip-rule="nonzero"/></clipPath><clipPath id="233155a683"><path d="M 137 93 L 232 93 L 232 123 L 137 123 Z M 137 93 " clip-rule="nonzero"/></clipPath><clipPath id="741cd8c61d"><path d="M 137.851562 106.933594 L 229.539062 93.601562 L 231.828125 109.347656 L 140.140625 122.679688 Z M 137.851562 106.933594 " clip-rule="nonzero"/></clipPath><clipPath id="3f4db49ec0"><path d="M 0.613281 0.421875 L 94.996094 0.421875 L 94.996094 29.886719 L 0.613281 29.886719 Z M 0.613281 0.421875 " clip-rule="nonzero"/></clipPath><clipPath id="79609e01aa"><path d="M 0.851562 13.933594 L 92.539062 0.601562 L 94.828125 16.347656 L 3.140625 29.679688 Z M 0.851562 13.933594 " clip-rule="nonzero"/></clipPath><clipPath id="84be6c10b9"><rect x="0" width="95" y="0" height="30"/></clipPath><clipPath id="e623c742df"><path d="M 137 93 L 232 93 L 232 123 L 137 123 Z M 137 93 " clip-rule="nonzero"/></clipPath><clipPath id="8c96c10ccc"><path d="M 137.851562 106.933594 L 229.710938 93.578125 L 231.972656 109.132812 L 140.113281 122.492188 Z M 137.851562 106.933594 " clip-rule="nonzero"/></clipPath><clipPath id="16a95da91d"><path d="M 137.855469 106.933594 L 229.53125 93.601562 L 231.820312 109.34375 L 140.144531 122.675781 Z M 137.855469 106.933594 " clip-rule="nonzero"/></clipPath><clipPath id="5297fc4f13"><path d="M 141 123 L 187 123 L 187 146 L 141 146 Z M 141 123 " clip-rule="nonzero"/></clipPath><clipPath id="203d77f495"><path d="M 141.398438 129.984375 L 184.28125 123.746094 L 186.570312 139.492188 L 143.6875 145.726562 Z M 141.398438 129.984375 " clip-rule="nonzero"/></clipPath><clipPath id="195ca537db"><path d="M 0.207031 0.605469 L 45.722656 0.605469 L 45.722656 22.882812 L 0.207031 22.882812 Z M 0.207031 0.605469 " clip-rule="nonzero"/></clipPath><clipPath id="eed886517a"><path d="M 0.398438 6.984375 L 43.28125 0.746094 L 45.570312 16.492188 L 2.6875 22.726562 Z M 0.398438 6.984375 " clip-rule="nonzero"/></clipPath><clipPath id="724f692e69"><rect x="0" width="46" y="0" height="23"/></clipPath><clipPath id="7f1e1a61ce"><path d="M 141 123 L 187 123 L 187 146 L 141 146 Z M 141 123 " clip-rule="nonzero"/></clipPath><clipPath id="3cea523dda"><path d="M 141.398438 129.984375 L 184.363281 123.734375 L 186.625 139.292969 L 143.660156 145.539062 Z M 141.398438 129.984375 " clip-rule="nonzero"/></clipPath><clipPath id="301128a99f"><path d="M 141.402344 129.980469 L 184.277344 123.746094 L 186.566406 139.488281 L 143.691406 145.722656 Z M 141.402344 129.980469 " clip-rule="nonzero"/></clipPath><clipPath id="3acf81a7f6"><path d="M 144 139 L 239 139 L 239 169 L 144 169 Z M 144 139 " clip-rule="nonzero"/></clipPath><clipPath id="f6ac3e9775"><path d="M 144.9375 152.984375 L 236.625 139.652344 L 238.914062 155.398438 L 147.226562 168.730469 Z M 144.9375 152.984375 " clip-rule="nonzero"/></clipPath><clipPath id="83e497defa"><path d="M 0.800781 0.414062 L 94.941406 0.414062 L 94.941406 29.878906 L 0.800781 29.878906 Z M 0.800781 0.414062 " clip-rule="nonzero"/></clipPath><clipPath id="bce8796d21"><path d="M 0.9375 13.984375 L 92.625 0.652344 L 94.914062 16.398438 L 3.226562 29.730469 Z M 0.9375 13.984375 " clip-rule="nonzero"/></clipPath><clipPath id="057811a491"><rect x="0" width="95" y="0" height="30"/></clipPath><clipPath id="cb8fcb8ba3"><path d="M 144 139 L 239 139 L 239 169 L 144 169 Z M 144 139 " clip-rule="nonzero"/></clipPath><clipPath id="ebbe7108bc"><path d="M 144.9375 152.984375 L 236.792969 139.628906 L 239.054688 155.183594 L 147.199219 168.542969 Z M 144.9375 152.984375 " clip-rule="nonzero"/></clipPath><clipPath id="cb8bb7f003"><path d="M 144.941406 152.984375 L 236.617188 139.65625 L 238.90625 155.394531 L 147.230469 168.726562 Z M 144.941406 152.984375 " clip-rule="nonzero"/></clipPath><clipPath id="f036ee58fd"><path d="M 54 101 L 95 101 L 95 115 L 54 115 Z M 54 101 " clip-rule="nonzero"/></clipPath><clipPath id="fba65d5087"><path d="M 54.554688 107.242188 L 93.699219 101.550781 L 94.757812 108.832031 L 55.613281 114.523438 Z M 54.554688 107.242188 " clip-rule="nonzero"/></clipPath><clipPath id="7b1cd3a9fb"><path d="M 0.492188 0.328125 L 40.976562 0.328125 L 40.976562 13.742188 L 0.492188 13.742188 Z M 0.492188 0.328125 " clip-rule="nonzero"/></clipPath><clipPath id="a9ef67b7ef"><path d="M 0.554688 6.242188 L 39.699219 0.550781 L 40.757812 7.832031 L 1.613281 13.523438 Z M 0.554688 6.242188 " clip-rule="nonzero"/></clipPath><clipPath id="bd31aa2bc6"><rect x="0" width="41" y="0" height="14"/></clipPath><clipPath id="56ec878894"><path d="M 150 162 L 242 162 L 242 191 L 150 191 Z M 150 162 " clip-rule="nonzero"/></clipPath><clipPath id="65f7cb1472"><path d="M 149.03125 174.253906 L 239.890625 161.042969 L 242.4375 178.570312 L 151.582031 191.785156 Z M 149.03125 174.253906 " clip-rule="nonzero"/></clipPath><clipPath id="18c225a849"><path d="M 157.796875 172.980469 L 231.09375 162.324219 C 235.933594 161.617188 240.429688 164.972656 241.132812 169.8125 C 241.835938 174.652344 238.484375 179.148438 233.644531 179.851562 L 160.34375 190.507812 C 155.503906 191.214844 151.011719 187.859375 150.304688 183.019531 C 149.601562 178.179688 152.957031 173.683594 157.796875 172.980469 Z M 157.796875 172.980469 " clip-rule="nonzero"/></clipPath><clipPath id="00e5f19773"><path d="M 0 0 L 92 0 L 92 29 L 0 29 Z M 0 0 " clip-rule="nonzero"/></clipPath><clipPath id="402c2cafc6"><path d="M -0.96875 12.253906 L 89.890625 -0.957031 L 92.4375 16.570312 L 1.582031 29.785156 Z M -0.96875 12.253906 " clip-rule="nonzero"/></clipPath><clipPath id="ebedc512d3"><path d="M 7.796875 10.980469 L 81.09375 0.324219 C 85.933594 -0.382812 90.429688 2.972656 91.132812 7.8125 C 91.835938 12.652344 88.484375 17.148438 83.644531 17.851562 L 10.34375 28.507812 C 5.503906 29.214844 1.011719 25.859375 0.304688 21.019531 C -0.398438 16.179688 2.957031 11.683594 7.796875 10.980469 Z M 7.796875 10.980469 " clip-rule="nonzero"/></clipPath><clipPath id="4e979f015b"><rect x="0" width="92" y="0" height="29"/></clipPath><clipPath id="e72b2e50e1"><path d="M 150 162 L 242 162 L 242 191 L 150 191 Z M 150 162 " clip-rule="nonzero"/></clipPath><clipPath id="6012c57e9e"><path d="M 149.03125 174.253906 L 240.148438 161.007812 L 242.734375 178.785156 L 151.617188 192.035156 Z M 149.03125 174.253906 " clip-rule="nonzero"/></clipPath><clipPath id="fd0ef697ce"><path d="M 149.035156 174.253906 L 239.851562 161.050781 L 242.601562 179.96875 L 151.789062 193.175781 Z M 149.035156 174.253906 " clip-rule="nonzero"/></clipPath><clipPath id="4a05592c4c"><path d="M 157.796875 172.980469 L 231.082031 162.324219 C 235.921875 161.621094 240.414062 164.972656 241.117188 169.8125 C 241.820312 174.652344 238.46875 179.144531 233.628906 179.847656 L 160.347656 190.503906 C 155.507812 191.207031 151.015625 187.855469 150.308594 183.015625 C 149.605469 178.179688 152.960938 173.683594 157.796875 172.980469 Z M 157.796875 172.980469 " clip-rule="nonzero"/></clipPath><clipPath id="54254f6215"><path d="M 83 25 L 143 25 L 143 85 L 83 85 Z M 83 25 " clip-rule="nonzero"/></clipPath><clipPath id="725cdbf626"><path d="M 79.707031 30.484375 L 137.882812 22.023438 L 146.339844 80.199219 L 88.167969 88.65625 Z M 79.707031 30.484375 " clip-rule="nonzero"/></clipPath><clipPath id="71b33558e8"><path d="M 108.792969 26.253906 C 92.730469 28.589844 81.601562 43.503906 83.9375 59.570312 C 86.273438 75.632812 101.1875 86.761719 117.253906 84.425781 C 133.316406 82.089844 144.445312 67.175781 142.109375 51.109375 C 139.773438 35.046875 124.859375 23.917969 108.792969 26.253906 Z M 108.792969 26.253906 " clip-rule="nonzero"/></clipPath><clipPath id="d42d81042f"><path d="M 0 0 L 60 0 L 60 60 L 0 60 Z M 0 0 " clip-rule="nonzero"/></clipPath><clipPath id="99dd4bf7a0"><path d="M -3.292969 5.484375 L 54.882812 -2.976562 L 63.339844 55.199219 L 5.167969 63.65625 Z M -3.292969 5.484375 " clip-rule="nonzero"/></clipPath><clipPath id="5942b51be7"><path d="M 25.792969 1.253906 C 9.730469 3.589844 -1.398438 18.503906 0.9375 34.570312 C 3.273438 50.632812 18.1875 61.761719 34.253906 59.425781 C 50.316406 57.089844 61.445312 42.175781 59.109375 26.109375 C 56.773438 10.046875 41.859375 -1.082031 25.792969 1.253906 Z M 25.792969 1.253906 " clip-rule="nonzero"/></clipPath><clipPath id="41f0b12a1e"><rect x="0" width="60" y="0" height="60"/></clipPath><clipPath id="874a885529"><path d="M 83 25 L 143 25 L 143 85 L 83 85 Z M 83 25 " clip-rule="nonzero"/></clipPath><clipPath id="3b7138617d"><path d="M 79.707031 30.484375 L 138.230469 21.972656 L 146.738281 80.496094 L 88.21875 89.003906 Z M 79.707031 30.484375 " clip-rule="nonzero"/></clipPath><clipPath id="bb798d8c48"><path d="M 79.707031 30.484375 L 137.871094 22.027344 L 146.328125 80.1875 L 88.164062 88.644531 Z M 79.707031 30.484375 " clip-rule="nonzero"/></clipPath><clipPath id="cd5ff7d39e"><path d="M 108.789062 26.253906 C 92.726562 28.589844 81.601562 43.503906 83.9375 59.566406 C 86.273438 75.625 101.1875 86.753906 117.246094 84.417969 C 133.308594 82.082031 144.433594 67.167969 142.101562 51.105469 C 139.765625 35.046875 124.851562 23.917969 108.789062 26.253906 Z M 108.789062 26.253906 " clip-rule="nonzero"/></clipPath><clipPath id="95f75c3e9f"><path d="M 193 8 L 252 8 L 252 68 L 193 68 Z M 193 8 " clip-rule="nonzero"/></clipPath><clipPath id="0be04a5995"><path d="M 189.289062 13.113281 L 247.460938 4.652344 L 255.921875 62.828125 L 197.746094 71.285156 Z M 189.289062 13.113281 " clip-rule="nonzero"/></clipPath><clipPath id="44d642b51e"><path d="M 218.375 8.882812 C 202.308594 11.21875 191.179688 26.136719 193.515625 42.199219 C 195.851562 58.261719 210.769531 69.390625 226.832031 67.054688 C 242.898438 64.71875 254.027344 49.804688 251.691406 33.738281 C 249.355469 17.675781 234.4375 6.546875 218.375 8.882812 Z M 218.375 8.882812 " clip-rule="nonzero"/></clipPath><clipPath id="48b0ab2358"><path d="M 0 0 L 59 0 L 59 60 L 0 60 Z M 0 0 " clip-rule="nonzero"/></clipPath><clipPath id="0044d753cc"><path d="M -3.710938 5.113281 L 54.460938 -3.347656 L 62.921875 54.828125 L 4.746094 63.285156 Z M -3.710938 5.113281 " clip-rule="nonzero"/></clipPath><clipPath id="4075cd3910"><path d="M 25.375 0.882812 C 9.308594 3.21875 -1.820312 18.136719 0.515625 34.199219 C 2.851562 50.261719 17.769531 61.390625 33.832031 59.054688 C 49.898438 56.71875 61.027344 41.804688 58.691406 25.738281 C 56.355469 9.675781 41.4375 -1.453125 25.375 0.882812 Z M 25.375 0.882812 " clip-rule="nonzero"/></clipPath><clipPath id="d09124eab2"><rect x="0" width="59" y="0" height="60"/></clipPath><clipPath id="5d0600f707"><path d="M 193 8 L 252 8 L 252 68 L 193 68 Z M 193 8 " clip-rule="nonzero"/></clipPath><clipPath id="21d31d1ca5"><path d="M 189.289062 13.113281 L 247.808594 4.601562 L 256.320312 63.125 L 197.796875 71.632812 Z M 189.289062 13.113281 " clip-rule="nonzero"/></clipPath><clipPath id="58429e9211"><path d="M 189.289062 13.113281 L 247.449219 4.65625 L 255.910156 62.816406 L 197.746094 71.277344 Z M 189.289062 13.113281 " clip-rule="nonzero"/></clipPath><clipPath id="65e9eccd3b"><path d="M 218.371094 8.882812 C 202.308594 11.21875 191.179688 26.132812 193.515625 42.195312 C 195.851562 58.253906 210.765625 69.382812 226.828125 67.046875 C 242.886719 64.710938 254.015625 49.796875 251.679688 33.738281 C 249.34375 17.675781 234.429688 6.546875 218.371094 8.882812 Z M 218.371094 8.882812 " clip-rule="nonzero"/></clipPath><clipPath id="a5ce918065"><path d="M 97 37 L 144 37 L 144 84 L 97 84 Z M 97 37 " clip-rule="nonzero"/></clipPath><clipPath id="579f8ad6d6"><path d="M 94.503906 41.523438 L 139.757812 34.941406 L 146.339844 80.199219 L 101.085938 86.777344 Z M 94.503906 41.523438 " clip-rule="nonzero"/></clipPath><clipPath id="31c8e002b2"><path d="M 117.132812 38.234375 C 104.636719 40.050781 95.976562 51.652344 97.796875 64.152344 C 99.613281 76.648438 111.214844 85.304688 123.710938 83.488281 C 136.210938 81.671875 144.867188 70.066406 143.050781 57.570312 C 141.234375 45.074219 129.628906 36.417969 117.132812 38.234375 Z M 117.132812 38.234375 " clip-rule="nonzero"/></clipPath><clipPath id="1baaba545c"><path d="M 0 0 L 47 0 L 47 47 L 0 47 Z M 0 0 " clip-rule="nonzero"/></clipPath><clipPath id="e73c31da7f"><path d="M -2.496094 4.523438 L 42.757812 -2.058594 L 49.339844 43.199219 L 4.085938 49.777344 Z M -2.496094 4.523438 " clip-rule="nonzero"/></clipPath><clipPath id="87919ce222"><path d="M 20.132812 1.234375 C 7.636719 3.050781 -1.023438 14.652344 0.796875 27.152344 C 2.613281 39.648438 14.214844 48.304688 26.710938 46.488281 C 39.210938 44.671875 47.867188 33.066406 46.050781 20.570312 C 44.234375 8.074219 32.628906 -0.582031 20.132812 1.234375 Z M 20.132812 1.234375 " clip-rule="nonzero"/></clipPath><clipPath id="c293145c76"><rect x="0" width="47" y="0" height="47"/></clipPath><clipPath id="43cf9243bf"><path d="M 206 17 L 253 17 L 253 64 L 206 64 Z M 206 17 " clip-rule="nonzero"/></clipPath><clipPath id="cfdfc21681"><path d="M 203.632812 21.050781 L 248.886719 14.46875 L 255.46875 59.722656 L 210.214844 66.304688 Z M 203.632812 21.050781 " clip-rule="nonzero"/></clipPath><clipPath id="63b620186e"><path d="M 226.261719 17.757812 C 213.765625 19.574219 205.105469 31.179688 206.925781 43.675781 C 208.742188 56.171875 220.34375 64.832031 232.839844 63.011719 C 245.339844 61.195312 253.996094 49.59375 252.179688 37.09375 C 250.359375 24.597656 238.757812 15.941406 226.261719 17.757812 Z M 226.261719 17.757812 " clip-rule="nonzero"/></clipPath><clipPath id="e793afe58f"><path d="M 0 0 L 47 0 L 47 47 L 0 47 Z M 0 0 " clip-rule="nonzero"/></clipPath><clipPath id="49ffe42ed5"><path d="M -2.367188 4.050781 L 42.886719 -2.53125 L 49.46875 42.722656 L 4.214844 49.304688 Z M -2.367188 4.050781 " clip-rule="nonzero"/></clipPath><clipPath id="4de35d650e"><path d="M 20.261719 0.757812 C 7.765625 2.574219 -0.894531 14.179688 0.925781 26.675781 C 2.742188 39.171875 14.34375 47.832031 26.839844 46.011719 C 39.339844 44.195312 47.996094 32.59375 46.179688 20.09375 C 44.359375 7.597656 32.757812 -1.058594 20.261719 0.757812 Z M 20.261719 0.757812 " clip-rule="nonzero"/></clipPath><clipPath id="89bc2d1e2a"><rect x="0" width="47" y="0" height="47"/></clipPath><clipPath id="64cd22ab2d"><path d="M 152 61 L 189 61 L 189 82 L 152 82 Z M 152 61 " clip-rule="nonzero"/></clipPath><clipPath id="c3261f24fb"><path d="M 152.191406 66.4375 L 188.882812 61.101562 L 191.445312 78.726562 L 154.753906 84.0625 Z M 152.191406 66.4375 " clip-rule="nonzero"/></clipPath><clipPath id="d1498be728"><path d="M 166.824219 81.226562 C 168.796875 81.589844 170.996094 81.699219 173.089844 81.394531 C 175.1875 81.089844 177.152344 80.4375 178.921875 79.527344 C 178.957031 79.503906 178.996094 79.496094 179.03125 79.46875 C 185.644531 75.898438 189.804688 68.402344 188.847656 61.109375 L 152.191406 66.4375 C 153.355469 73.742188 159.398438 79.757812 166.824219 81.226562 Z M 166.824219 81.226562 " clip-rule="nonzero"/></clipPath><clipPath id="7ea9761107"><path d="M 0 0.0820312 L 37 0.0820312 L 37 20.925781 L 0 20.925781 Z M 0 0.0820312 " clip-rule="nonzero"/></clipPath><clipPath id="60c432f4a5"><path d="M 0.191406 5.4375 L 36.882812 0.101562 L 39.445312 17.726562 L 2.753906 23.0625 Z M 0.191406 5.4375 " clip-rule="nonzero"/></clipPath><clipPath id="ed0ba1c43e"><path d="M 14.824219 20.226562 C 16.796875 20.589844 18.996094 20.699219 21.089844 20.394531 C 23.1875 20.089844 25.152344 19.4375 26.921875 18.527344 C 26.957031 18.503906 26.996094 18.496094 27.03125 18.46875 C 33.644531 14.898438 37.804688 7.402344 36.847656 0.109375 L 0.191406 5.4375 C 1.355469 12.742188 7.398438 18.757812 14.824219 20.226562 Z M 14.824219 20.226562 " clip-rule="nonzero"/></clipPath><clipPath id="357ebda5b5"><rect x="0" width="37" y="0" height="21"/></clipPath><clipPath id="5741261831"><path d="M 152 61 L 189 61 L 189 82 L 152 82 Z M 152 61 " clip-rule="nonzero"/></clipPath><clipPath id="38af7ac2ef"><path d="M 152.191406 66.4375 L 188.488281 61.160156 L 191.074219 78.9375 L 154.777344 84.21875 Z M 152.191406 66.4375 " clip-rule="nonzero"/></clipPath><clipPath id="536f5ebc49"><path d="M 152.191406 66.4375 L 188.835938 61.109375 L 191.398438 78.726562 L 154.753906 84.054688 Z M 152.191406 66.4375 " clip-rule="nonzero"/></clipPath><clipPath id="16e4c33b9e"><path d="M 166.820312 81.21875 C 168.792969 81.585938 170.988281 81.695312 173.085938 81.390625 C 175.179688 81.085938 177.144531 80.433594 178.910156 79.523438 C 178.949219 79.496094 178.988281 79.492188 179.023438 79.464844 C 185.632812 75.894531 189.792969 68.398438 188.835938 61.109375 L 152.191406 66.4375 C 153.355469 73.738281 159.398438 79.75 166.820312 81.21875 Z M 166.820312 81.21875 " clip-rule="nonzero"/></clipPath><clipPath id="9e48d9bf2a"><path d="M 188 116 L 234 116 L 234 139 L 188 139 Z M 188 116 " clip-rule="nonzero"/></clipPath><clipPath id="bde577973b"><path d="M 188.554688 122.824219 L 231.441406 116.589844 L 233.730469 132.332031 L 190.84375 138.566406 Z M 188.554688 122.824219 " clip-rule="nonzero"/></clipPath><clipPath id="6e3b5ff703"><path d="M 0.398438 0.417969 L 45.910156 0.417969 L 45.910156 22.695312 L 0.398438 22.695312 Z M 0.398438 0.417969 " clip-rule="nonzero"/></clipPath><clipPath id="ba6998460d"><path d="M 0.554688 6.824219 L 43.441406 0.589844 L 45.730469 16.332031 L 2.84375 22.566406 Z M 0.554688 6.824219 " clip-rule="nonzero"/></clipPath><clipPath id="6b380efa44"><rect x="0" width="46" y="0" height="23"/></clipPath><clipPath id="af5548cf60"><path d="M 188 116 L 234 116 L 234 139 L 188 139 Z M 188 116 " clip-rule="nonzero"/></clipPath><clipPath id="f8c899805b"><path d="M 188.554688 122.824219 L 231.519531 116.578125 L 233.78125 132.132812 L 190.816406 138.378906 Z M 188.554688 122.824219 " clip-rule="nonzero"/></clipPath><clipPath id="3be94d1869"><path d="M 188.558594 122.824219 L 231.4375 116.589844 L 233.726562 132.332031 L 190.847656 138.566406 Z M 188.558594 122.824219 " clip-rule="nonzero"/></clipPath><clipPath id="7f9b535c89"><path d="M 2 2 L 28 2 L 28 28 L 2 28 Z M 2 2 " clip-rule="nonzero"/></clipPath><clipPath id="558bfca902"><path d="M 0.484375 4.453125 L 25.234375 0.855469 L 28.832031 25.605469 L 4.082031 29.203125 Z M 0.484375 4.453125 " clip-rule="nonzero"/></clipPath><clipPath id="976f8695f3"><path d="M 12.859375 2.652344 C 6.023438 3.648438 1.289062 9.992188 2.285156 16.828125 C 3.277344 23.664062 9.625 28.398438 16.457031 27.402344 C 23.292969 26.410156 28.027344 20.0625 27.035156 13.230469 C 26.039062 6.394531 19.695312 1.660156 12.859375 2.652344 Z M 12.859375 2.652344 " clip-rule="nonzero"/></clipPath><clipPath id="04c57b9b0a"><path d="M 0 0 L 26 0 L 26 26 L 0 26 Z M 0 0 " clip-rule="nonzero"/></clipPath><clipPath id="963927cdf5"><path d="M -1.515625 2.453125 L 23.234375 -1.144531 L 26.832031 23.605469 L 2.082031 27.203125 Z M -1.515625 2.453125 " clip-rule="nonzero"/></clipPath><clipPath id="7565ffe2fb"><path d="M 10.859375 0.652344 C 4.023438 1.648438 -0.710938 7.992188 0.285156 14.828125 C 1.277344 21.664062 7.625 26.398438 14.457031 25.402344 C 21.292969 24.410156 26.027344 18.0625 25.035156 11.230469 C 24.039062 4.394531 17.695312 -0.339844 10.859375 0.652344 Z M 10.859375 0.652344 " clip-rule="nonzero"/></clipPath><clipPath id="cbb83209a9"><rect x="0" width="26" y="0" height="26"/></clipPath><clipPath id="4495ff4996"><path d="M 8 7 L 22 7 L 22 22 L 8 22 Z M 8 7 " clip-rule="nonzero"/></clipPath><clipPath id="b27cd99d7f"><path d="M 17.691406 7.714844 L 21.035156 10.453125 L 11.621094 21.945312 L 8.277344 19.207031 Z M 17.691406 7.714844 " clip-rule="nonzero"/></clipPath><clipPath id="1106a5362c"><path d="M 0.152344 0.585938 L 13.085938 0.585938 L 13.085938 14.957031 L 0.152344 14.957031 Z M 0.152344 0.585938 " clip-rule="nonzero"/></clipPath><clipPath id="6758327c59"><path d="M 9.691406 0.714844 L 13.035156 3.453125 L 3.621094 14.945312 L 0.277344 12.207031 Z M 9.691406 0.714844 " clip-rule="nonzero"/></clipPath><clipPath id="a296fc6c5e"><rect x="0" width="14" y="0" height="15"/></clipPath><clipPath id="812ca13537"><path d="M 7 8 L 22 8 L 22 22 L 7 22 Z M 7 8 " clip-rule="nonzero"/></clipPath><clipPath id="5dd6b71591"><path d="M 7.546875 11.792969 L 10.285156 8.449219 L 21.777344 17.863281 L 19.035156 21.207031 Z M 7.546875 11.792969 " clip-rule="nonzero"/></clipPath><clipPath id="c5b3cee82e"><path d="M 0.433594 0.304688 L 14.804688 0.304688 L 14.804688 13.238281 L 0.433594 13.238281 Z M 0.433594 0.304688 " clip-rule="nonzero"/></clipPath><clipPath id="a841bf61f3"><path d="M 0.546875 3.792969 L 3.285156 0.449219 L 14.777344 9.863281 L 12.035156 13.207031 Z M 0.546875 3.792969 " clip-rule="nonzero"/></clipPath><clipPath id="6648b305b3"><rect x="0" width="15" y="0" height="14"/></clipPath><clipPath id="a83fe6185e"><rect x="0" width="29" y="0" height="30"/></clipPath></defs><g clip-path="url(#be851f1be4)"><g clip-path="url(#4a0f53f0fa)"><g clip-path="url(#28653605de)"><g transform="matrix(1, 0, 0, 1, 15, 40)"><g clip-path="url(#2ee9d6ec85)"><g clip-path="url(#8621ca8f1a)"><g clip-path="url(#8f4f2622f7)"><g clip-path="url(#15bf4470e8)"><path fill="#000000" d="M -1.488281 46.910156 L 329.804688 -1.265625 L 352.816406 156.964844 L 21.519531 205.140625 Z M -1.488281 46.910156 " fill-opacity="1" fill-rule="nonzero"/></g></g></g></g></g></g></g></g><g clip-path="url(#c45f4b1b1d)"><g clip-path="url(#8585aeabd2)"><g clip-path="url(#777a930b8f)"><g clip-path="url(#45975b1120)"><path stroke-linecap="butt" transform="matrix(0.740783, -0.107718, 0.107718, 0.740783, 13.512122, 86.908245)" fill="none" stroke-linejoin="miter" d="M 16.098023 0.00214389 L 430.925521 -0.00188834 C 439.815902 -0.00104395 447.025594 7.206348 447.023998 16.101893 L 447.023974 197.492428 C 447.02313 206.38281 439.815738 213.592501 430.925357 213.591657 L 16.097859 213.595689 C 7.207478 213.594845 -0.00221363 206.387453 -0.000618341 197.491908 L -0.00059446 16.101372 C 0.00100083 7.205827 7.207641 0.0012995 16.098023 0.00214389 Z M 16.098023 0.00214389 " stroke="#000000" stroke-width="6" stroke-opacity="1" stroke-miterlimit="4"/></g></g></g></g><g clip-path="url(#140c970ccd)"><g clip-path="url(#00e23d6a6c)"><g clip-path="url(#f959158a50)"><g transform="matrix(1, 0, 0, 1, 8, 34)"><g clip-path="url(#3aefcb009c)"><g clip-path="url(#3b926391db)"><g clip-path="url(#e26324e8db)"><g clip-path="url(#90bd9ab155)"><path fill="#fff1f1" d="M -0.675781 47.050781 L 330.621094 -1.121094 L 353.628906 157.109375 L 22.332031 205.28125 Z M -0.675781 47.050781 " fill-opacity="1" fill-rule="nonzero"/></g></g></g></g></g></g></g></g><g clip-path="url(#614272a816)"><g clip-path="url(#a29f823200)"><g clip-path="url(#83d8ffac5e)"><g clip-path="url(#64cd0d29fa)"><path stroke-linecap="butt" transform="matrix(0.740783, -0.107718, 0.107718, 0.740783, 7.326492, 81.050975)" fill="none" stroke-linejoin="miter" d="M 16.101119 -0.000247347 L 430.927866 0.00088437 C 439.818247 0.00172876 447.022775 7.208369 447.027095 16.099502 L 447.02632 197.495201 C 447.025475 206.385582 439.818084 213.595274 430.927703 213.59443 L 16.100956 213.593298 C 7.210574 213.592453 0.000882718 206.385062 0.00172711 197.494681 L 0.00250188 16.098981 C -0.00181767 7.207849 7.210738 -0.00109174 16.101119 -0.000247347 Z M 16.101119 -0.000247347 " stroke="#000000" stroke-width="2" stroke-opacity="1" stroke-miterlimit="4"/></g></g></g></g><g clip-path="url(#aa93880acc)"><g clip-path="url(#663d452f5e)"><g clip-path="url(#419d75df25)"><g transform="matrix(1, 0, 0, 1, 32, 63)"><g clip-path="url(#51d8d849f7)"><g clip-path="url(#0e47ddbfa9)"><g clip-path="url(#6b9fe6e185)"><g clip-path="url(#c9ffd23803)"><path fill="#e9b3fb" d="M -0.957031 41.382812 L 293.214844 -1.394531 L 310.21875 115.546875 L 16.046875 158.320312 Z M -0.957031 41.382812 " fill-opacity="1" fill-rule="nonzero"/></g></g></g></g></g></g></g></g><g clip-path="url(#6ac5a980f9)"><g clip-path="url(#1e635551b5)"><g clip-path="url(#32ee118d25)"><g clip-path="url(#89e787f7fd)"><path stroke-linecap="butt" transform="matrix(0.740783, -0.107718, 0.107718, 0.740783, 31.049425, 104.382223)" fill="none" stroke-linejoin="miter" d="M 16.100602 0.0007346 L 380.817389 -0.00248832 C 389.707771 -0.00164384 396.917462 7.205748 396.916618 16.096129 L 396.917332 141.744472 C 396.916488 150.634853 389.709096 157.844544 380.818715 157.8437 L 16.097515 157.841008 C 7.206383 157.845328 0.00185508 150.638687 -0.00171349 141.742391 L 0.00198486 16.099963 C -0.00233461 7.208831 7.210221 -0.000109873 16.100602 0.0007346 Z M 16.100602 0.0007346 " stroke="#000000" stroke-width="6" stroke-opacity="1" stroke-miterlimit="4"/></g></g></g></g><g transform="matrix(1, 0, 0, 1, 60, 127)"><g clip-path="url(#3d6ba6bae0)"><g clip-path="url(#50d1d29710)"><g clip-path="url(#7b6a5ae7a7)"><g transform="matrix(1, 0, 0, 1, 20, 4)"><g clip-path="url(#800889fa10)"><g clip-path="url(#5bc7a2ecd3)"><g clip-path="url(#f92a3f7f2e)"><path fill="#000000" d="M 0.9375 3.71875 L 17.515625 0.5 L 28.585938 57.484375 L 12.007812 60.707031 Z M 0.9375 3.71875 " fill-opacity="1" fill-rule="nonzero"/></g></g></g></g></g></g><g clip-path="url(#8ac002df8b)"><g clip-path="url(#f04d697834)"><g transform="matrix(1, 0, 0, 1, 4, 20)"><g clip-path="url(#750c30d450)"><g clip-path="url(#70b8bc83d8)"><g clip-path="url(#e8611dec13)"><path fill="#000000" d="M 3.882812 28.414062 L 0.660156 11.835938 L 57.648438 0.769531 L 60.867188 17.347656 Z M 3.882812 28.414062 " fill-opacity="1" fill-rule="nonzero"/></g></g></g></g></g></g></g></g><g transform="matrix(1, 0, 0, 1, 57, 123)"><g clip-path="url(#417b013017)"><g clip-path="url(#3a1e9ea0f0)"><g clip-path="url(#2663f8c97c)"><g transform="matrix(1, 0, 0, 1, 21, 4)"><g clip-path="url(#dee56d7a48)"><g clip-path="url(#0c8cf6d609)"><g clip-path="url(#cefa0b53ec)"><path fill="#f3ceff" d="M 0.03125 3.886719 L 16.609375 0.667969 L 27.679688 57.65625 L 11.101562 60.875 Z M 0.03125 3.886719 " fill-opacity="1" fill-rule="nonzero"/></g></g></g></g></g></g><g clip-path="url(#5d61fdcbf5)"><g clip-path="url(#348998ba0e)"><g transform="matrix(1, 0, 0, 1, 4, 20)"><g clip-path="url(#19f67af335)"><g clip-path="url(#b9e8e98413)"><g clip-path="url(#3bd45fce29)"><path fill="#f3ceff" d="M 3.976562 28.585938 L 0.753906 12.007812 L 57.742188 0.9375 L 60.960938 17.515625 Z M 3.976562 28.585938 " fill-opacity="1" fill-rule="nonzero"/></g></g></g></g></g></g></g></g><g clip-path="url(#5cce396558)"><g clip-path="url(#ec86f4d476)"><g clip-path="url(#5d5909bbed)"><g transform="matrix(1, 0, 0, 1, 255, 116)"><g clip-path="url(#607388aded)"><g clip-path="url(#248848d4ff)"><g clip-path="url(#5abaf610f4)"><g clip-path="url(#84bea644cb)"><path fill="#000000" d="M -0.558594 1.558594 L 19.144531 -1.304688 L 22.007812 18.398438 L 2.304688 21.261719 Z M -0.558594 1.558594 " fill-opacity="1" fill-rule="nonzero"/></g></g></g></g></g></g></g></g><g clip-path="url(#01ac56d80e)"><g clip-path="url(#9a5fe1509d)"><g clip-path="url(#21d97d5441)"><path stroke-linecap="butt" transform="matrix(0.740783, -0.107718, 0.107718, 0.740783, 260.870458, 122.439857)" fill="none" stroke-linejoin="miter" d="M 0.000542886 0.0021709 L 13.384466 -0.00271437 L 13.385431 11.703782 L 0.00225861 11.703504 Z M 0.000542886 0.0021709 " stroke="#f3ceff" stroke-width="2" stroke-opacity="1" stroke-miterlimit="4"/></g></g></g><g clip-path="url(#b061f448bf)"><g clip-path="url(#8d7969cf56)"><g clip-path="url(#de95ece85b)"><g transform="matrix(1, 0, 0, 1, 270, 93)"><g clip-path="url(#c115b8c459)"><g clip-path="url(#d8cc12836a)"><g clip-path="url(#2bbc2dfe7a)"><g clip-path="url(#6b6139f915)"><path fill="#000000" d="M -0.691406 1.988281 L 19.011719 -0.875 L 21.878906 18.828125 L 2.175781 21.695312 Z M -0.691406 1.988281 " fill-opacity="1" fill-rule="nonzero"/></g></g></g></g></g></g></g></g><g clip-path="url(#e6b8066b62)"><g clip-path="url(#73593d9ac1)"><g clip-path="url(#b222311d9f)"><g clip-path="url(#5543500264)"><path stroke-linecap="butt" transform="matrix(0.740783, -0.107718, 0.107718, 0.740783, 274.031677, 98.810443)" fill="none" stroke-linejoin="miter" d="M 7.851099 0.000144973 L 15.703457 13.739483 L 0.0000914202 13.739302 Z M 7.851099 0.000144973 " stroke="#f3ceff" stroke-width="2" stroke-opacity="1" stroke-miterlimit="4"/></g></g></g></g><g clip-path="url(#8f2b953eaf)"><g clip-path="url(#79fbb7d787)"><g clip-path="url(#62d8b91ead)"><g transform="matrix(1, 0, 0, 1, 276, 133)"><g clip-path="url(#9517a5318a)"><g clip-path="url(#e73833409c)"><g clip-path="url(#aa657aa8a4)"><g clip-path="url(#d74e6fe3c3)"><path fill="#000000" d="M -0.890625 1.871094 L 18.8125 -0.992188 L 21.675781 18.710938 L 1.972656 21.574219 Z M -0.890625 1.871094 " fill-opacity="1" fill-rule="nonzero"/></g></g></g></g></g></g></g></g><g clip-path="url(#c64bc4f52b)"><g clip-path="url(#bad79adb3e)"><g clip-path="url(#e6be6abbae)"><g clip-path="url(#c3f60e65f5)"><path stroke-linecap="butt" transform="matrix(0.740783, -0.107718, 0.107718, 0.740783, 280.000387, 138.521882)" fill="none" stroke-linejoin="miter" d="M 7.529489 0.000160744 C 3.373947 0.00230827 -0.000386623 3.371576 0.00101001 7.532281 C -0.00275731 11.692236 3.372425 15.062156 7.53313 15.06076 C 11.687921 15.063776 15.063006 11.689345 15.061609 7.528639 C 15.064625 3.373849 11.690194 -0.00123588 7.529489 0.000160744 Z M 7.529489 0.000160744 " stroke="#f3ceff" stroke-width="2" stroke-opacity="1" stroke-miterlimit="4"/></g></g></g></g><g clip-path="url(#233155a683)"><g clip-path="url(#741cd8c61d)"><g transform="matrix(1, 0, 0, 1, 137, 93)"><g clip-path="url(#84be6c10b9)"><g clip-path="url(#3f4db49ec0)"><g clip-path="url(#79609e01aa)"><path fill="#f3ceff" d="M 0.851562 13.933594 L 92.546875 0.601562 L 94.835938 16.34375 L 3.140625 29.679688 Z M 0.851562 13.933594 " fill-opacity="1" fill-rule="nonzero"/></g></g></g></g></g></g><g clip-path="url(#e623c742df)"><g clip-path="url(#8c96c10ccc)"><g clip-path="url(#16a95da91d)"><path stroke-linecap="butt" transform="matrix(0.740783, -0.107718, 0.107718, 0.740783, 137.856518, 106.934058)" fill="none" stroke-linejoin="miter" d="M -0.0012977 -0.000815555 L 123.75413 -0.00257856 L 123.754091 21.248144 L -0.00133733 21.249907 Z M -0.0012977 -0.000815555 " stroke="#000000" stroke-width="4" stroke-opacity="1" stroke-miterlimit="4"/></g></g></g><g clip-path="url(#5297fc4f13)"><g clip-path="url(#203d77f495)"><g transform="matrix(1, 0, 0, 1, 141, 123)"><g clip-path="url(#724f692e69)"><g clip-path="url(#195ca537db)"><g clip-path="url(#eed886517a)"><path fill="#ffde59" d="M 0.398438 6.984375 L 43.261719 0.75 L 45.550781 16.492188 L 2.6875 22.726562 Z M 0.398438 6.984375 " fill-opacity="1" fill-rule="nonzero"/></g></g></g></g></g></g><g clip-path="url(#7f1e1a61ce)"><g clip-path="url(#3cea523dda)"><g clip-path="url(#301128a99f)"><path stroke-linecap="butt" transform="matrix(0.740783, -0.107718, 0.107718, 0.740783, 141.400708, 129.982127)" fill="none" stroke-linejoin="miter" d="M 0.00248069 -0.00187833 L 57.880369 -0.00169862 L 57.880329 21.249024 L 0.00244106 21.248844 Z M 0.00248069 -0.00187833 " stroke="#000000" stroke-width="4" stroke-opacity="1" stroke-miterlimit="4"/></g></g></g><g clip-path="url(#3acf81a7f6)"><g clip-path="url(#f6ac3e9775)"><g transform="matrix(1, 0, 0, 1, 144, 139)"><g clip-path="url(#057811a491)"><g clip-path="url(#83e497defa)"><g clip-path="url(#bce8796d21)"><path fill="#f3ceff" d="M 0.9375 13.984375 L 92.632812 0.652344 L 94.921875 16.394531 L 3.226562 29.730469 Z M 0.9375 13.984375 " fill-opacity="1" fill-rule="nonzero"/></g></g></g></g></g></g><g clip-path="url(#cb8fcb8ba3)"><g clip-path="url(#ebbe7108bc)"><g clip-path="url(#cb8bb7f003)"><path stroke-linecap="butt" transform="matrix(0.740783, -0.107718, 0.107718, 0.740783, 144.940719, 152.984976)" fill="none" stroke-linejoin="miter" d="M 0.00102412 -0.000661875 L 123.755701 0.00273907 L 123.756413 21.248298 L 0.000984483 21.250061 Z M 0.00102412 -0.000661875 " stroke="#000000" stroke-width="4" stroke-opacity="1" stroke-miterlimit="4"/></g></g></g><g clip-path="url(#f036ee58fd)"><g clip-path="url(#fba65d5087)"><g transform="matrix(1, 0, 0, 1, 54, 101)"><g clip-path="url(#bd31aa2bc6)"><g clip-path="url(#7b1cd3a9fb)"><g clip-path="url(#a9ef67b7ef)"><path fill="#000000" d="M 0.554688 6.242188 L 39.691406 0.550781 L 40.75 7.832031 L 1.613281 13.523438 Z M 0.554688 6.242188 " fill-opacity="1" fill-rule="nonzero"/></g></g></g></g></g></g><g clip-path="url(#56ec878894)"><g clip-path="url(#65f7cb1472)"><g clip-path="url(#18c225a849)"><g transform="matrix(1, 0, 0, 1, 150, 162)"><g clip-path="url(#4e979f015b)"><g clip-path="url(#00e5f19773)"><g clip-path="url(#402c2cafc6)"><g clip-path="url(#ebedc512d3)"><path fill="#f3ceff" d="M -0.96875 12.253906 L 89.890625 -0.957031 L 92.4375 16.570312 L 1.582031 29.785156 Z M -0.96875 12.253906 " fill-opacity="1" fill-rule="nonzero"/></g></g></g></g></g></g></g></g><g clip-path="url(#e72b2e50e1)"><g clip-path="url(#6012c57e9e)"><g clip-path="url(#fd0ef697ce)"><g clip-path="url(#4a05592c4c)"><path stroke-linecap="butt" transform="matrix(0.740783, -0.107718, 0.107718, 0.740783, 149.036253, 174.254948)" fill="none" stroke-linejoin="miter" d="M 11.826272 -0.000773795 L 110.755494 -0.000453027 C 117.288783 0.000397207 122.583051 5.294593 122.582201 11.827882 C 122.581351 18.361172 117.287155 23.65544 110.753866 23.65459 L 11.829808 23.65502 C 5.296518 23.65417 0.00225035 18.359974 -0.00206336 11.825934 C -0.00196402 5.297808 5.298146 -0.000873133 11.826272 -0.000773795 Z M 11.826272 -0.000773795 " stroke="#000000" stroke-width="4" stroke-opacity="1" stroke-miterlimit="4"/></g></g></g></g><g clip-path="url(#54254f6215)"><g clip-path="url(#725cdbf626)"><g clip-path="url(#71b33558e8)"><g transform="matrix(1, 0, 0, 1, 83, 25)"><g clip-path="url(#41f0b12a1e)"><g clip-path="url(#d42d81042f)"><g clip-path="url(#99dd4bf7a0)"><g clip-path="url(#5942b51be7)"><path fill="#ffffff" d="M -3.292969 5.484375 L 54.882812 -2.976562 L 63.339844 55.199219 L 5.167969 63.65625 Z M -3.292969 5.484375 " fill-opacity="1" fill-rule="nonzero"/></g></g></g></g></g></g></g></g><g clip-path="url(#874a885529)"><g clip-path="url(#3b7138617d)"><g clip-path="url(#bb798d8c48)"><g clip-path="url(#cd5ff7d39e)"><path stroke-linecap="butt" transform="matrix(0.740783, -0.107718, 0.107718, 0.740783, 79.707853, 30.483326)" fill="none" stroke-linejoin="miter" d="M 39.257506 -0.000901563 C 17.574327 -0.000547434 0.000488989 17.576843 0.000843117 39.260022 C 0.00194814 60.938037 17.578588 78.517039 39.256603 78.515934 C 60.939782 78.515579 78.513619 60.938189 78.518429 39.255761 C 78.517324 17.577746 60.940684 -0.00125569 39.257506 -0.000901563 Z M 39.257506 -0.000901563 " stroke="#000000" stroke-width="6" stroke-opacity="1" stroke-miterlimit="4"/></g></g></g></g><g clip-path="url(#95f75c3e9f)"><g clip-path="url(#0be04a5995)"><g clip-path="url(#44d642b51e)"><g transform="matrix(1, 0, 0, 1, 193, 8)"><g clip-path="url(#d09124eab2)"><g clip-path="url(#48b0ab2358)"><g clip-path="url(#0044d753cc)"><g clip-path="url(#4075cd3910)"><path fill="#ffffff" d="M -3.710938 5.113281 L 54.460938 -3.347656 L 62.921875 54.828125 L 4.746094 63.285156 Z M -3.710938 5.113281 " fill-opacity="1" fill-rule="nonzero"/></g></g></g></g></g></g></g></g><g clip-path="url(#5d0600f707)"><g clip-path="url(#21d31d1ca5)"><g clip-path="url(#58429e9211)"><g clip-path="url(#65e9eccd3b)"><path stroke-linecap="butt" transform="matrix(0.740783, -0.107718, 0.107718, 0.740783, 189.287973, 13.112377)" fill="none" stroke-linejoin="miter" d="M 39.26006 -0.000726181 C 17.576881 -0.000372053 -0.0021207 17.576268 -0.00176657 39.259447 C -0.000661548 60.937461 17.575978 78.516463 39.259157 78.516109 C 60.937172 78.515004 78.516174 60.938364 78.515069 39.260349 C 78.514714 17.57717 60.938075 -0.00183121 39.26006 -0.000726181 Z M 39.26006 -0.000726181 " stroke="#000000" stroke-width="6" stroke-opacity="1" stroke-miterlimit="4"/></g></g></g></g><g clip-path="url(#a5ce918065)"><g clip-path="url(#579f8ad6d6)"><g clip-path="url(#31c8e002b2)"><g transform="matrix(1, 0, 0, 1, 97, 37)"><g clip-path="url(#c293145c76)"><g clip-path="url(#1baaba545c)"><g clip-path="url(#e73c31da7f)"><g clip-path="url(#87919ce222)"><path fill="#000000" d="M -2.496094 4.523438 L 42.757812 -2.058594 L 49.339844 43.199219 L 4.085938 49.777344 Z M -2.496094 4.523438 " fill-opacity="1" fill-rule="nonzero"/></g></g></g></g></g></g></g></g><g clip-path="url(#43cf9243bf)"><g clip-path="url(#cfdfc21681)"><g clip-path="url(#63b620186e)"><g transform="matrix(1, 0, 0, 1, 206, 17)"><g clip-path="url(#89bc2d1e2a)"><g clip-path="url(#e793afe58f)"><g clip-path="url(#49ffe42ed5)"><g clip-path="url(#4de35d650e)"><path fill="#000000" d="M -2.367188 4.050781 L 42.886719 -2.53125 L 49.46875 42.722656 L 4.214844 49.304688 Z M -2.367188 4.050781 " fill-opacity="1" fill-rule="nonzero"/></g></g></g></g></g></g></g></g><g clip-path="url(#64cd22ab2d)"><g clip-path="url(#c3261f24fb)"><g clip-path="url(#d1498be728)"><g transform="matrix(1, 0, 0, 1, 152, 61)"><g clip-path="url(#357ebda5b5)"><g clip-path="url(#7ea9761107)"><g clip-path="url(#60c432f4a5)"><g clip-path="url(#ed0ba1c43e)"><path fill="#ffffff" d="M 0.191406 5.4375 L 36.8125 0.113281 L 39.375 17.734375 L 2.753906 23.0625 Z M 0.191406 5.4375 " fill-opacity="1" fill-rule="nonzero"/></g></g></g></g></g></g></g></g><g clip-path="url(#5741261831)"><g clip-path="url(#38af7ac2ef)"><g clip-path="url(#536f5ebc49)"><g clip-path="url(#16e4c33b9e)"><path stroke-linecap="butt" transform="matrix(0.740783, -0.107718, 0.107718, 0.740783, 152.192018, 66.438384)" fill="none" stroke-linejoin="miter" d="M 16.496946 22.35119 C 19.034154 23.215803 21.915266 23.782397 24.746875 23.782841 C 27.57332 23.782534 30.296184 23.297855 32.805246 22.434061 C 32.862142 22.405423 32.914532 22.407768 32.966264 22.378378 C 42.389979 18.929048 49.330551 9.819141 49.466557 -0.000750997 L -0.000639216 -0.00128681 C 0.134792 9.873895 6.967786 18.982843 16.496946 22.35119 Z M 16.496946 22.35119 " stroke="#000000" stroke-width="6" stroke-opacity="1" stroke-miterlimit="4"/></g></g></g></g><g clip-path="url(#9e48d9bf2a)"><g clip-path="url(#bde577973b)"><g transform="matrix(1, 0, 0, 1, 188, 116)"><g clip-path="url(#6b380efa44)"><g clip-path="url(#6e3b5ff703)"><g clip-path="url(#ba6998460d)"><path fill="#ffde59" d="M 0.554688 6.824219 L 43.421875 0.589844 L 45.710938 16.335938 L 2.84375 22.566406 Z M 0.554688 6.824219 " fill-opacity="1" fill-rule="nonzero"/></g></g></g></g></g></g><g clip-path="url(#af5548cf60)"><g clip-path="url(#f8c899805b)"><g clip-path="url(#3be94d1869)"><path stroke-linecap="butt" transform="matrix(0.740783, -0.107718, 0.107718, 0.740783, 188.558347, 122.8238)" fill="none" stroke-linejoin="miter" d="M 0.000246136 0.00060159 L 57.883298 0.00153219 L 57.883258 21.252255 L 0.000206501 21.251324 Z M 0.000246136 0.00060159 " stroke="#000000" stroke-width="4" stroke-opacity="1" stroke-miterlimit="4"/></g></g></g><g transform="matrix(1, 0, 0, 1, 289, 105)"><g clip-path="url(#a83fe6185e)"><g clip-path="url(#7f9b535c89)"><g clip-path="url(#558bfca902)"><g clip-path="url(#976f8695f3)"><g transform="matrix(1, 0, 0, 1, 2, 2)"><g clip-path="url(#cbb83209a9)"><g clip-path="url(#04c57b9b0a)"><g clip-path="url(#963927cdf5)"><g clip-path="url(#7565ffe2fb)"><path fill="#000000" d="M -1.515625 2.453125 L 23.234375 -1.144531 L 26.832031 23.605469 L 2.082031 27.203125 Z M -1.515625 2.453125 " fill-opacity="1" fill-rule="nonzero"/></g></g></g></g></g></g></g></g><g clip-path="url(#4495ff4996)"><g clip-path="url(#b27cd99d7f)"><g transform="matrix(1, 0, 0, 1, 8, 7)"><g clip-path="url(#a296fc6c5e)"><g clip-path="url(#1106a5362c)"><g clip-path="url(#6758327c59)"><path fill="#ff66c4" d="M 9.691406 0.714844 L 13.035156 3.453125 L 3.617188 14.949219 L 0.273438 12.210938 Z M 9.691406 0.714844 " fill-opacity="1" fill-rule="nonzero"/></g></g></g></g></g></g><g clip-path="url(#812ca13537)"><g clip-path="url(#5dd6b71591)"><g transform="matrix(1, 0, 0, 1, 7, 8)"><g clip-path="url(#6648b305b3)"><g clip-path="url(#c5b3cee82e)"><g clip-path="url(#a841bf61f3)"><path fill="#ff66c4" d="M 0.546875 3.792969 L 3.285156 0.449219 L 14.777344 9.863281 L 12.039062 13.207031 Z M 0.546875 3.792969 " fill-opacity="1" fill-rule="nonzero"/></g></g></g></g></g></g></g></g></svg>